<mxfile host="app.diagrams.net" modified="2023-02-03T19:15:27.031Z" agent="5.0 (X11; Linux x86_64) AppleWebKit/537.36 (KHTML, like Gecko) Chrome/109.0.0.0 Safari/537.36" etag="sciX_kyEiKElPBUlnQhe" version="20.8.16" type="github">
  <diagram name="Página-1" id="ntbLtSMyAjOL-mvKOApy">
    <mxGraphModel dx="2060" dy="661" grid="1" gridSize="10" guides="1" tooltips="1" connect="1" arrows="1" fold="1" page="1" pageScale="1" pageWidth="827" pageHeight="1169" math="0" shadow="0">
      <root>
        <mxCell id="0" />
        <mxCell id="1" parent="0" />
        <mxCell id="YAXB3PAwyHVmM0aFCQrO-5" style="edgeStyle=orthogonalEdgeStyle;rounded=0;orthogonalLoop=1;jettySize=auto;html=1;fontFamily=Comic Sans MS;fontSize=36;strokeWidth=2;" parent="1" source="YAXB3PAwyHVmM0aFCQrO-1" target="YAXB3PAwyHVmM0aFCQrO-3" edge="1">
          <mxGeometry relative="1" as="geometry" />
        </mxCell>
        <mxCell id="YAXB3PAwyHVmM0aFCQrO-1" value="&lt;h1&gt;&lt;font face=&quot;Comic Sans MS&quot; style=&quot;font-size: 36px;&quot;&gt;Event Listener&lt;/font&gt;&lt;/h1&gt;" style="rounded=0;whiteSpace=wrap;html=1;fillColor=#f8cecc;strokeColor=#b85450;" parent="1" vertex="1">
          <mxGeometry x="54" y="40" width="720" height="130" as="geometry" />
        </mxCell>
        <mxCell id="YAXB3PAwyHVmM0aFCQrO-9" value="" style="edgeStyle=orthogonalEdgeStyle;rounded=0;orthogonalLoop=1;jettySize=auto;html=1;strokeWidth=2;fontFamily=Comic Sans MS;fontSize=24;" parent="1" source="YAXB3PAwyHVmM0aFCQrO-3" target="YAXB3PAwyHVmM0aFCQrO-6" edge="1">
          <mxGeometry relative="1" as="geometry">
            <Array as="points">
              <mxPoint x="414" y="390" />
              <mxPoint x="414" y="390" />
            </Array>
          </mxGeometry>
        </mxCell>
        <mxCell id="YAXB3PAwyHVmM0aFCQrO-3" value="&lt;h1&gt;O que são eventos de teclado e mouse em JavaScript?&lt;br&gt;&lt;/h1&gt;" style="rounded=0;whiteSpace=wrap;html=1;fillColor=#f8cecc;strokeColor=#b85450;" parent="1" vertex="1">
          <mxGeometry x="54" y="300" width="720" height="60" as="geometry" />
        </mxCell>
        <mxCell id="YAXB3PAwyHVmM0aFCQrO-14" style="edgeStyle=orthogonalEdgeStyle;rounded=0;orthogonalLoop=1;jettySize=auto;html=1;exitX=0.25;exitY=1;exitDx=0;exitDy=0;entryX=0.522;entryY=-0.01;entryDx=0;entryDy=0;entryPerimeter=0;strokeWidth=2;fontFamily=Comic Sans MS;fontSize=24;" parent="1" source="YAXB3PAwyHVmM0aFCQrO-6" target="YAXB3PAwyHVmM0aFCQrO-10" edge="1">
          <mxGeometry relative="1" as="geometry" />
        </mxCell>
        <mxCell id="YAXB3PAwyHVmM0aFCQrO-15" style="edgeStyle=orthogonalEdgeStyle;rounded=0;orthogonalLoop=1;jettySize=auto;html=1;exitX=0.75;exitY=1;exitDx=0;exitDy=0;entryX=0.5;entryY=0;entryDx=0;entryDy=0;strokeWidth=2;fontFamily=Comic Sans MS;fontSize=24;" parent="1" source="YAXB3PAwyHVmM0aFCQrO-6" target="YAXB3PAwyHVmM0aFCQrO-13" edge="1">
          <mxGeometry relative="1" as="geometry" />
        </mxCell>
        <mxCell id="YAXB3PAwyHVmM0aFCQrO-6" value="&lt;p&gt;&lt;font style=&quot;font-size: 24px;&quot;&gt;&lt;b&gt;Eventos:&lt;/b&gt; conjunto de ações realizadas em um elemento da página web (texto, imagem, div, etc).&amp;nbsp;&lt;/font&gt;&lt;/p&gt;" style="rounded=0;whiteSpace=wrap;html=1;" parent="1" vertex="1">
          <mxGeometry x="54" y="400" width="720" height="100" as="geometry" />
        </mxCell>
        <mxCell id="YAXB3PAwyHVmM0aFCQrO-18" style="edgeStyle=orthogonalEdgeStyle;rounded=0;orthogonalLoop=1;jettySize=auto;html=1;exitX=0.5;exitY=1;exitDx=0;exitDy=0;entryX=0.5;entryY=0;entryDx=0;entryDy=0;strokeWidth=2;fontFamily=Comic Sans MS;fontSize=24;" parent="1" source="YAXB3PAwyHVmM0aFCQrO-10" target="YAXB3PAwyHVmM0aFCQrO-17" edge="1">
          <mxGeometry relative="1" as="geometry" />
        </mxCell>
        <mxCell id="YAXB3PAwyHVmM0aFCQrO-10" value="&lt;p&gt;&lt;font style=&quot;font-size: 24px;&quot;&gt;Eventos de teclado (keyboardEvent)&lt;/font&gt;&lt;/p&gt;" style="rounded=0;whiteSpace=wrap;html=1;" parent="1" vertex="1">
          <mxGeometry x="53" y="530" width="347" height="100" as="geometry" />
        </mxCell>
        <mxCell id="YAXB3PAwyHVmM0aFCQrO-13" value="&lt;p&gt;&lt;font style=&quot;font-size: 24px;&quot;&gt;Eventos de mouse (MouseEvent)&lt;/font&gt;&lt;/p&gt;" style="rounded=0;whiteSpace=wrap;html=1;" parent="1" vertex="1">
          <mxGeometry x="427" y="530" width="347" height="100" as="geometry" />
        </mxCell>
        <mxCell id="YAXB3PAwyHVmM0aFCQrO-27" style="edgeStyle=orthogonalEdgeStyle;rounded=0;orthogonalLoop=1;jettySize=auto;html=1;exitX=0;exitY=0.5;exitDx=0;exitDy=0;strokeWidth=2;fontFamily=Helvetica;fontSize=24;" parent="1" source="YAXB3PAwyHVmM0aFCQrO-17" edge="1">
          <mxGeometry relative="1" as="geometry">
            <mxPoint y="740" as="targetPoint" />
          </mxGeometry>
        </mxCell>
        <mxCell id="YAXB3PAwyHVmM0aFCQrO-28" style="edgeStyle=orthogonalEdgeStyle;rounded=0;orthogonalLoop=1;jettySize=auto;html=1;exitX=0;exitY=0;exitDx=0;exitDy=0;strokeWidth=2;fontFamily=Helvetica;fontSize=24;" parent="1" source="YAXB3PAwyHVmM0aFCQrO-17" target="YAXB3PAwyHVmM0aFCQrO-20" edge="1">
          <mxGeometry relative="1" as="geometry">
            <mxPoint y="600" as="targetPoint" />
            <Array as="points">
              <mxPoint x="30" y="660" />
              <mxPoint x="30" y="610" />
            </Array>
          </mxGeometry>
        </mxCell>
        <mxCell id="YAXB3PAwyHVmM0aFCQrO-30" style="edgeStyle=orthogonalEdgeStyle;rounded=0;orthogonalLoop=1;jettySize=auto;html=1;exitX=0;exitY=1;exitDx=0;exitDy=0;strokeWidth=2;fontFamily=Helvetica;fontSize=24;entryX=1;entryY=0.5;entryDx=0;entryDy=0;" parent="1" source="YAXB3PAwyHVmM0aFCQrO-17" target="YAXB3PAwyHVmM0aFCQrO-19" edge="1">
          <mxGeometry relative="1" as="geometry">
            <mxPoint x="60" y="880" as="targetPoint" />
          </mxGeometry>
        </mxCell>
        <mxCell id="dKFzCZ33GP6Wc4S3GymS-4" style="edgeStyle=orthogonalEdgeStyle;rounded=0;orthogonalLoop=1;jettySize=auto;html=1;strokeWidth=2;fontFamily=Helvetica;fontSize=24;entryX=0.5;entryY=0;entryDx=0;entryDy=0;" edge="1" parent="1" source="YAXB3PAwyHVmM0aFCQrO-17" target="dKFzCZ33GP6Wc4S3GymS-2">
          <mxGeometry relative="1" as="geometry">
            <mxPoint x="190" y="920" as="targetPoint" />
          </mxGeometry>
        </mxCell>
        <mxCell id="YAXB3PAwyHVmM0aFCQrO-17" value="&lt;p&gt;&lt;font style=&quot;font-size: 24px;&quot;&gt;Capturam interações do usuário com o teclado.&lt;/font&gt;&lt;br&gt;&lt;/p&gt;&lt;p&gt;&lt;font style=&quot;font-size: 24px;&quot;&gt;Temos &lt;b&gt;3 tipos de eventos&lt;/b&gt;:&lt;/font&gt;&lt;/p&gt;" style="rounded=0;whiteSpace=wrap;html=1;" parent="1" vertex="1">
          <mxGeometry x="53" y="660" width="347" height="150" as="geometry" />
        </mxCell>
        <mxCell id="YAXB3PAwyHVmM0aFCQrO-19" value="&lt;p&gt;&lt;font style=&quot;font-size: 24px;&quot;&gt;&lt;span style=&quot;background-color: initial;&quot;&gt;&amp;nbsp;&lt;/span&gt;&lt;code style=&quot;background: var(--gray15); box-sizing: inherit; margin: 0px; padding: 0px 5px 2px; border: 0px; font-variant-numeric: inherit; font-variant-east-asian: inherit; font-stretch: inherit; line-height: 1em; vertical-align: baseline; word-break: normal; color: rgb(10, 10, 35); text-align: start;&quot;&gt;keyup&lt;/code&gt;&lt;/font&gt;&lt;br&gt;&lt;/p&gt;&lt;p&gt;&lt;font style=&quot;&quot;&gt;&lt;code style=&quot;background: var(--gray15); box-sizing: inherit; margin: 0px; padding: 0px 5px 2px; border: 0px; font-variant-numeric: inherit; font-variant-east-asian: inherit; font-stretch: inherit; line-height: 1em; vertical-align: baseline; word-break: normal; text-align: start;&quot;&gt;&lt;font color=&quot;#0a0a23&quot;&gt;https://www.w3schools.com/jsref/tryit.asp?filename=tryjsref_onkeyup&lt;/font&gt;&lt;br&gt;&lt;/code&gt;&lt;/font&gt;&lt;/p&gt;" style="rounded=0;whiteSpace=wrap;html=1;" parent="1" vertex="1">
          <mxGeometry x="-350" y="830" width="347" height="100" as="geometry" />
        </mxCell>
        <mxCell id="YAXB3PAwyHVmM0aFCQrO-20" value="&lt;p&gt;&lt;font style=&quot;font-size: 24px;&quot;&gt;&lt;span style=&quot;background-color: initial;&quot;&gt;&amp;nbsp;&lt;/span&gt;&lt;code style=&quot;background: var(--gray15); box-sizing: inherit; margin: 0px; padding: 0px 5px 2px; border: 0px; font-variant-numeric: inherit; font-variant-east-asian: inherit; font-stretch: inherit; line-height: 1em; vertical-align: baseline; word-break: normal; color: rgb(10, 10, 35); text-align: start;&quot;&gt;keydown&lt;/code&gt;&lt;/font&gt;&lt;br&gt;&lt;/p&gt;&lt;p&gt;&lt;font style=&quot;&quot;&gt;&lt;code style=&quot;background: var(--gray15); box-sizing: inherit; margin: 0px; padding: 0px 5px 2px; border: 0px; font-variant-numeric: inherit; font-variant-east-asian: inherit; font-stretch: inherit; line-height: 1em; vertical-align: baseline; word-break: normal; text-align: start;&quot;&gt;&lt;font color=&quot;#0a0a23&quot;&gt;https://www.w3schools.com/jsref/tryit.asp?filename=tryjsref_onkeydown_dom&lt;/font&gt;&lt;br&gt;&lt;/code&gt;&lt;/font&gt;&lt;/p&gt;" style="rounded=0;whiteSpace=wrap;html=1;" parent="1" vertex="1">
          <mxGeometry x="-350" y="560" width="347" height="100" as="geometry" />
        </mxCell>
        <mxCell id="YAXB3PAwyHVmM0aFCQrO-22" value="&lt;p&gt;&lt;font style=&quot;font-size: 24px;&quot;&gt;&lt;span style=&quot;background-color: initial;&quot;&gt;&amp;nbsp;&lt;/span&gt;&lt;code style=&quot;background: var(--gray15); box-sizing: inherit; margin: 0px; padding: 0px 5px 2px; border: 0px; font-variant-numeric: inherit; font-variant-east-asian: inherit; font-stretch: inherit; line-height: 1em; vertical-align: baseline; word-break: normal; color: rgb(10, 10, 35); text-align: start;&quot;&gt;keypress&amp;nbsp;&lt;/code&gt;&lt;/font&gt;&lt;br&gt;&lt;/p&gt;&lt;p&gt;&lt;font style=&quot;&quot;&gt;&lt;code style=&quot;background: var(--gray15); box-sizing: inherit; margin: 0px; padding: 0px 5px 2px; border: 0px; font-variant-numeric: inherit; font-variant-east-asian: inherit; font-stretch: inherit; line-height: 1em; vertical-align: baseline; word-break: normal; text-align: start;&quot;&gt;&lt;font color=&quot;#0a0a23&quot;&gt;https://www.w3schools.com/jsref/tryit.asp?filename=tryjsref_onkeypress&lt;/font&gt;&lt;br&gt;&lt;/code&gt;&lt;/font&gt;&lt;/p&gt;" style="rounded=0;whiteSpace=wrap;html=1;" parent="1" vertex="1">
          <mxGeometry x="-350" y="685" width="347" height="100" as="geometry" />
        </mxCell>
        <mxCell id="dKFzCZ33GP6Wc4S3GymS-2" value="" style="shape=image;verticalLabelPosition=bottom;labelBackgroundColor=default;verticalAlign=top;aspect=fixed;imageAspect=0;image=data:image/png,iVBORw0KGgoAAAANSUhEUgAAAjkAAAJbCAYAAAAG14U8AAAACXBIWXMAABwjAAAcEgGm671BAAEcbElEQVR4nOy9DViTZ7rv+6dlNvHUJdFxELqUmi5xjINdYqUVhOk2SGcb1H1IpGeRaI8Y21FCaxWqFikeWIjVAmpLLNMacVcDPbXEs1TibpU4HRTa0YpTHOMST2OppyDj1OCy23AtZjj3mwQJEL4UBNP7dzWVvB/Pc7/Px/38n683vtJp4W1gGIZhGIbxMnyH2wCGYRiGYZihgEUOwzAMwzBeCYschmEYhmG8EhY5DMMwDMN4JSxyGIZhGIbxSljkMAzDMAzjlbDIYRiGYRjGK2GRwzAMwzCMV8Iih2EYhmEYr4RFDsMwDMMwXolv6UcfDLcNDMMwDMMwg46vSCQabhsYhmEYhmEGHd9Ro0YNtw0MwzAMwzCDjq+fn99w28AwDMMwDDPosMhhGIZhGMYr8f0v/+W/DLcNDMMwDMMwg47vo48+Otw2jGh+v+4J/Lfd1ymlpuE183m89cxwWzRCaf09XvvVf0PRt/T3P72Gz//0Fp7lFxQwTHe+LcJ/++fX8Hs7IPrv+3D1//4XiIfbJobxUnwfeeSR+w7EZngBwUn/D6jOIvC3n6L+3Xl93tP4P9dgseo9nL9NX0bPxNqPP8O2+eL7tmWw8fHxcfv7EQxCcnknj/jALaXg80jntHIvI/eGCP9y8BY+/O/3Y+RPg2OrA/Df9bY+rxONFkP8j5MhnRmB/7owEUnKOQhkYTr0dKorQj2hzzCawzDezKCInEfchAB8nJW2N2y/X48XXuwQOMkfHcXbz4+7bzuGgkfuPlr3hptxgxLmbjGgPx7pkladysg98lMQmZZPcnHokghhS9dhweR7C+ORfia1/bYNjf9+3vE5+X+/hx1vJSJ77wdIfppfK3F/WHFsZylq7FLEp8VD2lU4/sOTmLckEYH056iZT+J/Y5HDMEOGr8+gND6dvqG3MG2n3sSifynAFzb6MlqKZEM53l0QeN82DBU+Xb4NQnJ5J10TxqdzWrn/Lf6v6/CviVIMtCmVhHl5+rfWoDQnE7mXJEiOToVccm/BdCSRCBEp70Ib4eE1Ea13cOdGIyw1Zhw7ehIWG9XNP5fi1bhG+FScQHLovcXNEFf/JwoyMnHSNxHTX1dgetcy+ws5Nv0P+bCYxjA/NQZH5LhLAR/0KHLsZ7cgQZmL6hv0RSSF5n9UoHDRyBU4Djo11F7eyN4PPug8XdVV5Lg3vVI5tC/JHqR1DwfXq/HFFeefPvcjqN3uC4pQQ5XYm5zchLxGM7b8n0vw5nEbcOMk3ty4G/JyLe5RY/3ksZ89iRphXna0TzexzzDMg+WBzcDbz+uwZPGbMN8VOEfxQfwIFzgM8wCxV1fjnNA4Puh1MYEybNK/jepZL8FE9dN2sgTGK1qkTnnAdngJVadqYBtuIxiGcfBA3Kn9kh5LFa/A1EhfRBKo9CRwEvrbT7Sj8ZQBuv2HYK48B8u1RtjsIogDJZDOCIPsf1+BFctkkHTprFq2zsXTm6odC13D3vwKX2WF9RGNCS9NXQj9Nfp7vAqfXD4AhdjDda02VO/Ph+4jE6prLLDa6JHGB0EaJoNi+TqkJvQxDWO3wrx/L0qPmlEl3H/DRjaKEEjPIwmLhJyeR5MY0ecCUNsFI/TFRhyrrsHFK1bYbMJWDTGCJksRFi2HIkkL1WxPD0AmlC7BOLWR4hVD828/4IMFjTBtTcGWYjNqrtkgSjqKH37XeTjdfsUE3Y7dKDnuzAP4UlxTZiFi0QqkvqJCmOeohgTrjrn4Vaozb6WUt3/uK29tJVgydSmMgsCeqMHRix9APtr9gnsrY+2Y1/wT5r9rpfSX44P6o9CMJxuP56OgyAhztTOPMToQktBIyBKSsWm1rFP+1mx+Gk//a03HgVYrdDGPQOf4IoLif3yPT5aJB5xOA2KiEvERVEePUKraLaippX+nuB64tQZvznoaWy6QNVFv489/SMXYs3q8uakAZfR8ja0RePvr091FUWM1Sj7YC+PxKtRcsqLBrYxKw2WI/5cVUMdKPNaXxg8W4snfmhx1Q1X2Aw7Ei9B4Uof8ohKYhDRttHWkafwKrFst7zF/nNxHHvfr+csg0j6JV467La2/TeXuv5Q4/xa5pdFVHeZPfwVmITniD+D7MpXn3VU2C4zFlH7/04zqWgsabrjSj+pdWPQCqJI0UMz0eOfdZ7aeNGDvAXrmMxZYrjbQM1OKUroFTZ6OsPB5WLBMA3VU4ICnjhnmYWHo1+RcKcHKxS/BeBVOgfN+BQyqfgoccrb6ZDXSirv2jOywXbOgWvgcK0H+DhUKD+qhCe2oqtNfVCNyazXMt6kRKS3BF+nUIPdSk+0nDqG80fl3YLwacWOdEyzujyb623ns/j+USDlk7XxvoxU1x/T0MaDkfxpQ/r4CEg8iRRjNUiemwXip6x4jcsBXLY5P9SE9PY8GuoN7oPLYkyaR9a9KKLLN5Fy7nLptg/VCteNj/ECHvdlGlL0R0c2BjhrVnhB23Glpxheb47Bka83dnU+iLnnYeCQFcpUONbc722E9b3Z8jPuNKDyk7RRHt+mqAazb6osnFZS3m515azlkxPlMcvq9iELbUaNzBJGQxKsQ8w9uk2f3Ucba+d9EHenZ8iOlZ5GH/LE1wnLK6PiUndiDKqPmbhnpMyV8BpZenZO6v/eOxZOBYvq30fEctuYWus+1ludnozDK8Yx22G+3oPnbUrwu1GlXfRFayM75TY1raQqUyVQnbF2icSujpmISggl5MOzVImx058vG/kNHOtuaG3E+byXk6T2nqaE0FWXH8iAb7+HR7jeP+/v8nhP2LnfTqFN++Hi8t/FkBtQv5sN8rYuvuO1W797Lh+x1Awy5MnQbEyehXPJyHDTFlm47Gu2Ubtbzjc4wPsjH7tV6lL3j2WcxzMPO0Bbrq0asXKRBibDOwFcCxe5yGJb1dwSnESUr4rCy1CkoxHM0yFhPPZcIKcaK7Lh56RxMH+Yg54NqNF4iIbWIGu9qA1TttX2iGpoFGTAftJEdBuhP5iBiQU8qxw7TwXKnAyU71Ykyjz2bmgIN8o/chDRhE1KXxWGWRAzRbSuqTIIwIWd72w5LsQYrw8JQ8UqX57yqh3pBitMx+ooRtiwDGS/LETlNAnErOa5awWnR8xy0wHaeHO0i6mVWF0Iu7pIq+zUdDWhgBLTpaVBHh8HRPtms5Kz1yMktIVsaYc4kxx56DnsWdQnEdxScLptuuULXv1dDYYVBviASUuFSaVAnuzUrXAKH7I54Kcdp9+SxsN+w4txxevZcPVKSbIjsKrqGislKqKLTYD5GT3CJRMP5HITN7uliG0yHzM7GzVcKlco9b++zjLkQ3a1Fd6hx1yI/+xzGxm9CTlIcIiWBjtE7y8kSyhdq9G8IojENaaVKlLlGZ8Lo+rZMO6rXT0fkDqujDGo/u4jCaJelD2a8FTZqQO8+02j3GiBCh467CXOBgcqxCJJ5CshnBkHUOhZSN5FiI1Ec86IeVqE8jJZCsT4D2ngZZk0U0/0NsFQboc/Ngf6sDZaDJKBJYNV8rOrcULs9883jVMYpDxGtRd5qBWRSIU6qM9VlyN+ug/kq2X42H+rkWd3DGZQ87s/zB0L+2R1oWy3YEj0LGV9Q2RytQtlfDFD4YkB5aP8iA4rFW1Dt2H0qgfwV8jcqIf3GUuI24FylAbrcfOosUR3fGgfFqCqY3wzr5LOs7668K3Acz7xOBVmYBEGjR+EOhWE9Y4L+nTyUUB7UvKfGypCLqFjLq7AY72Po3GejCSmL1NALoxbtAidJ2u/bbQdTkXrQ5Zhi81B1OBVSt1osniOHlj6yGdSQvGqC7WoJMqhRV7wvd1V2MRTLlAg8pCdB0Iiy/UbkLehpWNhEvUBXt2yaikSDB4lDzst0SISIN80wZ0e4ORQppGRHXJgakS+UkGO3kROkHthLhZDdvcgGY3qGq+dHYWSauzilQEjnqbBpnhxhL89C3AdWxxRfxnYN5LluUzGtNSgsMLrEmJTSx4y8KHdbJZDMlEE20Y6wFcJ1VhjeNSBnkbZbA+JomFtJlH2ow80pqSj32Au2w/zOFsc6DceTvlIGU4GsIw3FJIymkBCbJ0VcdMrd64aeQCgT5Ug7ZoSN8sVorEHO7B6mrBrLYBAW1AqEqqF0E0P3X8a6YK+GLtuCsDdMMGW7j6BJIKV8iRxPAnmFYLMgvCi8ZW7l0bdriKIHuzbHTg1ltavPT2VrltTjEwI3qHE8eJPq8zkYVnuYmrWbqUF1CRwKR2usQmGs2O0CCSLiUxERGwlxtAz55+1oPJSBnGMKFC7oLKxcAaK61IjARZ1HvwSE9/vIY4Wyt9IxFd54KAeFZ1VUFjquGfQ87uv5u+bZAAWOUMfzX8l3ChwRpV+JufPmDLEYssk5kC2QIWVeHHQXKH22p0GXWOE2XUh14uMq5whOoAr6Y3s6T70HBkIyLQwyEp4SyoMtlAfm93WofiUPETyaw3gZQ1Kk7eQIMhYoHRVQQLJ6DwwvDWTLsBX691yNuSgCGe90dkzuSF/KQdpeiu8s3XVQD2OuHCpXYy2KVUE5WQ/dFaF3aUBZowoaD2udbcfKXA20CGEqdc9TH9Ool54e4fE5AuNzyFkakXaKnvmaCcZqQNb+TsRr1PM64hJRkzXIWRvWQ1qIIU9Phaw0BebbdtSU6klQkVhqt8duR1CECopJjbCJFNDM8RxKYIIGceuot0zPZK+pcSxmlbtf6vZ81isipJ7M8TzM31oFY/vU3Gg5UtfJPItESpec1XqY3NeV9IKwvke/vxEeNjb3SCA9t8xt+k68SAn5eCNK6BktR8pQkx3mMd8ajxgd01oOcalSuF0zOGWs27NRWugyu08ROp6B6oRMZITxtjCDcg6WVtUIaVSorL2dAcNV5zfRbCUUXbeQ/8z17w0LGkhwmD018BDqmR4G1w4xcTyJl04Cx43RlObrFdCrSkj0kRjfb0LOAoXn8kX5k7Jd43k6ZYoGGcvyYXrb4uyIHHYXvIOYx/18/vvFflyHwvNOvxmYmEcdlB42Z4yXISdTgTJKv8bbZuj31iC1vUPU2gBrozMM0cTpztFZT1AepJWWQ2YbC8lECU9XMV7J4BfrG9STW6Rz9NDase7PQP6LZmya3U+30Gi+26t0ONxpvVzrK0yzhJFzogb2tvM+1SJXPCIZNIlS6P7V4jhXUmqFptuQrKtX7bg+0nF9T0iokep5XY+ERA3de6rG4WTOnaU45znDslWaUeVazxIYK0fk6J7CICbLIZ8pgtkhlqpQfYHE0kzXOXJK2t306eV2ByJyWJPJUGGh4u2bENZ79uiRpymg7kEs4Uo1zrm0mShUhsiJPUcZJpdDurWGGu6+jKP0OJ6Plcf7vq4DEeR7qbc9RdxxSKyAckEgSkgs9Txl1YiyQ2Znj3Z0JNQJbnk7WGWsC2GKXkSymHrQQsMplAWbDXd6ifJB4FibccYMY3EO8kotrjoghTaXxECPd4khS1R2XwPi4txJ19Qg5ZlskbzXnysQx8ZBNrrEIfps1Waca1V0CHo3RDN7z5+IWBkCd1gcYsZy/hzFH+aMd0jyuPfnv1+qjrumon0DEZfQQ6ei3RJKv0gh/WzkYyndLfTcjnzzDULQeLL9qh32C2UwnKJOSJTnkMTTZOCXOTDezKCLnMaDW5Av/CEOgyp+LMz7qdLaqpGRQD2xkwaoJvcjEEsNOTznn6IgMVVWK6y9XC4KCiKXWgN7qx0XL9CVizpcdJhKg4i301Btt8NcUgLLK5s6v4H0RhnKXNMZonnCyE+PsSAsrPfpNqlU4rRDWHhpbRCOOI5ba9sX/4kwfcasPnqAEgqHrhBEDvVML9bRvzMH2md0W0PQxw8piMNmdX8jaztWKyyu20Uhkt7fmzJtuqOXbLnd20WDCQmfxDgElgrTkcKUVTX14CM6X3KtDMZKV8p3zdtBLGPuNkmn9ZZKYyFqF7itfeXMYGCHUTUKPqp+Xj5aCs3ucuTN66W8kYCeNUPcw0kqL5dszj99pZD2eJ0LMZV1QThfok+jBZYbJOg9qAfxjLBeRBcRIsV0KsOCOLBTmRWmyhxCcyjyuNfnv18aYbnQ4PyThEqgqAHWq71dL4ZESD+bsIP1nKOuOkeqpFCtiETeWRKc9hpsiZ0Fc4IK6vg4yOdFQDJU5jPMCGRIBijFMzXI218ITSgJC+pBx71LjfzVEmgSqaE8loMIce/32xsbYHM5J9vBlXjyYH9jtqOxoUNcOJimhjo6A9XC1s7zBui/2IS8qI7TwnSGyeawGvJlvfTQhC3Tgb0bLhKPhdjlbG02G9oHUBpu3Lx7TWAfYQiMHS8s/LU57RO2H3e1StiaW2xA+clzqKmzoqGx0Tlacw8IcfXUpNnI7vZgx4rFvYuz0WKMFS7oh8gJXF2Bht333390CJeJeuiuCrusylCdHdFp+sd6yOgaQaO87dL7HtQy1g6VkVGjBypIRwCjhXUyGqSlp0IxrS/7g4QlHZ5ptaHhL+3resYiqIcpvbv4BlL5cy2Bb71J5Q3dirojxkljew/HVe8cUL1rr21Dkse9Pf/90tqAhgZX+gniRPYktvT3Xjs9tw1300+ymjpv3ymhfps6mXYrqvdvcXyEMiqZGQlZrBzyxUrI5/D2cca7GXSRI5qXA/PhTa4toSLICsqQd0WGlGONsH+xBYoVElR93MP8ugu7/d77uHe63RsIdZIcGcddi1RLTMiJal9U2Ijyg67pjEAlNF13IXViFER9LSIRubkLdzvu/i1ybUXtI5hRbte0dp7UsJau7L4111cEETUW4ruLV+1OkdWPZBT1Zk+r3e26Ph8e/Xi0wUUko96pBDphR9IVE8rO5iFiTvtJq9viSznUXfJ2cMuYGyNqXYMIEWv1SPO0kF44Sw3e2EkSx+iTuL955yuU4Z5O2t3KXH/Kg3udslO6erSy9zLquETU0VC7ldkhyeNen/9+ofS75x2K9i4dHTFkuRWwvGCE7n09yo4I78CyO4So9awJeuGzNYU6pAqkZechdZHn9xUxzMPOoLtk8bSIzu+8EHZYfKiHZZ5zIXLjoRQo10tgLuh5vtl9+6rklQp888799frFizRQBhqhbxR69waYcuXO3QbXylDims4Q3p8i622tDGH/zz4icneM7o7Z7T0qTufZuzux/4dncWE/mwHlCr3zlfHUC5a9koNNK+IQOS3QbRuzgBX50dOdi6DvB7cw7fa+VpAI7xC5v+juhYgXVJC+uwUWYdGpsRp5c1xTVleMJHpcCzgXqbu8/G/wy9hIJShcAUX8g2q+Ok+T9q0x7uBusepRPPQjHLu9Y+rPrd49fHnsln4k4AvrKqDtZR1cfxBEzKbdwod87/kqmE+aXZ9qWIW1UOeNyFBU4dz7VShL4i3kjPfxYPqd4+UoLM2DdZ6wzdiOmnfVUEvMKHvF8w4F0XgJgsgyYW795o2OaZ97ZrQMqkQJ9EKPv1HYLm6DIlHcMZ1BQkzxoud349yl9SbZ0rsldtvNu8PjQeM7pneCAoXpJ+cK3sZGYRi8N2dip3hc8/IUgpjCaT9u3u0SOEIPPduM8jd62uHRnwamb0SuKSohqJu2PvLhhhXWoV9k0h3HTqAt2HLeucuqOtc5ZWU5WOYSgxKoPeTtoJcxxjml+4v26acGNAhFvrdGurXR+RZfB0EI7GF6y/aXnqaO2i/oqHcQB6H9LU8PXR77BkESRBaed5u+u0+R04EIgTPJDwqftfT1thWm99KQkmmketvofMVFvMHzW94Z5iHmwQ2uh2ph+NCCSIUOFqpUpvVKpE02e/6BzhlSxwI6R0+jpgo1rYr73GorguxFFcKox1/T/o6ShIiO6YxQEl09vkyuHRsslyz0b88/IWCxWO8uMJaEdAgZKT2PGMLbVu24WCMsQu5taNjqfKW+Ixi395W0WlBT0+g6Hgl1Ui9bWG01OHfl/hWHaNJ0x7RijbCgs87iWLTZU1Njr7Xg4oN6GaA7vmFQvxCG/PM1jq3p5Y4pK+e7cxwpILz3yNPusUEvY4xj0XwoSYyTVscbd2tqbSRCxT1ffuMiLFddf0+UYnoPIqeB6l0jPLzVtx1rR9kTSZzCxsFDl8eBmD6N0u+Y1VHfq4Q56V5/tuE+EF4y+LoBexqmI0bo/N0ww3wGUMQOTXQMM1w80CovXpCHslwSOuuFVf8W6FaoITlejtSuu4fGyyCPEMEkLBa+YoShMgcRvez4sJ3UQXeFKu0CGcIm9nDdTBIyc/JRc8oO2/EylFVaYTjr7NtFqFS9/ixAOxaTCZY3wnrYjWSF+aTF+aevBGHhHSJHFC1DpLjEscC58bjw3hZ5t+mTu1wyotz1fiFMkXV6N8yddhEhrKXoZWrN8l6hazF1l/sGyrQwzKKGR9BW9gvkBK9tcu6G6YYd5oOm7j8z8YCQJqgRll2DaipTpuMW5Ig70jDshR62dA9FGWMQKWznfk/Y8WZH1aEyNCZpehQnjncYuYp64DxZj3XQXk3itVHr8R1XAjXt266FHZARbu8oGgl57NgO3v/LwxbIIXlXByuln7nUAGtSL78GL6wx3GGGfTY9Z7T07uJr+5VqmCqrcK5ODGWmBmE9PooI00OEDhd1zqjzd3MYppsZZqh5wP0aEaRry2CwREL5gQV26j2kubaWKzo1nhKoX1Ig52SJ4629+nUZUBzv4XdprhmhfTnF8dMRGZM1KK/d04OAkDqmLTJOmWC3mZCfXOPcHi28PyWxf3PR9rOFyNiv8jh3bTu2BbovXB57mqLTm3URqIY2YQtMH1gdLwbMyNYgcruHF8YJz5peiGrXlJTsZU2H4xeGsieRtxIab3sNzp2xQ+XBYQtrntS5VgRRelqFHxuFa9i7r50unhDJoFgQCH1xo+PdIbpcM9S7u6+lsp3KQEZpb5tzh5gpirs76CyfmWASlTunqkQRlLc9jT0NRRm7T9oXjvdjanSkIorVQDNN7/gxS9uxfGQcicMeT6O1wgtDt5uco22iMGhe7uENwwK3TdiSbkLcXnl3wXStBDnFrs4FhaOMd6+bw5HHoo71cY7pOAxoykk0j9Jvph4Z1AGzn8xBynsylHl88aAdNVtToMkU3ktEHbWCi6hyvQPMXpkHjfBmbaqp1f8wC+Vv9PTy0UaUHz/nygMppvf/hfQM89AwDIO3YsjfKUPO1UikCe+nuSJsLZ+OoGObEOHmVMQJ+cg/VA01NZ728/mIi7BAu14LJfVYJOJRuNN4kRq1EhS+o0e10Jj7BkKRndOrYxJ+eFNOztJIDYjlUvur3oVtyL2Ye3f0RAJZLPUKk2MQU+v6LZnJYx2/F3XuiA4Zue2vsic71qd0GRYXQZ6dB9VxJUquknPaIYesMQ0ZLysQOU347ZubsNaYYNiRD91x55SUeF4O8l5yd9iBkC2KhOgY9dyEX6lO1iDonQyoI1y/fVUj/FBmIQr312Ds6jLkIQVK4ZexSRAZ9pI4yYx07L4a2A4osnsdPcvBDMdr5i0fKCGzpSEtSY4wElyO364SfrfrXSOsoSoobCUwXuo7VPslE3Qk+AbchFMexCV5mraQQJkgo/JEjeZZaiBszmlDUbQaao8/cupkKMrY/SCRCNv5helMG0wFadCL1Zg16g4afKc7tvo+FJCwTCtIhXFxPnUiLNBTPbm5NgPaFyIwPXCsYy3IxZNl0G3Ph9HxZmQRwl7JQ0aP08V0PjYSDfuFspeK1NX07wwJxrY6fwMrLzPn7g9lSpZlQNMlvx98Hrs6I0IJtFdBl66DJDkSY+804M4kYWS2j1LvG4bUd1NRHiv8dlUjTK/SPWfSkLJMhoiQIIwSfEVtFcqLhedyvn9LNDsV+W6+QpyYBs071JE7b4M5k/xUjZY6WTJESslXCM8l/MinpQqm/Trojtgc9wQu0JI4vddnZpiRy/DMUFOvIfVDg2PHlfDbVsJIgHqFBBUlKret5YFQ7S3HHZESadRTs12hSvuyyfmiwa6MlkK13QD9sj4agvEKaKhXaSx2eUXf7u9P6cZdkRMIea4Oikw5UnashHmHp4vF5LB7sCNQAf2RPUAi9RYv2FCzPwNK+nRHBMmCDBg+TO02zCxJKkTeEdd2/EslSHuePl3ulS7To7xAjqDjMkje0zuGvWvejkHQ24D09Spc3N7lhXl9EboJhncuIia5BFY72V1KeVXa2W7RFAUKi9PQmGSE0bHoFL2+zdd2Mh8pJwdmhoPx1MMmZy/3UGodAnY9CVibBTUXhCP9eTPtEJSx+yBwkQoy6pkLPzFi+0KHlc/rHMdFy8pwZ45iyOIdbITfiCr/0A5lsg41Nyww/quaPh4uFHYIrtU7fkW7t6ZfROEZ5pAw2boFKw95fnNMYGwODAWe3rD8oPNYBFkClbuDzik7y/4UxO13Hpe/byWR03fYojkk3Iwgnyj8CnkjqqluVRd7vjYwKhX60pxOHURBaOZR/LZ4DfQXhB9B3YKUgz29cUdEaZcB4/s9TysyzMPM8C3DCxR2XOXAGpsG8w3h92I0UE4OhHm723QIiSHN3ouIW6GH/kMjyivPwXJNePGdCCIx9ZimSRE5TwHVCjVkk/szLkAOaJkakv35zlGXQCXUC8S9XC+8e6J9Ae8oiAPDoDHWYNb+PBTuN6O61gKrzU62SBAWIYdydSq0C3peVCwK1cBwRgbNfj1KDplRVUP3C7s+SGwFTpRgeoQMikQNNAt6WFQscv7gofQ96sV9bMK5Sw1ovC38WoAE0nAZlEnUY1vkundBHvbk3kHabhMsjXaIJ4Yhcsa9uTFJkgHnwuKQR71d00khD8hmkRiSKbMQsUiDtFdVCBvfCN0/tCeb7QG8zbcL4yn9KS+Npba739Xx/XjeQS9j98FEKh8f26Cl3r/pfAOVCxHEkyn+sIdva68koRDnotUo+YBEzGdVVFataBTqCpWbICo3YdGUPys0UPRrYS0J1mwzhaeH7gMDTNVUbxptlHeBjhfbyVVapL0kQ2BP3uwB57E4Pg+md4C0d8pQJWwAEDvrStjk/jyrE0G0VdSqYSqm9Dvm9DXCTjSh3gVSfZ9O9V1Owl4TH9bxIkR3pqiw50wEVKUlKDlCaVd7kdKMnvm2sLWe8oDKlTSM0i6B/M2iofkdLoYZCQyKyBELPc1lA79PNDMVFX9J7fO6wCgNNgmfe7CtW5whzh+iE0SOhCp47+/GEUHx4U20fdjJGkQk5dHnXg2QQPZSDn3u4/61hfTp60JqGF4ncfK6h1Oxe9Dwn3sGFK14pgo5e+nT4xWB0H52p8ff1brXMtJ/xFCV3KTPvd19P2UsLPci2nL7caFvGHJq23pJQ2GaMhWG6r7rRG/I36cy+/59BdEFCVLNdzBgqwKpkX1T+AyGDSJIYrXIEz73GMK95/FAn1+MsNV7ULG6hzo2WYuKO33+Ah0FI4V8bR59+h1xZwRfkbTJ8WGYnyojekPlUFDzvt65o0NY7LjC8y+KMwzDMAzz8PPTEjmNJcj5oMbxp5h6hJrQYbaHYRiGYZgh46cjcoT38ryode7E8JVCs17NC+0YhmEYxovxapFju1ID6207blqqUFKQA/1ZGxw7kFYXIiOKJ6oYhmEYxpvxYpFjg2l9JNSH3Pf5iCCJL0TZ9p5/HJRhGIZhGO/Ai0WOCKLxQRCLrLD5BkIybRYUKzKQ9lJEz1tNGYZhGIbxGry4uRdB8f439BluOxiGGSiiBAPutBmG2wyGYR5yvFjkMAzDMAzzU4ZFDsMwDMMwXgmLHIZhGIZhvBIWOQzDMAzDeCUschiGYRiG8UpY5DAMwzAM45WwyGEYhmEYxithkcMwDMMwjFfCIodhGIZhGK+ERQ7DMAzDMF4JixyGYRiGYbwSFjkMwzAMw3glLHIYhmEYhvFKWOQwDMMwDOOVsMhhGIZhGMYrYZHDMAzDMIxXwiKHYRiGYRivhEUOwzAMwzBeCYschmEYhmG8EhY5DMMwDMN4JSxyGIZhGIbxSljkMAzDMAzjlbDIYRiGYRjGK2GRwzAMwzCMV8Iih2EYhmEYr+S+RM5XX301WHYwDMMwDMMMKvc9kvP0008Phh0MwzAMwzCDCk9XMQzDMAzjlbDIYRiGYRjGK2GRwzAMwzCMV8Iih2EYhmEYr4RFDsMwDMMwXgmLHIZhGIZhvBIWOQzDMAzDeCUschiGYRiG8UpY5DAMwzAM45WwyGEYhmEYxithkcMwDMMwjFfCIodhGIZhGK+ERQ7DMAzDMF7J8IucViPUY5Uoue12jKwSjZcgLFqFlOwMqKaJhs28fnHbhJUhSlxcdxFVr0uG2xrmIcfyr7MwPbOm23GhTkjD5dCk50AbJe5/eG9HYtb26Shr2AP58Nd4hmGYB8bIcXm+YoQtkEMqpr9b7WisMcN8cAuqq63AGQNUgcNtYM/YK40ovwGwvGEGlckyqKJdBV+oE5YqVB3TIaXyHOzVVUgN7U8gVpgO18CO6UNpKcMwzIhk5IgckgjKXAM2tTtuezXSwiORf8EIw5FGqJKqoP6FEiVQYU+JBCUr8nExvhwNu2VAoxn56VugP1YFqw0QTw6DTJWBnNflkAiDQMJokXCvXY68j2U4l62D6UIDRFNk0BTokRPb3pA0wrwjFVv2mlF11QbRxDDIX86B7nUZxHTaspV6xOk1CMs2QGPJQNqRIGj+Dyvy9VbH7Y3rn4TPdg32/l9WJKeYIYo3wGpUOe4VGpv86OlI+0IM1ccWGOLFDzR1mYcPUYQW+g8V6BjHpDIkozJ0sgZlx6wkciS9l9kbesRNWgmTXbiX/v6ZARHbL6JqWgbGLi6BfcEeNJg0zvJ5PgOzwregZtomnKvJQdgXaXhyXj4aYvNQNs+MlGwzwt6/ibJJGa7jhah6qQEZmXqYr9oRFK5G3vuFUEwRArPDsp/qxztGVF2wwu4bCElEHDSZeUgdwAgUwzDM/TKCRE4XRFJIBYVyAbhpuykcwCjBWls18tfXQLJIA01EEH0nBxwbB90lEcISU5ETPgqWkjzoM+NQ/V05zr0vJyfuutduRk5uEHLSC6G8pENapglbVFpMry1zjBTVbJUjLrMGQfE50GdLYD2UQ9cq0Sg6h4pXJBA5Whs7rB9mIH98GNQvzcKv5XT8ey22HGuENJGc+KJILIi1Qv5/mWE8WQbTDRVU4+m2qyaYzlJrExgH9QLxMCYs89DSSuXnP51/jho9yvFvr2X2JRlSCzRoWKdHjS/9/Y4GsvAgQSv1ja/IIa7sFqonVgkikrSQSdyO1+qgeTcSypfTIPmYRNVJ+r4+DJFGDQK/yICSOiENMzXIeIfElv0cSrbnIy2+AeKacmgmDlH6MAzDdGGEihw7Go/noaSSnLqvBLNmC97V6rS29SYkr1pQ/pJz9KXxvRToL9ghoh6n6UMtHEfjA9EgpR7s/nwY0uXQCk5VuNdXDCUJHO0iwU1L0XB8OlJOmmA4ZoMqsQq63TWwi6gx2J4KhXDPPODiMTVK9lIjsTrHNSJDcfrKScDkIcLVxf6FKY1EjgjiMAU0iYKtYdCQDcYPzNTjprCXidF4jHq19DiSBA3kI3yJETMysFfnQa0qc47kOKarzDALZX2aBqkJVNLtpj7LrCwhAkGCyBFJIFumcq7J6ZfIcf3bGAh1TQU2TXN9P+v61xYEzYd7nHUr+iaqhFGg6mpcbNVAVGeFtRUQSyIgT1BBKlZBuUANq10MyfhBTSKGYZheGTkip7UGGTN8kNHpoAjSpDxkzCM339p+SIrI6I4FOudqLkIYjZfOjsTdo4GzEDYZMF04hxoLfW/vOfpOR9iMdoUhgXSKGDjZiAYref1rFly0wTHakxIyCinuZlyxwEKRRLi+isNlCOtVqIggf1ENaXE+zIfKYFsWh/IjVbD7SqFSRfR2I8N0cLUaRvp0INSHPTBs1yBMEAtX+i6zYfdrw8RIyKZ4Oh6BWe0VbqIEQeRJaux3IJgjjlVDMdmIkoMrMf1QCiShkYiIVUC9QtNHvWEYhhlcRo7IcV94jFEYNT4QYfPUUC+S3h1BcTIK4v46St/eL7S32rsfpF5xjol6wKM62yaloG62XzJahD5NiNJAPVOHjJMmlF0aBVM19cBn0/PM7qftzE8eUWIZbpY41+TU/GskIjOrYa1rhEjc9cKeyyw8FHF37p5u7eFSUQ9lXdgB2VOggQoYqPOhLjXAVFmNqupzKHnbjJIPDMiprOpYd8cwDDPEjByR03XhcT+ZFTadnG0jrGer6P9hztGcxipUX6V/RcLIjdvFredQdcYG7WQx/W1BTa3g1kWQhEioNyrFdDpcfaMBd/4hAhGCGGltRM3Ji7AHSSDqT0p1Ek1SqFZEIudVM4y5QNVtESJVKjrKMAMnbG0+tB9HIv9UHlLeVaBirXRgZbb1jnM0VDgmGus4Z/vOigY6Fkh/N56pdkwxDQb2G1ZYLtkgXZYD+WrHEVSvn4XIt2tQftxKdZz3ITIM82AYQSLn3ghM3ATNO1XQncyA4mUb1GHU6/0wD2YSFdJXNkEtTFW5OW9zthpp1+QYW6tH3nlhIbDKuRCYesPal8Jg+Nca6FavxNiXI2Cv1CFnfw2CVpfj3G55jzaIxtL9sKLm4xxsGa2E4iWFoxftWH+TSSKn1EgXyaFKYOfO3COjI5CRq4FRoYc5Nw26+HIS632XWREJGrFQy28LOxDz0bBIDc2MMESOBoyXdNCuGwt1kAVGY4PjusZBMNVarEbkemExdCo2xU/HqNYGVFU2kLcJwqzQoEGIgWEYpn889CIHYhkKj5cjKH0LDEdykLafDk2JhGb7JuSslXWe6vKdhZRMGS4W5EN/vgGimSrk7dBB4VgMKUJYpgnlo1KRsbcMGckGiKinLH+jDHmZckc4Nz1ELxCWmAaNUQvDJSPydo+lHqxT5GC8AppFgTAWN0JMjYtyBL/rhxn5iBflIGdROdSHTMhZp4fSqOmzzGK0DCnrZajebkZVsQ6YJIdmngZ579fAlm6gY3mwRWuQ854W+ugUmOz2vma4+kS61ogyeypySvRIOdYIu68YklAZUj8k+2N5UQ7DMA+O4Rc5vgoY/qMNhj6vk2NPQxv2eDo3UYZNH9KnH9GJw1NhqE7tIY5AyN4gx/+G59OStVW4s9bDiSkq7KlRdbet1QpLnc2xQ0ydpOiytohhPCN98xza3vR0JhAqYwNU7of6KLNU4hHxZgW+6RKeJKEQFfRxR3FH2/Fldg4u/mdO9+A8HR+vQfkdTSc75W8a6NOTTQzDMA+G4Rc5XokFxq3U8FQboTtlhzg2Fancg2UYhmGYBwqLnKGgtQHm3fnQ3RBBuiAVee9r+ScfGIZhGOYB89MQOb1NdQ1JfDIUfncHhX1fyTAMwzDMEPHTEDkMwzAMw/zkYJHDMAzDMIxXwiKHYRiGYRivhEUOwzAMwzBeCYschmEYhmG8EhY5DMMwDMN4JSxyGIZhGIbxSljkMAzDMAzjlbDIYRiGYRjGK2GRwzAMwzCMV8Iih2EYhmEYr+S+RM7YsWPxzTffDJYtDMMwDMMwg8Z9iZybN2/iHyc9MVi2MAzDMAzDDBo8XcUwDMMwjFfCIodhGIZhGK+ERQ7DMAzDMF4JixyGYRiGYbwSFjkMwzAMw3glLHIYhmEYhvFKWOQwDMMwDOOVsMhhGIZhGMYrYZHDMAzDMIxXwiKHYRiGYRivhEUOwzAMwzBeCYschmEYhmG8kodA5DSjRPUr7JpSii+zo4fbGIYZFupKV0GTfRT1/hocOJWFqF5rbjOMSb9CVkAp/rTt4a4zdbvkiDXF4vinaxEy3MYwfdN6FNrpq4Cd16CTD7cxDPNQiJyutODCoQOwPatB1OPC16PQSKlSbfsz9An+HVed342ly3TAyn3QrwnHmOEzmGEGxnd6JMwtQPD+PyP/OfreWouyoqOAohRfZ0ZjjIdae+tLA476LoTqaf/uJweVJpQsi0Sq2R+qD6uQH+PX6eyFbTIsPDIfn/w+HbPd7by0A7HP5+JCS0/h+kOx/wp0zw+V3QzD/BR5+ERO6x9RsmUv/H7nEjkecBc4B0jg+Hm+jGEeEmy49SMQHPoUxngszM04sWczSmdGD73IqTOg9MunoFh0HeUfHcXmGGX/OhBTkmH4Qgn735xfT22RIb1+BT753VIECAceFUH886Ez2+toxcPovRnmgTMiqklLXRneytbB+OVlNNlF5MznI2nzNqx6tovDbjkK7cxVMP7QAr+EiTAuLsIft3W5pF3grPoIB7QzOgmclgsGZOXuRvnZb9H86ASEzFmItZnpkEv8XD3QaOqBZnX0QKkHves3C1D2/DH8YcOMoUwChvHMj1TmZ69COZX5lg2/wrRdGuzpNF3lHFlJNzej5dNITCvV4MDv1909V7EtEVkHKlH/oz9CntdiR34yQh8TzrWg/nA+snRlOF13HXjsCcxenIyN6WrXeU+04Oz+T1D3bDL0q77FZYUBZd8pkTSpH8/h64eAx4Pvfp0gxCESI2BSMIJ7vqu7BReofifqMWZDKfRLpwI/nEFx9lYUV/yRnlGECdPmQ5WajTUxAQOr061n8NZ/jceFVedwYGmAM/UOJOKZDZeh+vgr5M51XnY2ey6WXkrGH0rUsH+Wi6x8Sj9LPeyiAITMVWPjlnTEuDpft77SI4s6ZOXnv4Ud5NdmLkTSpiwkeRKipzfi2WXXkbQzBGeKTqCu6TqaH3sKiZm7sDFGsIfyWTULxaHboKzbjZ2nZ6DgYhHkdPyULhPbSk+gtgnwf/wpzF/2Bjb/1jV63VSJXZlbUfL517hOQtlf8gziVr2FzYlTyTe2oK50M9KLjuCMtZnKwATMeG4pNmSvRVSAM7/7KiMt5/VYl74bFZea4TcpHImp8weQmwwz9Ay/yCGnU5SyBsbgbfjkjBohIqq025Zj6arNCDm1EzHuDtdvIXSfZaHpub0IPXgam5+GQ/i0IzhATZJngYOmo1i3LBfNy/fh+IfhCGiphyl3OdYtz0UAhTn7hSWY8Ts9jKfTMfs5150XjqDM+hRUChY4zDDxGJX52lL4z0lEfeqfcSCxawMZAFXxIdTHLMDpF6pwRCtIhmbU0/9bKvQwpWThky/2QVSnR3IiNcoHFuLgb4PRcnozlm74GjGFh7A7hu75vhI7UpKg2TQBx3fO9zw603wcxYdsiNmyEAEzr0M5bTdKSmqR9KA6AN+VIXk51e+Uj7BbEDj0lMWrElE0Lgv6z40IHdOMuoMboFm9HH6HTVg1kDrt+xSi5k7Avi/+iJalCx0C4OyprxE8TYwz1PnCXCG+yzj7xbeYoYhGgDClmLIXWFOKPx4Oh9+PZ1BEtmg3/RJ/KFYigETTjjWbcXnRIfyhlPyNQ4ysgnZdAWZUZHWeynPET/a1UPoemY8Dh8wI8WvBBV0ilqRswNTTxVCM84OILvnucBnq04vxx51POKYtLxT8C1b+21PI3f9nKEL8SFjtRvLKRCSPqXKUlYrcVXjvlpbKgAmh/iRaSJhp1ryG4tmUPiCBsqkSM4pO4sDzAfD7oRbFqcuRmjsDf6AygL7KSAsJw5TNODtzFz47pESwvRYlm1ZhH4mpmAdQHBimPwy/yPGdgVUfn0OSbwDGOARNAKJeiEXIviO48B1Vlmn9C+ZWrQ6a7B04FbAWR1fO6DZF1WSiHtUYNY5qyeEIT+0bDPl6LcoOZsL4BTmd55YgcW4Bth08js3PLXTcf8FUjqbZK8h5DOoTM8wDwT5VjQ3Lw53TQTOXQB6Wi23ffEtfJqBi/ydolhdhIzVejrryeDTWaheidLUBJ7LmQ+FhsKHpiAEVvrHQxQgn/aFQRWPnTgNOvfYWooZ6TrjpBNKXZ6IpYR8Mv3XV70tlKDk7FUmfqxE6Dg6bQhLToSqNRNm/1WLVhoHUaT+EP0diJfsMalsXYvbf/ohT538JVUowig9XkkSZioAfzuDUlamIiqIGf9JS6L9YAr8x/vAT/IlfOBLlT2FH0deobyWRQ0LzVjMgGu0Pf4ex5NfWGfGndV3jdePRCYhZTh09P6c9oYlKzM7fjIpTLVAsdl5iD47Da4unOkVoayWJzHrM3XDIIXAExjydjI0JBiw8eAT1iUvQ3NwCPz9/l2/1Q/DzWThuccV33kZW+sGPDHTcPW4Gkoq/QpLjZAtMfZWRS0dhqp8K1R4SOMIFfjMovZZQeuXfczYzzGAz/CKHaD5rQNbvjuBs3XXYhQOtLWhuHdAgNk4dPIWk1CzE7clFcvoz+CR/vtO5u7hc9y1aLlUi9h93dLnXDzHfkzeiqxcmzse21DKU/7AQijFnUGa6jrlrlnQKh2EeFvyDgt3KrnMkoKVVWPn7LeqsdjSdT8TkA11uosb6uybh5i7HWy+jdH8lAhYduju6GiBfgrlbNqDY9Aai4odwLdCPX2PnSh3KocXR1I5NBC3f/DvqfjyDrNm/QFaXW/yDr9P/ZwyoTvvNicbsZgNOW4HZP1bizGOzoZL/Emfyj+PsjxrEfFGJ2qD5eG2KcLUdl42bsfMgHfve7vSkPzajZcxUpw/znY9VmUug2STDP5c+g7lzoxETE4eFz0/teQ2T7xMIcXd7Y4IR7G93TF21Z4ho0hMdtv9Qj/qmZlSkTEFQSpewJPVoavVHXOobKF+5Ab8O243wufMR9dx8xC+ORrCQhzNXYnPiKWgTnoYpNJrEWxRi5IsgnynE0HcZablej+tk86Qg93hDMHVEtCoM42T4i6NVD+1LwhB0MY7sj0aA0CMQdmLIjwwgEBIqmaXITfRHyxxgacIqaP6xFJ+sc1t0/Chd9WwW/nA4ucc1AGNi1IjzT0Tp4SbESY+i4sf52Cgf6t0qDDNE9FG7Q7Qm/CEzvF9BtXxpQMmFFlyvS8S0gx3H7cJwReknqI/XDGhtzYCoq8TlhIUIr9DhrQNxOLB8asc5YTqvptjjyJPAgOr0OGroZ2xGxdkm1N86i1uz1yJk3BMIl+Ti1NkWBHxxBqIotWOq6dah17A091skFh2C/nnnSEfTPgWeKewILiRhJ/4gX4ezn1fi9OkTKE7Nx7YZWfjkQw1CesqbRzt/bWnt/N3Pt8uQma8/VMVXkN/T/FCoBvpTS1D/ZSUqTp1ARVESduyajwJjERSPByBmiwl/WlOLUxWVOPV5GbIUW/HeGvKda5xp1FsZabngOUpB5Il6MIdhHjTDLnJaas/gDKJR8FuXwCGaar/Gd62939cVP9eT+IUmQ7frMpasWo7koGPQJzpd79QnnwAOfY0Lwi6Vu+t8mtH0vQgBj7si9ouGKn4qFh7+BGWWo2h5vsuaIIbxCp5AiESE+kuX0YTwjpGBH6lxbw1AcDcN0OyY3rr+bDo+2aXsPApi2Y2lKwUBpMHG0CEyN1SLHTvXIuCIHbEbXsOumYewZqYf/J78JUJaD6D2EqB4tuPyW983wY8acOesz0DqdDCi5k7FztPHUdH87whVPEVh+GP2TBHKTh/FmC/tiEp9xnHl12e/hn1mMpJcAkcYTa6t/Zb+3yHAWn4gATguGLPlasdnTUIuYhUGmK5osMbTNHyrMHpC/7bvGv2hHtebBf80AU7p0AUKO3icHWcuXAZi3OJtqkeLf7BjJ15LczNaHvNH8NyFSBI+KUqkP0ei77MmKJb649YtEoIBMxCTKHzoefYo8OuiMpzRZvVZRvweD8aE1kp814COkb+6r1HfArdUYJjhZdhFjt8/TkBw6wmc/aIZihgRmk7rkXX4umNOu/7/o9rS1Rn4CX2E66j/pgm3pvl7fGdIwPPboE+/jiWbEpEeYEJujD8CyMnE7VqDHdlHEZq5EMG+roWA+wOw9fdFaO/chToWKxYg2zIBiQeiefs5M/Kh3v0oqhZN9dQgNU+Af5+Dj37UoC3BhGUFyCoNx9bEqRjjWnS6rWUdPitRdx6V+f4TFH/Wgpj8FZg9qUvgk1ZAGXoAJaWVWLvF9eLB1lto+q4e9e5181ERJrQLjwE/n7MTExC/DQWn5NCsycXTh7MQNU0J1Rwdtm3JRUxRquOVEo6FtSknEFVsxua5ztgGUqdDosLhf1CPkuZfQrXN+awz5oSjaZsOFd8/g9XPOu8OFoSH6QzOfqdBcFAzLny0GSVWf/jduo4mEg746w4sifsEU7cVY/MiYYqqGXUX6tDk9wQm9TT//TcSk/t246w0GbPHkH8q1OOU/3zsdjyHB5HjSwIuYSpK9m1GUVQRVj1NouVSGbJWbsDlBBOOaJvxVlwizj5fBF3qfOrctaDp0lnU/Ug+l/Kx6eBy/HqXPzYUZUM1k/Lmx3pcsFynh6NrqUxN6KuMzJyPmMcprQrLIN+mRPCPZ1BcWI7vHmWRw4wchl3k4GktcrWXkZ7yK0zGBMyI0WDzrp24vIYEymoZ/D74f9CpgxgQjUT5BKRviESsKQsHizx5dD+ErKSKXR+PpSlJmFBaSj0/JQr225GVuxWLwlahuZV6N7MXYUPxG+g0ei1ZgsQ5uUj/6xKonh7aR2eYwWEq5AnRKMmlRuvzJSj4tOsKle74PZeFA4V+yNqViGc2XYfdz1n39uSru007XfjIgDPjluCAx2meqUhUReO9LQZUpEY77m2x6qGZo+8SYTRyvzAiqYd3W/UPf8Rk70TS4nikbg7HkZ0LkVRUipbsrUj/zT85tpD7S8KhIGGxca6blBlInQ6dj6gfd6M4YC3CXWLEb3Y4ZlgNODVHgyhXEgQvzcLG8xuQ9dxEpI+birkJ6dhaOB/bXngN6c+vIgG0CwXbbMgqovRdQ+nrSyKPwl5BgkIxroe4/Z6CSt6C9xKfdmzZ9pPEYm3RNvQ2Yx6a+hH0P8vETu3TeOt7O0QBgi3k+7RTHd59Y1EWsrI3k89bjma7sFbpGcxPLcLmGD+Mad1FPnIDdq6KRJawrugx4bUaSuzOd03p91VGKE837kpHc2YmYqVrIAom37w+GYqzG3DdsfaLu4jM8DP8IkfYdbChFH/Y0Pno7P1fQdX+5blrHX9T9VIUnobC7Vr9N9c8hOuPqGwzrmZ3HPELVSOXeiC5vZnTeh3110UIX6bm18gzw8MkDQ7Wazq+U48996ynMt5ByMpSfLnS7UDxtU51xLEbqtMx6ggspkZscd+CKHQd1aNedgUFLC3FpaWuLxvMaNjQ87XtxORfwdW+L0PIGhOurnE78Fg4Nldcw+b27+PCsWqnEat6C2QgdVoQYzV/6ewjxqlx4Bt15+v8Kd4PzN3izT+1EHf3FsVT+sb3nb5ukeMXc9dCH7/Ww7mu+efCNwAx64ro00OIgs/7uAefJ9y7oZg+PdvTVxkZ82wydJ/Sx/3gYnVPlzPMA2fYRU7QhF8Mtwl3ufrNVzi1bQP2taixJ8HZjRPsi419Hh8eMAyzdQzDDJSWH+u71WmGYX46DLvIabj+l+E2wcnpzXhWGgm7dAky96QjyrU4ccTYxzDMwKA6/etEfbc6zTDMT4dhFzkjhrlZ+LJ+IEPLDMOMaB6mOv0s2frNcBvBMN4HixyGYRiGYbwSFjkMwzAMw3glLHIYhmEYhvFKWOQwDMMwDOOVsMhhGIZhGMYrYZHDMAzDMIxXwiKHYRiGYRivhEUOwzAMwzBeCYschmEYhmG8EhY5DMMwDMN4JfclcsaOHYv/dfvWYNnCMAzDMAwzaNyXyLl58yaefvrpwbKFYRiGYRhm0ODpKoZhGIZhvBIWOQzDMAzDeCUschiGYRiG8UpY5DAMwzAM45WwyGEYhmEYxithkcMwDMMwjFfCIodhGIZhGK+ERQ7DMAzDMF4JixyGYRiGYbwSFjkMwzAMw3glLHIYhmEYhvFKWOQwDMMwDOOVjHiRY90Riel7ZaiqyUHYiLe2HRv08iBsmVaObwpkw20Mw3gnp9Lw9wUW+NSVwyewp4vsaEuXoe2CGo8YtQ/G451Mwd8XW3uxy4Y28g9t5B8eGQr/8K+z8PfDSjxyZtPghy3Q2/Mdp3PJDfA5XgafyUMTPcMMhIdGNgwJdivM7+Ujv8SEqksNsLWKIJk2C7IXtEhdq4BUNNwGMj9JhIZCrgNaXd9FYmCiBIiWw+fVNPjMFA+jcYPENRPaKoPgkxg2tPEcS0PbfoqnuqvAaUTbYinajo2Fz+GL8FkwiJU9LBU+x+zwGT94QQ6IZXp6nqChC7/r853So81XCZ85YiA2Dz4JkWh7WQcf0wMSlQzTCz+9Iig0HMJT22uQv1iOjFoJNOl5yIiWQkw9LGt1GfK3qxF5PAdmUyrCWOgww4FvBHxOGp294dabaKurAfbnoS2iBNhdAZ8kydDE214/hppD+Wg7rhpakdNag7ZMA/BqFXwmdjl3iRrmylnUIDegrZjSeYFq8OIVS+ATNXjBDZjJYUM7itLp+Wxoe4eEZLjMKXIggs/6DGCGFm2H1JS+4iE0hGH6ZmSInEYztqzLgP5YDRoQBOkCDfIKNkHWPhRKVloPpiEtW4+qq0DQTCU2FRdCM82pQKxHMuhcCcwXrLCLAiGdp0HOOzmQOxxbI/RyCXQzC6G+lI+ck2HQ/8UA6btaZFRLkFFpxqaZHUpGOjMC8nkSrFxvgYXiCpvmsm+9yz67CEHTZFBl5iFnkauhuUHnk9NQeMwCu1gKWXIGZnV5RPt5PdLS81FWbYXNl54xWoGM7TlQTGEVxfRAIFUARxkOpEZLSr1kBRAiQ9u6lcC8CpcAakTb26lo22sSijpdTw33yznwWRvhDMMxtdAAn710f4EJbY0NwGi6ZrvQ26fwW41o+0UasH0TIDRWk3LwiNADv1GNNirzbceqgNtURkPl8MnMd94j0GolASGMkpjpWvo+m3ryb+e5GjqC6mQb1ck2qpOgOgmqkz5UJx1iY2sk/p5dTWFU4e+/IDtOkggJtQMHc9C2ne65JNhIdSshFT65dN9oIUA6vz+N7iPR0kj2hFN8y/pIv0oSMlci6TpplxN2tL1P4URT+OvoOebRdVdVLmFA32XT0TalDI+8L++45Uo+/h6mg4/xInxi6Xsx2fJOGR23OW1dpKU0pY8Y3adzyD+0kX9oI/8A8g8+5B965fhK/F1BefZduTM8xzEKU2F1HbM74y9ojz+IygalE/lMR3zu01Vf0HWxdJ8xEni7DG1Wyg9MJ1sN8Il35aW7fePJvnV5lHZxaBtfjkd2e5hOu/t8euBlYTSMbDgyHX/fS89fS2VATOmWMAptH1AcCdo+MolhhpYRIHKs0KmU0I/PgaHWBCks0K1QQPmiGOc+c1WQayXQVeegsDIHEnsVchLikJYpg/JjFcRXdVj5og5IN8FaGQHR7Wrkq+RQvzodFqOKmgcRRokEkVQCa24ZrHslEPtakG+sgSjegNSZHkTGNC32HHb93UrXJihRODYDRksVIsQ21BRroCSbR1WeI4Fkg3GdGjl1apTReXmgDdVva6GuJkc0zRVGoxGaRRmwJRtRczgCgXYrjOlKaOIzEHQmDxGsc5h+Qb3kV0iQvKOmXjI1MmslaNsqR9vHJFqOUKMoiP4v8tGWIMffxRY8kkSN2M/omJ3EzUE5Hjl5Dj4iKpdvx+HvL1LdspRRg0TnfRtIJFXDZz/dM0UMR0NPdahtPDVYtSSmqMxjvxZ/V5HIqhQECUjAKNF2hOI9RnZMvIm2XLIpnsKspYbtto7Cd9bJR6hOguqkIzyqkz5UJ/EGhfFdENqukaA6rHE+2klqjJPJvg8r8MgCEg3XqOF9keJ4NYgEGjWaF0hkJJO9uWZKgzBq3EmcLaN7WyN7TK22YyTAwrTd143YSBCW3iTRpSRxRukWSmm2twY+2cKokgQ+iSQksyl8Owm79rp5iATFRHr+eXTgCImQVwVb6TniXbaSj2hLHgufkq4jQjYSpZQ25B98yD/4kH9oI//Q5u4fBsolSt9XKR1KyOZF9HA3atD2MsWfHuZMK3d8yd5Wsm8/5f/hKkf+t/0rPd+rOcCCQvrebp/SaZ+YysL6lWg7SfYl9mUIiW+jkMaRlFcX8cjr7aOLVE5jKY4PKF6btkOoMcwwMPwi53wJ9Gck0FRqEeHotUZg024DJGdGYVQrcAfOY9pcFaSOHp0M6sVS5JdchJXOh03WoIwciEgshkh4GlEEiYdZyCk4R+dJ5Lie0C5RICNBmJKCoxcqjNJIFWHoU1+cN0B/NojsS0WEYw5ajLCkDGh2R8JQUo1N027CRD2ZyOw0yCcKoQUi4vU0KKhnbXQF0XhIB6NYg6rXI5z2UM9PQdcbJKkwVJLIiR3E9GS8G7EUmEz/Cj1yKsfYSyIj2+wUOAJzUh1rMrCfGuUkVyfBl4TCag2chZ3+l0QNMZU/CA1ZPJxeIJYao5kuNXChhBph6tHXalzrLsR0Tw41oNNJUFHDSmUeJIiw3kQCQew475NJcc6wOO+nOvkI1UlQnYSrTvpQnWyjOtlGddKnm9exO3r9oE6HzwJXQzlRBp/XqeFW6ek+EhvHyoHxJEpWu6a3pijgs4LOvdpTQtlIDFD6TOs6ikMcFNaQxFFcLttXUIOcS8fSC52iZpHCOeUipI9jrY4FbdQpQoKObCdRUEy2xuqdAqfd1nUk4lYY0HaDnq/To1UBwkgHpbePyz/4kH8A+Ye2nkzvi9uU/kI+jnXl+XgSN8ZvOsfbCcr/5I7895lHomR7jXPkL9BlX26Gyz6JY0QKh0ig3E/rIBXSncrEJfpnzn2EwzD3ybCLHLv1IrkQCSST3Q5OkUE1xfmnMLiKQDrvpkZEIpFj7YDdGQIspWnI+dCMc9fuOJ/ots0xbXTHLUjRZAm6bXRotffDPiusvlJMn+J2kL5LQsi2q1bYb9yE9baY7HcL3ZfsdVsycdFC110wY9bPtnQJXQT5NRvglF4M0zdCmXWsmxlFPfiLaGu0AS+OpZ50l+umWElQwNnwUXmE+xIeYU2F2O6YumpvGH1C3C6ou+gcfZH4dG+IJQ0UL/X2b5A4cC/zo6Vu00IUNtXJNqqTcKuTDoHmEarldfRcZ+Pw9w+6nCKBJDTGjmkWibKzQJpCNvtaewjzpuM/zBzb+XArCZb3ya4Es2sajIhXwyddaNhzgEQx+RsSU7FkPzX0PguEUSQj2i7Q830Q5ljn43BKC7o8i1DhW030vF3MuEH5cLtLWnXNj4EyOwU+SSRCYiVom0kCa54MUFDazO5hixmJ3E7OT/Cfgnds7cG+0fSc97vrQkzCCg3OPGCYYWTYRc79YivVQJ5uhaakAmWLJI7OSuN7MZBs73ydyNet0pJIkZJoKaupof6e1LPE6GsB5kAWaNJ1oqg8XKxMvS/fxjC4cQ5tV+jfZKEkkRjxpQbKdJMa4z7u61pWW7ue79KojVbA57syz1MNjdRDRy8dBKqTbVQnfahO+rSvW6M6+fftPd/i4PUqPLI9wuMph9j6zy4Huz5DfxDW6Zwn2y/J8ff9bsdtNqDYAJ9EYfSL0jRRmF4jcXNbDh9hqipc7Zim64iz7w7S0BEIn3eqSJjVOKfkjhvQNi+D0tyER97wnH494jENRw2GkQwzIhh2kSOSTIe01YCL7sOaV0zIP2SH/BVFn9NJ56prYA9PhdYlcATnc67GSv/vqdcoIIFCEYmM9DzknFIgL6pLLFd0iIvVQbr3HPKohyttNeKi0LDMdp2n3uBFoWNJvTnReCsCRTZYrzrGfp3n7RdhEXqmoc6v04Vecuk51Nyme9p7jySvGq+JEDiRF+Qw/cWGtu35JEDkzrUY4yXwGW+nRttCIsetvDdaHaM1dyuPMK1VB9ciZjh77zYRfCYK24wt3aMJmU73kJC5QH+77xK6RmV8olu8l6wd00t2C9reNQHxqQDVSVCdvCtwhJGdGmH4o6c6SdeFkLEXSLTBrZG+TfG1BjoGOn0mBVGD7hqdavdal8j21p7qz1jHf7jhPpRgc06LRQtTb12mlWrz8fcXBAEkTNvR91gSNdAAJ6vRZiTbk9XO63xdtgpTYe621lmc5yaj8+jF+CDnuhfyDz5u/gFu/qE7rmdy11HCgvF2hNE8G/0bGAafpDAgidL6XRKRBSR2Xo/oZdrKA+32XbPRfWLnsdvnqFhQHDMHElAXbA0kTCnssX1fyjBDybCLHMxUQB2Rh7zsLZC9r8Uscrr6dRrk2DOgeL3v2yWTyHEcqkL1VS0kE4VFwWnQXxFDRJVMGMlHD++qkKwuRN5xGVLiI9GwLg2aBWEI8iWxUmlAfq4eF8PpfLSwKFNN9unIPh2UH2oRNpri+CAHJVfDoFWFCSoNcQvE0LyfB9OCHMjHN8BMDZGJBE17LykwXgNFLj3TeiPCtisg8W2E+W0K9/1A6GoNUIgHJykZL6Ox0dnetd5Bm7UaKM5D20E7NdA612JaGSBMEe1Oo568wbmzSVhPk6BF24tV1Kt3iQphC/p7JI5mUGMobiShpCPhIHcuovVEKAmAaIrrjQwS5xnOHVFHMvD3F03wMZ5zrOlAotS5GyuabJlC9hWkkIAQw2cZxUF1so3qZBvVSZ+JwhqWNOo4iB0Nn6NxFuqkMN3WIIgtalxFdF+SGm2Lt9C1kfS3tGMxrX0THjGR2BCmjbJJeL2nca7LuUCC5ENhJKvrPsZ2KL5QEh1fWJzpJHCNRMARSj/yMz6TxZ0vnyyIGwpzrxk+79D1o+mzaBQJN0qDa7KOnUjCKE8S2fUCpc+RCKeQE975U0ACL8HDyJeIwhHW/pB/aCP/4EP+QRCqbW7+oRshQr6VkcCi/E8MdO5+2l9Fx1zPul+Jv+eSHaX5zimq25SOtZS2ErmH9U59MDrSWQ7a7Rst7JrTkUDpZ+dLGAEULrVSOttINItd91mEdJfe++Jqhhkkhl/kUEVILSmDfV0GVs7IQUOrGNIFKSgjRyT0A3uacW9H8lI+cs5okTpjFLTjpZAty4HuQzkyYjXQhlPvq1rn+UaRFNrDNZC+m4P8kgwoc62wUdyS0EjI15fDsFrmWrTssm89XROSQfYBQaFyaD42ItXRExNDVUCi6GUSSjN0sI2WQv5qDlLnmZHT7sQCVdAfuYO09AxETlI744lQIudQDgscxjOt1SQggjrWxARKnS8DPJnRsU2b8MmkxvVnqWhbJqHeuN1xnc8yAx553W3URDSLGmlhEe2T+LuwPXsKhVOiczbIHhtaCZ2ncIUt5OFjqUGmhmsKiY/d1Ii7hJFPNjXCrSRs4ineG3RstjCt4xJfVCd9qE62UZ1sE7YkU530oTopbHNuc9RJEmQv0N/ClvEQI/CxsC07D498KEJbbhz+/irZKKIGcwEJj/ddu69mZuCRdxqpcZehbT19j1DDZz2dW1Hdo1hw7PB5T9g279phVUwiaTzFHy/2cLXUuQA5nYROJoma8SL4JCjQ9ny+U7y4d5YWFOKR3ST60oVdRXbXdnc9HsmWewiXxEiBsNWaBCH5hzZh7RL5Bx/yD209iZzJGsdi8rb1YWjLDnK8NsDnJY1zhEy4R3jZn5XSl4SmI8+FLeTRJEzfT+0hwN4IdNlHeR1C4msi5fP6TfC5RPH3a9qKnudFId1IeB2nPDmzx1Gu2o6bKY9SeWcVM+yMAJFDBMqwqaQKnl5CLllbhTtrezkmjkDqx+fQtXrvsSiwp/2L8Q48vurLNxCytYX06Yd9H3q2z3lejpzD9Ol08A7c3xAhmqlBIfVIC/uIimEQS43of/azpFAZ9nmTRMObvV1EImQeNVyJm7pPZfiSOGm40/2W8RHw2VvR89SHr7ALp5w+Hs5RnfShOtn1Xh+qk3ePBW7CIw3uNYpsTBDelpvXQ5x0/qU9eOSlPZ2O+iT0ZCARTWJhCjXA+y3wEUTfm+fwSG/p9FI5he/2fR4Jr//M82zLMjq3zNM54T7Kv/9w+07+wYf8Q+fnutPLtBIJrLUkrLr4pY5nDXSITJ/sHm53f87ZOZ1t8XRsMuXLYUXHdnlhN9lu+ida7Dn8rs/3CqXbK27fbSRcD9LzFah7MJBhHhzDLnJ8fAY0g+yV/Md//AdGjx7d94UMw/Qf3zD4CO/vWZGBtmVlvfy+1U8ZO9qSp6OtWhiJI4E50Q6U5qDtkhQ+sb2ta+wlvO10vzQDj3gcMWOYB8uwi5y2tnt+WwTDMEzvCL+ltEyGtpf18DFqRoDHG2mI4CO8RXpdasfU5LRI+Ow1wGd233d34zgJyoMS+Bzn361iRgZcDBnGm4nK6z5d8ZOCGvHcqoHtOPqpIUxNfjhIaSSsraobjIAYZnBgkcMwDMMwjFfCIodhGIZhGK+ERQ7DMAzDMF4JixyGYRiGYbwSFjkMwzAMw3glLHIYhmEYhvFKWOQwDMMwDOOVsMhhGIZhGMYrYZHDMAzDMIxXwiKHYRiGYRivhEUOwzAMwzBeyX2JnLFjx+Kbb74ZLFsYhmEYhmEGjfsSOTdv3sQ/TnpisGxhGIZhGIYZNHi6imEYhmEYr4RFDsMwDMMwXgmLHIZhGIZhvBIWOQzDMAzDeCUschiGYRiG8UpY5DAMwzAM45WwyGEYhmEYxithkcMwDMMwjFfCIodhGIZhGK+ERQ7DMAzDMF4JixyGYRiGYbwSFjkMwzAMw3gl3ilyvtyMZxMvY80XpVAFDLcxDDMEnM/FrxVnkfS5EUmThtuYnmhGiepX2DWlFF9mRw9RHE0wbViONw5+jRZ5Ef5UuBB+vV3eegKpYcthy/5/oY/v9cr+03oU2umrgJ3XoJMPTpADof53cvy6JApHK9IROpwe/fRGPLvs24fS79btkiPWFIvjn65FSJ9XN8OY9CtkBZTiT9uGqlwzg4V3ihyGeVi5tAOxz+fiQktPF/hDsf8KdA9ZIzJkfPcJiku/RdSucyhYFOBR4Nz60oCjvguhetr/gZs3JLRehmnfZYSuXIjgwQrz+xMo/nICVPEzPIvE/sQZmgxdqR3B4wbLqJGD15UhTwxFuRoBsMhhmJHElGQYvlDC/jfn11NbZEivX4FPfrcUDl3zqAjin9O/lmG0cSTxYwtsvk8gJpQEjkdv1owTezajdGa09zRQlz7Bjl1N2LicGqNB8uBNpt3Y9rkSyp5ETl9xttLHPxiznx0ce+4JwYYhadG8sAx5YgjK1UhgZDxKUyV2ZW5FiflrXMcEhMiWYnP2WkQ5vHoL6ko3I2vPEZy1NgOPPYEZz6/A5kwNQv1d5w9uRnr+JzjT5IfgmYuwKqFL+K1NOKXLxLbSE6htorr4+FOYv+wNbP5tOMY88IdlmF7w9UPA4x39qAmP0f9EYgRMCvbYu2qxGJCqLUD5+evA488gMXMnNstdV/5wBsXZW1Fc8UfU/yjChGnzoUrNxpqYnoaBnHUpq/AITlFdEwU/A8Wat7A5Yaqz4RPqKYVXUkH1tIXCC4lGfGoWNj7fHh+d37AZeysuo8V/KuYuX4enusZwwYCs3N0oP/stmh+luj5nIdZmpkMu6WHqqKUepvzN2GGsRN0PdogCnkKMUHe10Qj4fCOeTTpAz0Z2/2Yi3pMX4Y+dpquaULIsEunmZrR8GolppRocOOGaXmj+I4pWbcZ75sto9nsCUUvfwu4N0S5/0IL6w/nI0pXhdN11h8+ZvTgZG9PVCH2sl7xzi9eUGo91F+ZjT2kWosb1El5LGTRzNwCZVdAnduTLrcOr8MyGFuSeLobCfWTk9Gb8etlu1P0IaKYeRVR2FXKF4+TJ649Q3uUbcKaeyk3oQqzZtQ2qEGdqtNSV4a1sHYxfXkaTXYTg0PlI2rwNq571d0zVLMo/g+a//RFPSQ1Ye8iENdN6j/NAiA7PJtZjVf4EGDM/gT3JhOPP7u00XdVyXo/0dMrrS83wk0RjRfpCXE9bg+tZ/y/0i/0cfrli+xpklVaivnUCwhevw6pgSg/jbBz91Dn11nt5ofxVzUJx6DYo63Zj5+kZKLhYBDn68PdCvLmueKm9mfGbZCT1ODLqoQz9ft3dcxXbEpF1gML50R8hz2uxIz/ZVUbuoQz1Ul8vbJNhoWl+5ynJ1jN4KyYeFfJjOL5hRh9p1UzP8SsUS4uwurUMxacvo/57GwLmumw+7yGPl3rHcPEIEDn1KF6VhJKfvwHd70sxFZdR/NpyrEwZg88+1kD82QYs3fQ1YgqPQS847+8r8dbKJKg3iFFZpMSYS7uxbsMR+KcfwtcrqRdiPYos7Wu43hp+N4YL7/wLVv7bU8jd/2coqNLf+mo3klcmInkMZWSid2Qk8xOk9d9RUvotNu8yIzegGaeyE6HZVICYmJ2I8hPqVSKKxmVB/7kRoWOaScBsgGb1cvgdNmHVtO7BtXy+2VHX5IWHsHvuBFyv2AzNa+TEH6eG9NlvUUT1bq//OuhPmzCbwrvw0WvQrFqOUYfNWBPaDFPmKuz4Zgn0p44hhuw5q9sA7dkWYIorgqajWLcsF83L9+H4h+EIEARM7nKsW56LgM+yMLubzmnBWWpEkk0zkHvgK6im+Tvr7vIkaP3MOLjyLXxpmoBY+XEoP6Vn6raYIgCq4kOoj1mA0y9U4Yg22LEmp5TOnN1vQHj2Pvxxlz/qjeRjNmzE7t+cxsaZFCs16ks3CD6H0iHG6XN2pCRR2k7A8Z3z++gY0XPTM71xNhq6g4LA6Su8hVDJM6E5dAT1iRqXkG3GiSMn4PebIsR1nfqZm4Xj+fX4Zbo/9LU7ESOIm9/R8e+p4TqbjtzD6Qi2/xE7yL9lb4/Gwg/IR7bWoihlDYzB2/DJGTVCRCQCti3HUhJ5IacojDUm7Pn+V1j6fTq+3q/u/nwe4sRXgF/r1yR4Ndj66VeY8XPqcZ51zzpqgFM249TMXThyUIngZnrmtNdQ/lcgyteZ0U0frYF2XzOWk1/e+DT56Y82YG3+15Rt0c5RuT7Lix9EFNR3h8tQn16MP+58AmPovgsFvft7R7wHWrCazq95VoSmilxo0y5TvLEe8tNDGaL8qRcesUIPU0oWPvliH0R1eiQn5pLgWYiDvw2+hzLUR33974sQ8rtPcPQCiZyZrlv+dBSm756CUjGjX3VLRGlTV7oXlwuLcSST8qupDNrfCGKPbF7pIY+9hOF/lAtlKDkfDNVhDWY/LhwIx5ptRZh0XgRRK1X20k/Q/NwubCSB46gaj0dj46r5KH2NMvwHJcIrjqN23CIcWD7DWXAkC/GayoCSdFf4rZUoKanH3A2HHAVeYMzTpKgTDFh40N2xMMzDhggxK9MRIxH+9keMYj4mHKxFHfVeo36kenV2KpI+p57jOOf5kMR0qEojUfZvtSRyZnQJqwUVQl2T7cTG550jN2MWZ2E3TuD6z+1UTz+hejoBiYeTMdsVXui/rKMGYAHKjGewJqQZFRXNCN+gRczjwt0BmK1Nhrz0OEyuGJpMe1E+Ro2jWnLCgufxDYZ8vRZlBzNh/IIc8XNdTfojSg9+i/CUUofAERDq7qrFeiw9fBT1K5Pvue4GCKMGc513hygWYvbmo6izkiCbCVTsp3SQF2FjTIfPWatdiNLVBpzImg9FjzMW1DDtWQXN4WBsPvgWYlwj0X2Gp1qC4IQyHKrTUDrS+R9OoPyUP+L2RPe+iLoT4UhKVyLEMUoQDeVvpqLI+O+obwX1/Gdg1cfnkOQbgDGO8wGIeiEWIfuO4MJ3QIwHwdsnjzotC08Q/LYHK89TA1w/Fao9Lpseo2desxCHPtffTasTn1YCzxdh7bPOBA1dmo0k01Gk/9V5RX/Liz04Dq8tnuoapenL3y/BKSFeWZFjFMuRGjHpSJprwJm6gSWBfaoaG5aHO6eRZy6BPCwX2775lr5MGHgZutRHfd2ghDI0HyWmMyTEnR34s/9GdWBmMuKpzDTt62fdmqlE8nOuyAPmY64U2FYn2Oy9reCwi5yW+n9HHZ7AJPcdIpJoKATHTT2Q7+qFQji1k/L1Cw5GAPXI6r+nrKmnDAruPIcYIHkCE3y/dX75oR71TeSAU6YgKKVL5JJ6NJET8Kb5R+YnhO8TCHb3TdSz9YMdLVSmW76hevXjGWTN/gWyutzmH3yd/t9V5HxLjbwdAc894dawkpBZrEQo/dVymOqR71RMlbjHPxWTnqQ+KFXSlr/aHEP2wZPcRka72HeZnGnLpUrE/uOOLnH7Ieb7Zkd8nfjrZdQ3ixA8pbMDDqb6DcGe1nt3zcHBT3R8eVTkGBGwt5KYw3VHOjSdT8TkA13NDMd3Td3NbKf+8GtYSo1Q1K6voLjrz77tO7yn1VCG6KlBqsWa9Blo+vQTnA5Q4pNnB7D7KyAYwW6X+4lEwN/omVzfm88akPW7Izhbd915rLUFza332bD5TqB09Gxjy/V6XPft7Nf9Qp9CaPvlrfUO/x0Q6l7eAvDUP1O+mJ3f+i4vTkSTnsDdUteXv7e74o1xj9cPIU9SWgxQ5PgHBXfEC+eoUkursGOgH3nepQz1p77KFz+Dt/Ydxdn14ZiNSpR/1oyolEWOOnCqn2nlT+XEvS3tsNl7eUiad3vvp1u7f+90h68/9TivID9mkM1imJHMYwuhqynuZeTBE33Uta4MZLHno+Ryn83CHw7f+wiMg78NIM57JERrwh8yw/u+8C4tqD1rhzJmAsp2bkWi7C1EuaV77+FNRWLiM9hRZMCp1HWoP3IGIYqswdsObtVD+5IOSCnGkf3RCBBad2EXn/zIfQYs6mGxN5x51A+6SyS3I32WF2fj7efbJZTe/D11nE94ONzyn/2zt3M8vZ8ecBnqo74Gy5WI2r4b5X/Kwgx7OUzN0dggd8msfqbVw9LiDybD/sh+wb9ESOsnuHyFvjztOmg9gSKTHTEro6mnKEJTXT1uoWOR8C1rHZqolzCVegkTHp8AVLh6da6naaq7TL0UV8EfRz2ccXacuXAZiJl6N96WJup9+pOqHaRXZTDMSMLvSaFeHUDtJUDhtuPl1vdN8Hvc01brJxAiEaG+U11rxtmDBtQ+vgRJ1NMNaS3HZSscUzoOWi/jcj3VO6pXfj//FgGiZtQ7uqkux9tCvdNvqJfomg6Z+iT10g99jQs/0j13F182o+l7EQI8TXkETEXIz+2ovUKRxLS77hbUU68Xk+YP0QisKx0uXUYTwjt66j82kY8JQHCPgtEPcZn7kP+br/GLxfFI3RSFI4UL6f7+hRewWI2Ybbk4ZAxGfc1TUGyb2lNEA6al9gzOIBoFv3UJHKKp9mt817VzOIj4BUzAhNavKW/pS/taqUtfo67FNYboS+d/DnzXcJ1ytH1HVxO+Fvy0iwGXF4E+/f0EBFOT0VT/rVu8zdT+1A/i0w+8DPWrvj4eC/mzm1H0aSWifjwOe0wW5rvWbN1TWv1EGHaRg9A4KGfr8F7+DkTlrcBTuIySzDXY2bIOcq0/5v/LQmyjXshbn4Vjs7CL4/sT1OM5Dv/F+zCfCsuYmPkIyTegaJ8aTy2n6nPJgG0HyQn6uvZ1+EZDlTAVJfuocEQVYdXT/rh1qQxZKzfgcoIJR9YMnjNhmBHDNCVUc3TYtiUXMUWpiHocqP8sF5qUE4gqNmPz3K6Ozw9RCQsx4aUCZB2agc2yCbj++Va8seE4wos1VE+XUD3dS/VUj4WFGoQ+1owLBwpw6LunkCQsfPQLRozMH+v261ARk46YcddxqnA3KsjptvfqA+RqxO1agx3ZRxGaKUwxC7tgVkG7PwBbf18EeVfn7/sMFELdLc6FUbbLscai6cvd2HWY2q/MJf0bDaJe/iiR0KhRg9M8Af597o7yQ0ziEkxYRulQGo6tiVMx5odaFKcuxzbySZ+VqHuOVxhR8AvHxl3p+Cp+A9YdeAoHlgb3L7xxzgXI2uwCYE4WdL294NGP4vmxHnXWZsrXvofp/P6RGvbWEzj7RTMUMdRpPK1H1uHr1PiSKP3/BBFK4fkKifQtLjc3Y4bI3xFFb3H22WzOnI+onx9ASdFRyHMpr/9aibcKT6Bj4iQAMTFPIWunHsXnw7FqprAoNhelFrLj564rBlpeBPrh76NkzwDb96Loy2fovB/Vi60oPQugpz0oXctQn0l+D2WoX/U1AAsV0dhWuANFlJDzt8Xe7fjfU1p1M7tLHvdrJ+HIZ/hFDqZiVVExWjK3IvW/5uN6qz9CYlZiT75rQXDMNhygHk7WlgX45xSqkI8FY/aiXTiwwbVCPTQVO3Kb8MbOeDyVDUyYvQRrtGp8/dpZx9oE5yUfQf+zTOzUPo23vhe2oU7F3IQi6LQscBhvJRhJRaVoyd6K9N/8k2NLqr8kHIptxdjYTeA4GSPUtS3C6xioLq1xbSHfUorNzwnXu+ophaeZsxXXSbg4trh+sM+1U8sfiuxduJy6Geue06P5samORdGroiqxs33EIECJgv12ZOVuxaKwVWimuh48exE2FL/RgxP2w+z1+6B/dDPeSvwV0m8JIwRPYf6Gfdjc712RUyFPiEZJ7nL8+vMlKDAt7PMOv+eycKDQD1m7EvHMpuuwU+9/RoyGfFIvAsedacnIzzyDRZtXYdfMQ1jTr/CoYXxhCfw/+gSzExb22N46rpyzBCrpKrz1m0iUr/kIOlEf9jytRa72MtJTfoXJcMa9eddOXF6TiPTVMvh9QI3o4qUIP5yPJXPKkbTnNDWqvcd5pOsi8a48Nh+bd6YiOXMDfi19zVFWVm1KRtTpDXcvCV6+E7mXX8OuF36Ft4Rt/Alv4DXVZWg+dV0w4PLipC9/L8RbUP8aspbPwo6/UXo8n4zXVj6FM8Y7zjajW6vYpQx92nXVTHcGXob6V1/HyJSIykyC8TENDka51eN7TKtONnfN4zVd1+09nIwAkQPHlsE1RfTxeNIPIQlUYBJ6Klh+CF26E0fo445qsdsXX+o1rCuiz6BYyzAPjJj8K7jq6cTMdPzhmz6OjaMe8k4jVvU7NqpriW/hIH08ItTTwp7qKRy7NTbup0+ng9eQ5B5DqBq51JPN7a9JvsGI2VBMnx7OT1uL49+s7TWIkJWl+HJlx3d57bUuccxHfqdjlA6Lyecs7rsxc96/ELrLncMMTizGnxLdbOhHeLe+r4d90iIkxvTRKo2bj9xPr7iloQlXf9v5kuDfuh8LQNSGUvyhSxrO3v8VVHe/rcXB2l7SsVucM7qXv7lv4Uu3Y2PmJkNfsbZj3U6TARWtEzqma/ymQpV7CKr8jsb6bOZmYXXs3XW5vZcXEtbF16Doergvfy/sPMo20sf9oAZXtT1cj+5lCN3i7WrLAMuQQH/qqz+Vtdq/QOfh1MDTqsuxbnnsHQy7yAma8IthjT/llVexKePNYbWBYZifMK0taLpwAG9sqcSM18yI8oYlFK21eOs3C3BIKowOqhHiWw/TLj1OBcTiwEznJbcOJeGZDdexvHgf1s4NQMv53dh5pBnhwoseh9V4xpsYdpHTcP0vw20CwzDMMNGEkhdnIf3sE4haXoSCpV7yvhLfGVi7axtuZe/GkrDX0EyyRZg+yd2ThSjXWo8x8dugs27AW2siUdRghyhoKuYuozRY7iVpwIwIhl3kMAzD/HQJgKrkmtu0kffgmD75uLepSWFaqZiXETBDCoschmEYhmG8EhY5DMMwDMN4JSxyGIZhGIbxSljkMAzDMAzjlbDIYRiGYRjGK2GRwzAMwzCMV8Iih2EYhmEYr4RFDsMwDMMwXgmLHIZhGIZhvBIWOQzDMAzDeCX3JXLGjh2L/3X71mDZwjAMwzAMM2jcl8i5efMmnn766cGyhWEYhmEYZtDg6SqGYRiGYbwSFjkMwzAMw3glLHIYhmEYhvFKWOQwDMMwDOOVsMhhGIZhGMYrYZHDMAzDMIxXwiKHYRiGYRivhEUOwzAMwzBeCYschmEYhmG8EhY5DMMwDMN4JSxyGIZhGIbxSljkMAzDMAzjlXiHyDmVhicXWLCprhyawOE2hmEGH0uxGsr1RljFWpRb8iDrtebaUKIIQmpgORp2yx6UiSMH9gcPGTbo5UHYMq0c3xT8BMsrM6SMfJHTaoHxPQvCXlFA0q8bGqF7XoKMyWW4+b684/ANM9IWKWEMykF5iRZS0RDZyzD3y1UdYqQ5kBxuwJ5Y+t5aA0OBEUgk0bJdBrGHWms7pUeZrxKaOeKhta2xGrrteTAcq4LlaiPsokBIwmRQJKUhbVkYxK3VSJNGIv9Kz0FI1lZRYyZx1NOU4/bOJ0ViSEIpvFdzkLNMCkc1tRuh/IUa2N2AsmXiIXw4hmG8jZEvci4YkJPbiJzVJHI8WdvajzBI4GQ4BE4eCRwNCxzmIeMmbLdJHITNgthj2bXB9E4a9OGyoRU5V/RQxqbAPF6BtEwDdGFBENmsqDLpkZ8cCVNtOcwkwjJONkDbesdxi/3QSsxKFyHvTCHko4UjozBKLAyvNDrOixMNOEf3jHJFcee2FTUlOdC+LEODyAJDwhA+D8MwXs/IEDmNZmxZlwH9sRo0IAjSBRrkFWyCzJKG6YvzYSEHrxxbBlmBBeXSPDy5wIrU94NgWGeAPbkK5+b1ErbNKXBKJpHA+bCLwLlBvdL1GdBRr9R6W4SgUDk0mfnYtCAQNZmzEHlQBnNtHiLaU4l61FvCI2FYVIWL2WFDmCAM4+K2EWqJGsYbdirrQRibq0VZp+mqRugXS5FyzAb7kekYu1dLYiPj7jlTZhzSPjBT+RZDuoiE0PupCHOIDTusB3OQtr0E5ksNwGgJIhNSqUOhcZ3vCsWzPg2m0VqUn6T4714jhXSOHHHSFGiOWWC1yxA2MRBi11nbeLHDy4ydLIHEU7ijxZBMdJ9TCoQkW4+GLyRIO2SGPUGB++6TkA9Ii1XCNEMP814FAlsbYX47FRl7TaghrSWeOAtxL+cgb20ExDdKoJRqge0WlCV12GU7qIYk2Q6dpQyq8e1H7TC9LIHarkPDhy47L2zBrHBK//SLOPem1HnVkZWQvHwHujoDFORDdJSOuiPkc24AoimRUK7LQ+FLYc77233hcfKF5PfEjvOFyEuSekgH56i1LrQQqbdLoKtuQAOVE8mCTdC948xHy9ZZmHVSCf0c8oPvWiE3foPCeX3kfasVxvQU5JRWwULhiQKldD4DhbnOjqbtCx3S0nUoO2OlFBBBEq6ENjcPWpfAtp/X0/l8lFVbYfMlfx6tQMb2HCimuJ6AOp1bktNQSOXFLpZClpyBWfebxwzTAyNA5FihU1ElHJ8DQ62JXKYFuhUKKF8U49xneTj3vhVjXx2LsoY9kAvWfkGOgRyF/lgkdFTJwgQnetZzyHZybjk9CRxHvHLkj89DWW0FwsQ2WPZroVSRs6qsQuqLaoTt0MFwMgcRsa4bz5fBcCUMGhULHOYBMVoBQ0M5UkLiYM1sQHmSuMsFgdAYScSERcL84kVUvS5M6tqodFP5P1YI4/p8mOvKILqkg3pBBgkeBSrWSmA/mYa45HOQf1iBhgV0zzWqKy8qoXw1COf2ytE1Ftwoh/G4nToaaW4Cx82KxEKUJw7eY4uEut5q7/O6PrHXIP8FEomSPFS8TwKHDtVslUP58SwSGg1QTRNRo50PdYIcajF1opIU0MSnQllaBmuS1jVFboPpoAmiRSRSxrsHLkLkvEggswo1rQpHZ6ix0gzbNPIP1WaSIFJnfORP7NEZlG52mF9VIq1SBkNlORSTyQsdSkEc+ZqcsIvImU2iKV2NPFsa5VkV+SQSI0cyoFyhgS6CfNK0bqnkSCdrsR4Wo4l8pZgMMGJltBqa7bNwjjpiIhH5LosBZbPp+a2RCKK86yvv7ftJsB4UQ3eS0oeEie1SCdLiNY5pyLJlVuQkpeFighkWUwQ9nyAY1VC/lINZNdQhvGGEZlEGbMlG1Bym83ZBMCkpTTMQdIbOi2wwrqPnrVOTWK+CPNCG6re1UFdTXnd7Poa5f4Zf5Jwvgf6MBJpKLSImCgcisGm3AZIzozDK01SUr1NwRC4Tru+lj+eYotIj//wsFBZ7mKK6QPFWS6Gtpd6Lw3FRTzcpB5q902H4uAap2eQo5uUgY78JebHOXlqN0YiGCKqQXBmZhwC7VIOc1RGOhhaz1VCEZyCjTpA/QTB9YMDNeANyqJFzVI2JMmS8Tp0NlR6mAjlU4i6BXbXC2iqBfMYQr+Rtpc5GaQbyT4oh3yu7v1GcVitKViiR55sBM3VyHNPdrWbo91ohyzY7BI6AeE4qcpbpEbnfKWzkK9SQxBpQckmLTUJdv2FC2cmxJIy62yOeJ0fkDT3MV8hzTbPBfPIiwlZkANurUHVbC8VoC8yVDYhcISMPI4Is9xys2SIEuuYdJfEqyAINqBGGlGaToLDZSZiIIXYISREki6ij95c+njNcjbR5YuffgYJIk8BwzARLpmt06LYUyvVySByX2GHsI+8jbDdh9w2CaLQrfaapsMeicqXpObIRGPUPYtfUaSBkb5JYetN5uvGQDkaxhsQ2lTshvUdLoMhOg0GSSsKORE50FUzHbIikY3KH/w5ExOtpUOw1wTjwHGaYPhl2kWO3XoSF+kuSyW4Hp8ioB+E67+km30BIJL27P9sRchyv5yBnLAmVxAzMOp6DCLFbvHUU7+1qpEl8kNblXrGkgf4fBmWSHBkvG2C8oSCnXw3DoQbIqKfFGzaYhwHxRIlbWRVhFFUZu2N0xApLnR2NZ+Mw6oMuN4kiYBWWy4g9hWjv3xq4AWArVmJUqdsBwb7xEVDkGqFLvI+a1toA03olTEckyKt122hwg8Raow2mF8fC58Uu90yxopGeTzJHQx0ZHQwf1mBTbhgayZeYA1UwR3vwOYEyyELTYK6mRJt8EeYz00nIyGE/lE9/AwopiZ1LUsjmOZ/Ffs2Mwsw8GM9YcVPICl87bHRrpCNdxVBk5qAsIQXTJ+UjkgSULJYEZ4LM81SfC/EUaSefFDgpCLhmheDFHCNRgVJI797fd96rlpHPPKaGOkSYaooj22VQJiqcnUpfOVK3q6F8dRaC9kY6zskXKKBcJHUUmYsWK+wXzJj1sy1dA4f8ms2Z/rfF5O/dLPYl/9+/XSUMM2CGXeTcG6Ocw9m9IE7Uo5ycjcgmxc3YOCheDIL54y67qoSpgO/Kuvda28NYoIFSHAf9wUYoZpTBdFuOnPgeLmaYkUYfdUT6ehUubo/oX1jCmhrfBtTUWIGoHlqk1r7j7Io4vhBVua4RktYa5CeoYY7NgU5YHzOwoLrYUoOqRg0U08qQn14CZYmqQwj4iqEx3cSeBT3dLIVmRSRyCvQwZ2bAerAKUlUewjw+m4QaehJSJ8/BJggacQS0lFaYI4LmZA1sNjPOTYlD3mSnTTmJapRI8lB2RuscQW41O6YiLa7QRDOFNVdqWCvNMJ00wVSgRA75Mf1JA1QTB5IAbo7Og929570Mmz5rgJbEium4GeZjGZBl50FrNCMvVgzpsj24GL8J1cI5slH3MomisDyYD2sdcYmi8nCxMtXzbthrA3kGhrl/hl3kiCTTIW014OIl+jLHdfCKCfmH7JD3e9u4p4Bd1VwsQ95BPazzSLAkBzkXHgqnQ4R49Th3gXouUR232a41QjQx0HmvSAZNohSRBw0w1BphX7THtUOEYR5mJJCGiGC9cBGNiOho/G83wtoa6JrW6ML4OKgXpEH9zhaYEqkejO98uvGgGrJ0IKe667qVPhAHQTqlvZaTWHgvFZELViIt+hz23E+Hgupuxod7oL0dhpjoVGjei0D5aopnPIm18XZUnSdZsUB693J7oxV2seTu7rXABA3kJHBKSiWwnpkF9W5pDxEBYc/LMOolM8pOVsEekQOp4FWjI2HbQSLBVo2x81Kcx65VofqKGLLtLoEjcLUGlsaOsOw2G+zCYux5CmiFz3oVUmZQR+tII1SrPY9s2a5YKB9ld/PRKkxJTpYhqAdR1mfe222wtYohDpVBJXzWpkH2ggTaYjNyYhXADZsjHSPiNY7PphczMGueHsZLWmhCKI1Lz6FG2A1411fa0HhNhEBhJGh8EAJFNlivCg/tit1+0TG6hNAek5hh7plhFzmYqYA6Ig952Vsge1+LWdSn0a/TIMeeAcXrdF5YOHfbCssVG2QTxfc2Rz9ZBUPpRcgWUM9uIgmd7AiIQlXQROch440MyEupp0K9JMcivxdNkBnPIW+eM6YwxwLkHKTVBkFz5D7XCDDMUODrnIpqtFJjZwuCWNzXDSLIk9QIWrwFqcWR0CVJIb5RQz1yJTLsm3DOpPHQuQiEarsO5bHUWYi+idR0LZTCFnKqm1WHddjybhUk6eZu4megiKIyoF9rRuSr1ICGlUEzueOc7UYDNY433a4WtqOL765v6fqMjtHeaVoYCswIe1WNLRFmbJpJHZdlUuh3pyF/ngGpc8SwXShBWoIWF1+sQtUbLjEz3rkAWb0+hwRLHgyTPUTRzmwZZLfToCtpQFj6LKePCI+AtEaHvAZAVuDaqCAIrNE2XKyshi2WfBB15nIoze5QW2//rsGxhigjQo6qRdSpypTTtXY0XqiG5XYQJJPFPcdfY0DOQTnyEijXLumgO9QAabICwpNYPaRL73mvhCVZCk1jCgzvp5JfFMF+7RzOWe0IipVAdGkLIiMMmL67jOITpqhssNRY0CCiZ6PnCCTRo8gl/73eiLDtwm4s18Lk9wOhqyUBTJ3OuAViaN7Pg2lBDpWXBpi358NEomiwp0IZRmD4RQ5VxdSSMtjXZWDljBw0UA9CuiAFZe+7djYIOwVC1cgIl6Is3YSq2HuLRTQnB8b3rYh8kUTVJOp1vSSFtsQE+/oMpISPdWwhF7Zrqqny5sxzc5pTKP5ouuYv9O+cnsNnmOFDCsWLMujTlZAeV0N/Jq/PO0Sxwo5DEdJy4yB5tQF2URDCFmip3nkSOC6EzkK1BPrcPPqokX+FeuOjAyENj4Om5BxSF0kGoRMgIqGgQ8ZJGdJe1iHSpIVrIzbM66bjyXWdrw58pQIN7/T+ltzAZXroT86CMikDEZV5kGWaUPYzYbGxBBnXnFukZctIWLzuPlpDYoA6OGOLDYhYpux9HZ4oErKIBuiPzCJfIXYeG0/HpqQg7YqChIsrVURybHpHg5Xr5Qh6VwRJWBxSCwzQHVNCnitH5CgjzKV5SFufhshJStjsgHhyJOIyDchb0HPKBiVoEFa5ErNePQerfSzCEgphWNvzyFNfeS/ZbkTaOsEv5sBqo+vHSxEZX0j+l8TaaEEg3kRaAd27gu4lgR00U46UknzX1noVpcMdpKVn0DOoHSNCkgglcg7lkMARzouhKtDj4stp0MzQwUbhyV/NQeo8M3JY5DBDwAgQOXAs3ttUUoVNns6Nl6PwzE0U3j0Qhov/0eWaqDx8c/dYILSf3YHWUzQJBnyT4B52BFL3ViC1N9taqffYIELkyxr07DYYZhCZrEXFHbcS7CtDofVOr7dIXynHN6+4HTDegarTFdS4dDomgjSBGruEvgVRJ6jOaArK6NO/y8XLynBnmaczPddTiMKwqfJmhz/wVaDsP9r6b2Mnf+CwAvK936AjBQMhf9NAn96DsX1nxZ3JSmgWiPuIkNL245td0ps6b9V3uvkWCQmQioTCzgdnklB7o/1LBAo/06DLFb0jklB+VEDzTvdTwtul76ztdkPveS/4xQ978ot0byLdm9hzuRHNJPtNvTxDoBw5h+nT6WAPZYFh7pNhFzk+Pj7DbYJH2traYL9thTlTC51dg7Jlzr6cYO+0adNgsVj6CIFhmIeSVjsaz+uhTTdjVvo5yHiOmmEeWoZd5AhiYkRyMg3T5TrcCVUj72DO3RegjVh7GYYZBIQ3SEuQUi2BbLUB+pd4bzPDPMwMu8gZsczLwzd3BjiUzzDMQ04gNKY70Ay3Gf1C/BDZyjDDA4schmEYhmG8EhY5DMMwDMN4JSxyGIZhGIbxSljkMAzDMAzjlbDIYRiGYRjGK2GRwzAMwzCMV8Iih2EYhmEYr4RFDsMwDMMwXgmLHIZhGIZhvBIWOQzDMAzDeCUschiGYRiG8UruS+SMHTsW33zzzWDZwjAMwzAMM2jcl8i5efMm/nHSE4NlC8MwDMMwzKDB01UMwzAMw3glLHIYhmEYhvFKWOQwDMMwDOOVsMhhGIZhGMYrYZHDMAzDMIxXwiKHYRiGYRivhEUOwzAMwzBeCYschmEYhmG8EhY5DMMwDMN4JSxyGIZhGIbxSljkMAzDMAzjlbDIYRiGYRjGKxl+kdN6FNqpq4DCa9DJh9uYYeb0Rjy77Fus+aIUqoDhNoYZSdSVroIm+yjq/TU4cCoLUb3W3GYYk36FrIBS/Glb9IMycUTScn43NKsKcKopGGtNZqyZ1vv19b+T49clUThakY7Q4feOD4gmFL8wC0XTSvFl9k+7vDhgP+xVDH819o3Ga6WHgJD+33LrQhl2Fxpg+vJr1DfZgXETMGP2QiSmrIPqaf+hs3WoCU2GrtSO4HHDbQgzrHynR8LcAgTv/zPyn6PvrbUoKzoKKErxdWY0xniotbe+NOCo78LhK/+tl2HadxmhKxciuJ+3PAibz+zX4dQ4LY5+moxQT9Hcg90PI72ndQDisg9hht/UB27XiOSn5Ie/P4HiLydAFT8DfsNtyxAx/CIH/gh5NrzfVzd9thFLVh0AnkvGqp1ZCH/cDy3f16LioA7Z8UfxVdEx5MsfUvntH4zZzw63EczIw4ZbPwLBoU9hjEdP1IwTezajdGb08ImcS59gx64mbFxOYqFfXuVB2NxC6dYM0ZMzSOD04MIHbPfDSN9pHTAtHA+p1xx8RpofbsWQtdRNpt3Y9rkSShY5Q0iX6apbX+mRtWUvys9/CztECJ65EEmbspAkVM4fT2Bb+gG0LC7CkZ0LOyplyFSEPjcfTz/+Gkrr/h236MwYdIR1gsJq9hXE1BKs3pQOxTTKztYTSJ2xBsjchjGU0afqvsV3eArLt23DQmsBsj4+g/rvbBjzXDp256sRQrfUFcgQe2oRCmL+HaXGWtQ32eAnXYKN27IglzhN6TVO9PF87sOk45z2+WXvwoTPduPo5W/R9IMIM5Lewu510Y7nww+V2LVhM/ZWXEbLuKmIWZWFuV8mYts4nqbwGn6k+jF7Fcp/aEHLhl9h2i4N9nSarmpCybJIpJub0fJpJKaVanDg9+vunqvYloisA5Wo/5HK4vNa7MhPRuhjwrkW1B/OR5auDKfrrgOPPYHZi5OxMV3tOt+VFtSVbkZ60RGcsTbT9RMw47ml2JC9FlF1m/HrZbtRR0JMM/UoorKrcGBpAOo/y0VWPoVvqYddFICQuWps3JKOmMc92ZyF2WTvKV0mtpWeQG0TtTWPP4X5y97A5t+GO8u7B3qub9dRrJIh63NKNyzH5IqnsPagCWtC3W4+3d3uXOE4pW39kc1kuwFn6oEJoQuxZtc2qEJczcAPZ1CcvRXFFX+kdBVhwrT5UKVmY01MTzKhl7RuKYNm7gYg+yvoEzoEyK2DSXgmE8j9ohiKx3pPl3pynL+uWEj316N4P9nUcB0tQbEum5s9p3Unz99luqqJ/ErmVpR8/jWuU9r4S55B3Kq3sDlxqueGsLUepu2bseNgJer+SulFPm3VZpdP6zWPhNAE+36F4pBdSPrxE5R+cRl15OfmpuzE5tBT2JZ/BLXWenqeJdjwu7egmNQ/P+x4Bsqjkgp6hhbKo5BoxKdmYePzwZ1s6tMPB7jskxZhdWsZik9fRv33NgTMdatLrVTPtq9BVinVs9YJCF+8DquCKV+Ns3H00x6mPXu1j+qHahaKQ7dBWbcbO0/PQMHFIsi7hNN7vndubzylfd0uORbln0Hz3/6Ip6QGrD1k6nM692Fk+EWOO61nsGPNZlxedAh/KBV6FkLlXgXtugLMqMjCjNNHUd40FatXLfTQ6/BHVHoxotq/fm9A8tKtaF5ejOOl0QgQKmJmIpKXtyCg4i1ECWXAl3o4B7+Gbo8Jm8c1w5QSCU1KPOpW7cMB0074URhL/+tm7Px0CXSL6YZHRcD5PSh97iMcqCDlS2GWvLQAyanB+INRg+A+4+z9+WZ3fSSyz7jnBAr2GHGcKvctqnwLEzdit+w0Ns4kezNXYcc3i6A/dQwx/tdhyn4NWadaIFIMbTYxD5DHFkJXWwr/OYmoT/0zDiR27YkHQFV8CPUxC3D6hSoc0QpOshnUNqOlQk9lOguffLEPojo9khNJdBxYiIO/DUYLNfBLN3yNmMJD2B1D93xfiR0pSdBsmoDjO+d3FxV0/7pNlZhRdBIHng+A3w+1KE5djtTcGfjDziwcz6/HL9P9oa/diRjBq3ynR2rKXmBNKf54OBx+P55B0apEaDf9En8oVnqwGbhQ8C9Y+W9PIXf/n6EgJ33rq91IXkn1ZwyJpkQPAqKP+pZU8mdMWPVPWCfah0v0TN2Y293u+t8J4VJjdjYduYfTEWz/I3aQDdnbo7HwAyWlCzUo9BxF47Kg/9yI0DHNqDu4AZrVy+F32IRVHhqJvtJaGeOHdaYTuJWgdKV7E44eroRfzE7E+fcjXYT0vqBH8XP7sNv0FsZQOhS/KLtrs6e07pkWVOSuwnu3tFRuTAj1b3GIVc2a11A8m57Pw7KCC/nLkfzpUygo/QpxQc04tYt82vINmPA5Ncz2PnwiiQQR2V93+BPc2rcPR7b5oelAIn6dvhwaRTr0pWYEP3oZuxbLsK0oDoot0X374dbLKFqZhL3+66A/bcJsyqMLH70GzarlGHVYWJc1MD/ssK90Ly4XFuNIJmVIUxm0vxFEDdWllcFo+mgNtPuasZzyZ+PTlB4fbcDa/K+pakbDz1ML25d9oX4QUXPz3eEy1FOb9sedT3icou4r38f01R6tMWHP97/C0u/T8fV+dY8diYedkSVyyDnfok6iaLQ/nKPLAYhaZ8SfXB3TelL09seeQuiUvkOqP1KGUyJSua9R5gph+QVDnroC4Qe34tBp6gnLnNdNlS9FlGPu1R+z5zwFv89EiFvuGrp7PBzhEjtOWL8VrnTe4BuNpJWu877BUCbGIntlOSqaNIjpM87en88TIdTjk09y/j1m9nzMEB1AnbUFkJ5BRUUzwjeto56xEBjFlbkC5aZKnH10IGnOeCv2qWpsWO6ahpi5BPKwXGz7RijLE1Cx/xM0y4uwkRpdZ1mPxlrtQpSuNuBE1nwoumqpH21UO/3gRwXXcf24GUgq/gpJrtMtXSOftBT6L5bAb4y/09H7hSNR/hR2FH1NvV1l905KayVKSuoxd8MhR0MuMObpZGxMMGDhwSOoT9R0WzPTZx1//l5TLhxJ6UqEOEa0oqH8zVQUGf+d7AZCr5Sh5OxUJH2uRqjLb4QkpkNVGomyf6slkTOjS1gtfaZ13OJY+KUcxYkflFAIYTYdh+lLf8R9QMf7kS4O/MgvrZrhbKjIL0U9OxVZ7TYP6NntaG5ugZ+fP8Y4nt8Pwc+TGLT0cLlg38HLCE/5CIpp/o70iEndCZ30MpWyAeRR2BKoQp3PFzD7GUzC1wiPVyPYcWgqng6bgB3k/2+1x9uLH076/hOUnJ+AxMPJmO3Ko9B/WUdibwHKjGewJn3gfhgzlUh+zlUpAuZjrhTYVvetI+wTn1YCzxdh7bPO86FLs5FkOor0v/YQ1oU+7At1tjX24Di8tnhq7+Kjl3wf02fae+sEVWdGlsjxnY9VmUuohyPDP5c+g7lzoxETE4eFz7dntB34m/BBn5bXf/Pv5GjnI8Q9HwOmItjfjvr663cPjQmYcPdvkR/1EMZMcBYI5xGq7BTr39zCCAp2VTwnfo8HUIU8g+vf9yPOPp+vOwGPd9iHR+FQ+PZWSoO/fuucgpjk1lyQAJxNkZ/tPWmYnwj+VFY7Soezd9jSKsiRb0ko29F0PhGTD3S5icTId03CzV2Oz1yJzYmnoE14GqbQaERFRSFGvgjymT1N0dhx2bgZOw9WovZ7u7O+/tiMljFThVrcnR/qUd/UjIqUKQhK6XJOUo8mctpd18z0Xccn4J4I6FLHRSKHzxHsbqE46348g6zZv0BWl9v8g4U4u4qcvtPa7zkl4sYkofzTZigS/dH02VGcHbcQr83161e6OHJgXAAmuHVuBFfWbvPAIHGV+gbKV27Ar8N2I3zufEQ9Nx/xi6MR7GkaU7DvB38Ed/JDUxGT4GyoT/WZR86C5j8uoMMHktMV+U7AhJ933OLwzeT37j5PL364pZ5s8p2KqZKO86Dvk56kMvNdPVp8lQP2w/5UJtzP3a1LrRQXxRkQ+oTbVF4AnvrnJwCz57D6tM/VoRZNeqLvdVK95Lutz7T35qX2HYwskUOEJOzEH+TrcPbzSpw+fQLFqfnYNiMLn3xIPTnJVPjbz+AM9SpiZnq4ud8LtEQe/uonXcNv9dCL7SXO3p5vABvMnEKvhzgYxkEfdSFEa8IfMvu76D8AMVtM+NOaWpyqqMSpz8uQpdiK99aU4pM13cO4deg1LM39FolFh6B/3jmC0bRPgWcKe7PXn3qzV5Af00+TemUI64IwhVhT3H20qxd6T+tnIJf7YyX1/m8lxKL8cCUCFqd3rJvpI13qB2J7P/AL1UB/agnqv6xExakTqChKwo5d81FgLILicU939M8Ddsctj3qajumJe/HDbu3DgP1wH3Wp+5jIPYySdGm//HyHcqTlp9NWjDiR0/JDM6nTYMyWqx2fNQm5iFUYYLqiwZq5CxEXYEDpLgNUH6i79OyacSo7HlqrBkf207mQXwKfXUYdlfy7ir/pMuqbqdchuY/dHN+TCqcw2xeTtdD3Jl/qVVDl70+cvT7fQOwYNwEBombqRVB47d3uH7/GBSHygY1PMz85nkCIRIT6S5fRBLddNT82ob41gHp6Hm6hXuutW8LI5wzEJAqfZCTtUeDXRWU4ow1H1+b767Nfwz6TrnEJHKEJqq399m4vtRtUJ4LH2XHmwmXqwXRc09JEPVv/YI+7yoasjveC35O/REjrAdReAhRuO3Bufd/kGE3obmZ/0toPUf99IQIST+DoBTtM56dCme0aEbqHdLlfWpqb0fIYpSH52yThk6JE+nOJKP2sCYrlXcYWXPbVXiGpFeMaGWi5DNOeE/CTJyOkzzwa+FiTg178sB/9G9JajstWOjHTdX3rZVwmE4NjnIunB80Pu0acvhMW/aJ9h1ITvhbyqwf8nuzbvsFgOOrHSGRkiZy6HVgS9wmmbivG5kXC0GEz6i7UocnvCThGQx+bj9dyNTi1agMSVJex5rcLEU5eoqWpFhX7C/Ce2Q+JH7jed7FYjZhdG1C0U4kZqdEIoIpn3L4XZyRLsCHqPorR3ypRvKsSs9dTmMJiSqrMmJOF+WRfQF9x9vV8Pc3heuKxZxAzV4R1wntAYtIR9Vg9TNv0OOW1GwGZHqEe3yjqmDXVU0PaPAH+ffovPxIpSzBhWQGySsOxNZHKomsh8baWdfisRN1tILvp4HL8epc/NhRlQzWTGvMf63HBcp2853xnZ0OY16VjddZmRD1OTlSYZjWdwdnvNAgOEhZWbkaJ1R9+t66jSVhYMa6rzdFQJUxFyb7NKIoqwqqn/XHrUhmyVm7A5QQTjqzpLo6C+6zj/Rhh6GJ3n0xTQjVHh21bchFTlEr3wLkwN+UEoorN2Dy3a/3rZ1r/8xLIJ8Xj0PbrqJ22BPntC5h9B54u3ehWPvx69hKtZ/BWXCLOPl8EXSrl7WMtaLp0FnU/TkDwJA/p4/sMFAqy74PNKH52G5QSO74u2oh1B/yRm9CfPLpHkdOLH0bAEihn78V7+XosLNQg9DEqfwcKcOi7p5CkmDG4flgY4Yx5Clk79Sg+H45VM4VFyrkotVCC/7yHW0L7sA/N95YmXeg77QlfoWB8i8skbGeI/B3VwdsYWSInJBkF22zIKkrEM2uuw04ZMCF0PlaQY1W4XswU8PxbOHo4HLuLDCh6TY/0H+jguCcQ/lwccg+n3t2qjQAlduynsLI3InY6qexH/TEpSondB9IxW7ik9R5tpAKSGFAGTdQq1DW1IGC2mmxWO3tofcXZj+frPwFQZO9EbepWrJyzG3icnI12LVZdqUTRT2gokhGYCnlCNEpySYh8vgQFn3ZdLdIdv+eycKDQD1m7qCxuorLoNwEzYjTYk99d4AgEJOyCrn4Ddq6KRJawxuaxCQiZQ2U7P9l5/ZwlUElX4a3fRKJ8zUc4sjwLG89vQNZzE5E+birmJqRja+F8bHvhNaQ/v4oEUFEXm3dCnvoR9D/LxE7t03iL4hAFCPdRY6vtoSHvq771A78uduv6rDrBSCoqRUv2VqT/5p8cW8j9JeFQUIO5sZvAGUBa+86AcnEwinK/Rvi2fZ3yIHSg6dKNruWD0ronPecbjo1FWZSmm7EobDma7cJao2cwP7UIm2M8PZ8fCY192N26ATuSZiHrr+TTZlJndN82KBxO8f7zyCO9+WF63lVFxY480szZiut/g3Ob/wf7XLvfBtMPU4lYvhO5l1/Drhd+hbdIKEUlvIHXqBOu+bSnO/qyb5DoR/0IX7wU4YfzsWROOZL2nCaRPojxjxCGX+T4LoTum2uuL34IiSeHEN+7kx4TqsTGQvr0EfSYmRrkGzU9xDsf+bXXOl+fUIyrCe5HgrHq8DWs6nSVGDNWZuHIynuIs6/nm/sWvvym/Ut3+7rZPGkhNu5fiM13ncVl7NpHNjz70xmK9EomaXCw3q0MUW8+9+y1nq8nQlaW4kv3Mll8DZ3fJOAPRadjVBYXU1lc3LcgctpAPdYNxfTp4fy4+cj99IrzPTMuVn1g7lJ3gPxTC5Hf/qWrzUKveF0RffpnkkBf9U1edA29/lpMN7tNuPrbzpcE/7bLsXHUY99p7PZsPdO/tA5ZY8ZVT3Mlvr2nSzf7PBzrVj46EYCkj6/d3SnnF6pG7sfqTnnZK77Czs5S+ng+3XsedS2XhCQZR75J7nTV7MzTuOr62znO0bsfFrZvrymM7mHqaSB+2IN9XY/5TYUq9xBU+R2q7WzmZmG1crf1+/2zz1Oc3elPvvee9mT6s2txsHZtHzE93Ay/yGHukRac2hCJpWdjod+XhZggO+oOFaCkbirin+PXszMMwzwIbh1KwjMbrmN58T6snRvg+L20nUeaEa6N5rdIjwBY5Dy0+CFqQxE2Uo8h/XnnsHlASDgUO4uwduZw28YwDPPTYEz8NuisG/DWmkgUNdghCpqKucuKULD8p7FFe6TDImcAhKwxeR5OHi6EYfNC0wCGzRmGYR5uRpwfdkyzFg9ompV5cLDIYRiGYRjGK2GRwzAMwzCMV8Iih2EYhmEYr4RFDsMwDMMwXgmLHIZhGIZhvBIWOQzDMAzDeCUschiGYRiG8UpY5DAMwzAM45WwyGEYhmEYxithkcMwDMMwjFdyXyJn7Nix+F+3bw2WLQzDMAzDMIPGfYmcmzdv4umnnx4sWxiGYRiGYQYNnq5iGIZhGMYrYZHDMAzDMIxXwiKHYRiGYRivhEUOwzAMwzBeCYschmEYhmG8EhY5DMMwDMN4JSxyGIZhGIbxSljkMAzDMAzjlbDIYRiGYRjGK2GRwzAMwzCMV8Iih2EYhmEYr4RFDsMwDMMwXsnwi5xWI9S/UAN778AQP9zGMMxDwtkMTJ9XDW1tBbSTh9sYARv08iBsmVaObwpkw2aF/Ww+lIk5MDdKkFF9DptCe7/euiMS0/fKUFWTg7BB8YbDnA6tJqycpMTNgpsoSxQ9+Pjv2kF+fSz59Q8fQr9+Kg1PLrBgU105NIF9Xz74ZYgZTDhLGGYkcWELZoVnoMbe0wViqA7fhCHoQRr18FD1fh7M49NQdSYVYWIPF1wzQVcZBE1iGIZRAgwidtSU6nEzWgvZxEEKstUC43sWhL2igKSHS2yn9CjzVUIzR+z5Al8ZMo6ZgWmDZNNIwuvKkCeGoFwNEyxyGGYkMS0VpjoV7rQ6v5rTZyHFqoW5VANHp9J3FMaOp38vDKONIxY7bLdtEIWEkcDx3Pw0HspHxnEV1N7SQLVWQZ+ug6h0EBujCwbk5DYiZzWJHI8thA2md9KgD5d5FjlC2fUVQxoVMUgGjSy8rgx5YijK1TAxAkVOI4wvU+WpkaPsWB5k4+2wHsxB2vYSmC81AKMliExIpUqoQZi9BEqpFthuQVlSx7ii7aAakmQ7dJYyqMYP46MwzEDxFSFwYkf/OWg0/W/UWAROlnjsVdtr9Vi5bAvKzlLdmBgJzfY9yIt3XXmjGrr1GdAdq4L1tghBoXJoMvOxaUH3MXj78RRMV5yDtqYKqVPuHoXpZQmUVzNw8TMtgi6VIGN9HgyVFjTaRZDMlEP7tg6pUeLuhh1fiSBFA/K/K4eq/TTFEaSwdhwbgH3t9liK05D2ThmqrtgcvmDWIi3ytmtJ1Fihk89C2nE7XaXEqGNh1BBVYdPMjrstWyMRmV0NGznwoF/okXGyCipHmoN8DIWbrUfVVUrzmUpsKi6EZpqzCbOf1yMtPR9l1VbYfIMgjVYgY3sOFFP618RZi5WISbdBe6QcqbNFvYTXAJ1sOnIml8G6V97RgF7TIUaaD6nxIgpj3eK0G6GepEbJDTtEsaNgSDDA+r7rvK0K+ao05B2zwCaSQPZSIQzZMjiywlZD6Z4G3RFK9xuAaEoklOvyUPgSNdon0zB9cT4stwHl2DLICiwof8k9PxqhXyxFyjEb7EemY+xeLUw1kSgMSsPY7Ztwk8SPaVIOLIeDkOo+XdXaCFOmBmnFZlhbg8iHb0KqhPx3SQSqzgjTPJS3pWlIyTSgqpHKVrQaOS+JkPNiNTSWCmgnOsMwv52KjL0m1DQC4omzEPdyDvLWRjiey7J1FmadVEI/x4yMd62QG79B4bxe2o/RrjK1n+LNdsUbrkTqsp7z8oGVod6e9Yar3SuwomyZ+O4ttv1KSNYBujpq90b3nlbWtyMx/ZiS7qd68z6Vg2sNsE+Mc9o82dS9XO1VPLSCboSJHBuq0xXQVstgOC4IHCocVOniks9B/mEFGhaQ875mpoKvhPLVIJyjhNfEp0JZSk4hSetqBKiXcdAE0SIDFCxwGG+m9SL0xVbkFZ9DYeBNmNfHUb3YAvmCPZCJyHmp5Mgfn4ey2goSATZy5looVeSsKknIdFmrIiKnq/j/23sfqKjrfP//iVGM6crgGkJXydmveB0XukJQgnL9Omh7GNRzGKSzMOqRxlpi3EwhLWTxwBcpXSBtGZdbjnTSgT3hDOdKTL8y8LYYVJi04YorHqfIG8i6OZguQ03ye31mRoFxYFBRdPb1OE06nz/v9+v97/V+vv+NAVroq03I2OAQSZfqYKi2QFZAztPajG2rVNBJSlBnUkEqIieao0B8ciakrXsgn3ijxt+YfQLm6nWIf17wBQ3QJ9h9QXZSIuTpfmgtT4Ha2IHAFD+oRHpcIJHgjPRleu+bQMSfzUfHQZXd2R+i/50th6YxHyX1+ZBYGpCfFI/MHBkS30mBuNMA1bJsmNMNaD4YhQCLCYasRPI72QhsKkSUG8/fKdic1YGUcqNN4MBNeMpUObI36mAwy6+JQ1OVAQ3TFMhf5BSZSAEdvdMZqkHYoRMonAfbnhyBhje0iC4WxJIfTDQaj09fh8LlJ5AfYaFyS0RmPfnY+hooZgjhk42rSVSE0f1FhTj2hgl+z/tB30Hlel0PEQCVgYRKWDTqVp9Aw4sSW5xa7w4Y9zZiy75WaGaKKW+Ng/OhTAXlHy+Q0OtAPtnZXKaGKu8YBSeDSIjjeBFUz+rhV1CHjufCgKP0/ZlCqiXh9vtE8ytyKpNwEmeUnyQezJ8UQZkkh1JMQowGuSIR5U+rDvqIQtSaom0DhOH7DznEQrzpjnh/SyLvtAGZVM87rNEuy/NO1aHh00p/xomgqjLCvCrFLlxJfOor6yCK00JBF5r/3/B5Zev5mzXQLNFD11gCsZXa4/LwazZfV6/uYe4ikUNO7g9KKColKDpUArlt8EAjyTd1uJCgQz5VUFtdmCZD9ouk1lO0MBaTI3haCckSHcpPqrFFWP89b4T+sB8VlOyeVZ4MMzLGQ/7bfMhtMy9iyEk0BO5rRiuN3GSXyqFtlELdQiPWKfb70tR8qPbOge6dZhIRYYODEpFzI+GgMRhg2pBhGzBYDulQY5WhaJngFAOQccgENf0ptgmaAMhWx0P6Rz2avwLkbjb4XsfxG7RPGLyUkS9YokV+Qr8vyN8oh/Zp6tjOp0B104OaKKgLUiC1pUsG5XIpispPwGSlEXmVBgaxijpz6pwEbzlRAkVeJom9DBIJ1EEtGTpU8yfZUDzbABmNpvMXiW3XOt2EV5KgQmKWErrKTqTYZlCoQ3ynAdKUEkTdgLcOfCobGYvsYlWanIiojQa0tlkAElqygmMw5YkQ4FjSkySkQBagQ7Mw5I8YwU5bV5Bt4iUkXOY63rcOygnUVNcBNPDMdsz6hT1TBDWJt3V/tz/R+l4NmqckooYEjlhI57wM5KfoEZ7nCMJaB+1eE2R5dbZOW0AsPLOKxNw++yDXxiUpEjfJIbFFY4HBTf8RNjBe4f5MBbKf1kL7/I1mwCjWoRGkVU4iSrRaDyPVe9tqRWcNDPVCvyeHaKR5RW1evcGRbm8JZDFSWBw2O7e+e5m7RuSYKlWIrxIcggkpM65dtTXMzqPxGP+m0wuiKJioTWIejRBma6B7uxlbCsJo5KRDXUAK6mJY4jAeDjkmycA1LBrJitADCzkpS9sJtF5qRKbEC5lOr4klHXDlxqJSFDbRYjidgYyZJCqqqGOK01ybETU3apHxmh6NrR0UC2G1wGwdamvq8NywfTTSNJmow4iTOkaujiRTBgRajTCdpS83K3ICKB8HuAvbjICQh/T3E60mWI7XIfz+bU4viSA/axasdRlkz3EtEivK0ZlUi8IBy29uw5sogyrJD7K3dTA9Q2LztAH649FQlklvKEmSGQPKxVuE8ZQki9Vii8dytg4lOYUwNJlwQbjkTeVIvjTaOlRoI4wzeIi6IJTdN8ISjmTAwDMA4RH0/Hv2bx1C4UqUg/YASSPCSfCY7F/OUxidVCdX+8FrtVP4M03otMK+Zy1A6hAaAu77jwBbvImD4g2YSXXqarwjZTTr0AjSKlmSgkRxIvTVZqSkiqnfM6BhCgk0YbZvpHk1JYDSOdBmXLPZk7hLRI4FzY0WKOMCoSvIRl1cCWTi/rvSFxtwYsdQm9ikUD0djfxiLepyskksCaOeQj7KxzATFdB9o+/fE+OOuUokzi6CvsqEjGeaoX9vPOLfduwNOa2B8qlCYJMeDQdlCBAuCifBovR3zj4bd9gFkx8RLSjEifqMIU8auaKzsRnRSXJgXzaKVtdhS4RoxOFFrVZB+qYO5cczoKjWozWKBnIzh3j4RrE2Iz9ZiXJJIfRNavssGo381wXHo/VWw/YefmB5/V2nK97C3ORw4YuhMl7AnjjXt02OMJwZrv+oE/73o9NF6uh7hrPjRrmZOuQmrfCOhiLBD4lVephXxduWqgKT8vtn+0aSV/8i3CVSQATFDj32LGtGQIwMa5+XoeFtBalNCaTBIpiOn0AnonBtPHSpEyZrgGNKklRpkgpyEjjlFRKYmsKh3H1jox6G8TREwXMgtWpx7DiQsqD/uvlsJ0TTAoZYypUi5akw5B80oHnaMRjFCugd+0AszQ1ogAzaDQ6BQ3Q2H7NNbQ9hge3/PQM0ibmzA+abtU+YtSJf0HHSRGFEXRv7mtta0UH35swYLjdunjnC7ETFMTRfotHztRkCMzrPChvEh+7UJakl0L8eDqMoGomp2YiqL7QN3EYU3twUqCLzoS3XoueQCfKNif2+71bpbEDjaTFkOxwCR+Ar+xLnbcM7EIEPwb65FVdPJHXi2Bf9siowMBCgtAr1KcDRK7V+cQxmq5/9yxQq/ykWNAjvxPX7d0unCRaxBK4P07nvPwKnU7zv2eO9OpvTebKV4h29lYAbrkMjSqsIsqcUCIwzQv+FBYYmKZTFYTfw/r8Od4nIgX0UIIpCflk+GhepoXozDDXPSCBPVSJw+TZklEVDkyqF+HwzNM8mItuyBceMKrsynmLfgKzclA/EFEI3Y4zTwjBjTQh1lNQWsl/Ohrwi23YM1FSdjcTVRsgMx1DovInVgSRJiegCHbLfbKWRYR1kjsdE1BlIrEY01JuREidC52ENMio7EEjO2vQNKRnnPTnBUsyBHnWHO6FKpu7lfB0K9zXQjfCbtE9MviARfk/RO9VRKFwmsf1eSX6xEX5JesjFI8wX7/HC2ghazWaEidy/FJCggqJAhfxNBoTtEI5UC6dWlFC+EQBNi862ydN1PA6bd2iRsUgYuEXbB24jCk9CwkjYgJwJjSgRumXD2GlbY+iAqa0T5hCx+w5M6AAnmnGivhHmJVEQnaY8zKpDDxWR5RthmTDAHuYlyqPTZioXMUTOm8ody1+dplZ0mgMde7SGzUXI48KQWaCB5mg0MiJIwJRlQ9siurbEKF0ih6SgHCX7VAgjP2/5pAj575Dg9XaIHG8ZVKuk0O7ORNEiHTLmiWE+Xo7MJDVOrCYB/rKrga3Ibf8hjZNDmqdF0R9VCBc2PB/XIvvtExRf+NDJud11aKRpjVBCMUOG8pwOHAtRYk/IDb4/HM71auK9q4zuHpFzlZAM7NnRgOiNSmyLrMOWJYWoeVtEDSQekudpJCAKRFicGvo3VAOm/qgyr1bCr0yHqFWjOOphmHsWCdTlRlg2ZWNdpJ/tiLZ4ZjSUu/XXn9IZyIxEpERlYu0hKfJfH7AvZl4mSl5sxbrVgRgPexss2qvFiafjsS4lHKJ3Dg/eRTODnHpeHdSbwhCYRwIpWIZ1z1Cn0tjs+A2gG7dPHFeCmt3ZyMyKRuBqi+M4sBY1efIhdsZcT/RTKkRX5kMWbID6nRNQu3shIAXa6h6KMxvR05U0whdDEpWI/Kr8oQXOQCY6D9xGFl5AghJy6hQbk1IgG05EBFCHlhAIdboU4VWFqH3Hza9EiuTY8roKazfJEfgHESRh8cgo1kHzXiLkBXJEjzeg4TklVNRpZkdKoc8iYfuy8/4tKRSrZdBmJUJ6SAlto8JtNkie06KkVYVtSwKRLRxpX5WP7KdPIPGg44F5JHp2mKDOCYffRjGki9aRKJCj8en+hZWwHCP09wsbaCXIPmuBKEBK4eige3HoTlvkrv+YS/G+3gl1gQyBm4DAKCW2bFLh2NONtr1trrgTdWhEafUOg/IpCYqymhG92zBoKexm8mqwzU71yqC6oeXau4mxFzneCuguDF4BlaTq0ZHa/12aRBWVPsNh/saEHnLQqjjxbTCSYcYG+RsXXO8PiMjHie/dXJsShYy9tci4oRgDoDL2QOXiuiyvBifyBl+NOnim/9klA98TIWqDHsc2DH4+JelW7BNBuop8waqhfIEIivIeDNflihZsQW3Hlv4LixrQ42SjZMPga6K5KpTQqL9kRDaKr88/GrjV/r0/lSMKr7MDnZYwqJ52d0pUgpS3T9h/q8XBng6nGuMtH3RNklSC2iSn2OfWouPl/q8lTReGtU/62xqc+W3/d8V1cZJf/37ANZEUqtfroHqjPzWNGzMBvwDY52qovjyjxbHf6q7dt1QpccFbDD/x1TADIP+djj6ubXIuN0fEbvoPEcKe2YMG+gxElTTE47gTdQhu03oV6cvH0POyixs3kVeDr11fr+5VxlzkeHl53dL7fT/2oPMLLdRZdQjPOmabXr8aZkVFBX7961+PhpkMwzC3H+F0S2cditLzYVqmgfpGj+bfpZgrEiFJ74DaYED2ogDbvzGWX3kB0Ztk9pn30xrEhuVDlGeETvi9GsqD/D8YIVqiubZkyjA3w5iLnL6+vlt4uxNauR/WNUoge04H7TOSUQiTYRhmbGj9fTjC80yQLMuG7nXFiJfh7nbEyRroTquR/bQURcLyyTQpZM+Sz37OsQgyU4U9e01YVyBHYJYZmCgsK2XDUJziMXnAjA1jLnJujaGm1hmGYe49hlx+uOcRlk/0wyy/iCAZwbYEhrlR7nGRwzAMwzAM4xoWOQzDMAzDeCQschiGYRiG8UhY5DAMwzAM45GwyGEYhmEYxiNhkcMwDMMwjEfCIodhGIZhGI+ERQ7DMAzDMB4JixyGYRiGYTwSFjkMwzAMw3gkLHIYhmEYhvFIbknk+Pn54cyZM6NlC8MwDMMwzKhxSyLnwoUL+Lfpj4yWLQzDMAzDMKMGL1cxDMMwDOORsMhhGIZhGMYjYZHDMAzDMIxHwiKHYRiGYRiPhEUOwzAMwzAeCYschmEYhmE8EhY5DMMwDMN4JCxyGIZhGIbxSFjkMAzDMAzjkbDIYRiGYRjGI2GRwzAMwzCMR8Iih2EYhmEYj2TsRY71XajnpAE7z0IjH2tjbpy2XXIsMS7Bofc3IHisjWGYfyG8Pt2KnyefQs8nFbjsP9RTvXigIAGTWhNhLlPBegc8ntfHL2HKqq/xzyHt6saDKb/EgzMr8I+8GPSNcvz3F8sgfn8ZzOSTfhzlsAWGS9+4j16C3+Zz+GdlGXqm34bIGeYGGXuRcyfobceRt3aj1HAIR9vOodsqQlDwo1iw/GmkpS1FsM9YG8gw/XhRRzElRQsvq+OCjy/6Hg6Cdd5iWNaq0RPiO6b2jQrffogJn07FPxNCR72TH8i42q2YVDkVl2ucBU4XHlwVjYl1vuh9uwHdsaPnBPpC0tFdYcFPk0ctyBvCmrQL3bKpsLp/9KZwTt+4T3UQeS/FPx/zxZWFufh+eRx8M7T4sfzOiEqGGQ7Pr4K9LShd9Wu82voIUtbn4oV5s+BLI6n2o++itCQNyz7KwoGKdISw0GHuJu6LRI/hLfto+Cczxp1pwQOVGkyU6+GzvQrdyUG3RxwIPeMd8Arext148KNE9NxOkWNtwYQdB3BlrRGWh53utVHH/Omj+GHZOTzwp3dxX2wifhqteH2D8MMToxXYjdM3PRQ/3M5ZlEHp64bPnq0QzY2xiRxS5PhBvRE//t/NmGhcAfNyDxDkzD3NXShyumDMSMDG44uxpyIXCyb3ov1gEXI1enzcdg6Y8AgilqfjpSwlQnr1UM3fDOQ0QJvcP2968WAaHt/ci4KPyxBasRmvHn0EGw5WYf0AJRMcEonY+UHIyGvDqXYgRFhr6m2HsWgrXjPUo+07C0T+jyJ21cvYqo6BLXRrF2oL1iO3oh7tmIrQX6Uj1Wm6tve4DrkFu1Fz9Gt03zcVwfOWYkNOFuQSVlHMjXHF3x9WW+dMlWz6LPywcCl++EUCfLe+gAcXGHBZ6MioToo0OXiw4kPc10XfH6aOm+rs97+JxBVcXVo4h3/uDMb9pcIz5zBuwqOw5OzC97H+tuVi8ZytuJKzEePe3Ir7/+1lfEcj8J++a8KEvFcwvvYzjLsswpXZi2HJyMNlescmSqztGL9jKx6srMd9/yBb5y5Fz9ZcXH7M3ql5f1CAiUV63N/aDi+RP36ar8TlbVk2sXH/LjnERU3w+ukz/FyqQ0+VEZdm98Kb2vlEauf3O9q5ldr5ZWrnP0wQQqT7lVsxqegApcEHfXOX4Z9Jw+ef16c6+Jgi6blZTkKqFw/so3CeSMfFtK/hqyDB802iPT+pZU9QRONByVs4X7S4/z3TbkyO1cJa1oCLCykNFVsxcU81vE3dNlt/evJpXMpR4QdfF8s539Vj4uatlJenSCDMwo9rNg47y+L10QuYknoOl5sr8E/fq9cozNSvHdd67fGX2uP3mjAV1oUrcTlvA3r9By9XWT/fip8ntaOnLBLemnfh3f41xuHfqfxL8b3c4bwG2jeZ7EvLxY+fJuPByRU4v/365bT+9O0CMqIxoY7y4P1oPFShQvf/5FIeLEHPMiqr/QfgvVx122aUGGYk3GUipxtHC9bg5aMx0FQKAofc0cdbsXLzl4gtqcLu2CDg23q8ti4Vqi1TcWjnUqTIc6CqqkZ7sgpBjjA+rP4QPr8qRfzkUyir+RIieSnSXE3VBKtQtO/ql14c3Z6MdGMoCvZ/jpTZvrj4+W6kr0mF2qcOlWuD0PWn9VDv78Vz+/6K9U+I0FVbAHUmOQb/JfYgut7FxlUF6F7zFg69HQl/QTRRejauKYD/B7mIYJ3D3BI0Slal48c30+BjbMfl3wThgdd/jZ/996O4RHWyJ9gH91Gd/dnaZPhOasAFQfh7kyDoPYTx1YthrqqD1Yc6SE0yxOs2w0qDgJ5JIvTddw4+5U24rKEOXOJL4og6+rRkjJ+ci4sfGfDDpG7cX7kZvs+tAQ4KggR4oGgNJr5P8VZ8DksgjeZ3peFnazbjykel6Lmsxc/W7QXWV+C7gyS2LjfZwvvZln/Hj2WJ+HG9ERe//SUmfZuFf+xTOsTYVoipnfdSO+92tPOJ1M59qZ3/Y+diXDm5G5M2V+NKVhXMa0PRZ3oXP1O/AC9r5JC5dX9tPbxCnsYPzvtiug/hwSozfty2FNa552CZvRui8hb8c7MwqxSEXkUMHix6Fz69JOwcbdbbSALh4aW4NN8H4z54gez6Ej+UvAez3GHrWrJ1sxjflSba0jMgMozPScP4Myvw/ZH3YPHvxgOazZh0tBeYeZPVoI3yd0s9rKWHYX6SEvddCx7MWINJBaE4T3k1iPuo/K31EFUuxsV9RvxI5f9AcQLEW4rxY+yrlD67fQ+eWYaLgn2+5zA+7wVMPNKLPoU7Q/xxuawK42LjcP9TDfhOHeS4TvV0YQyw/wju7yaRw5M5zBhyF4mcbrTtSYPqYBC2Vr6KWJtj6kUtjbi6SaS8RI7P5m8ejsEG9VJUPKfDh7mLoUhZgaAkParaVFgvzMZ89yFqjvgifk8MfKhxt31DWib+UbjVF72foaLya0Suq7AJHIFJj6UjbbkWKw++i/a1Shx5vx6QkWB6wn7fPzYLqfN1aGqzB9Fl3IuaSUq8qyaBI+SsdxDkm9TQV+bA8AmJnIW3I9+Yfyl8Z8FKfcl4GpF7Wb+mzrkdP26usgkcgZ+ozv4zSQffShrlk/C3LcHcNxU/rFGSwBG++ODH5ERYi7bChzqyHmGzP9XVKwtV6Amxz9J4ndRDdHQWej5S4gfbvgtfeicLPRXREP13Cy7PNFOneQo/rfsTemxtxReWjJ2A9JS9g5++Et2frEDfJF/0Ce3AJxIW+aMYX/ol7rMm4qfrvE4vRNTOvaidX4p1LMNRO79E7VxE7dyH2vmPtYfgPXkZDSBC7XFIluJyig6irKEyqhvebV9T45913TKUd7UO93svwfexdtt7U0jU7NThgRdeRS/lkfXJpfgxr8CWPxbbXp1TENFg6adl2/GjdzdEFWTrwl24JB9ga9piiF44AJ/vEtEzKGlNeKC2G9bNalgeFsLyxw/qdPRWHHLvk4bA67IZXvR2n6+PPf7JoSQ2PsflId+g8k9VksAR/k7lP5+EZ0mLfebP327fj1s2OuwLQk/O0ySi6+F9300aSPTNEvJdB+/T9OWxmw+HYW6Vu0bktB98ASuNTViw63Morq0nf402kwVdXyRjxn6nF8hxfiM00seUSAzWkpBowfqsUHS9fwAf+yfiwBMDXIjV4t6Af5xCe7cIQTODBl0OkjxCo9d2tFvo860gbB4Z4Jx8EPwLet4hck6RU+09WY8l//aas7GI/bYbgkNlmFvC2mvbkNx3n4gE/SnqqLpx/7qZ8F/n9JykHePoOVsH7/0IfhpYrScF4SdfC7y7zl279NMvBuzxOfM3jBNmXyIewgSnYPuC6J3vzuG+73zx0/QBUyQTZsGSNMvxhcI2bMWESuoov7XYvczlbnhNmkWdsyu+xn3Uzr2onT/kop0LnfEVEnUIWjpIIF2httnn/fUQGUXxUZO7EiIefNlKgmVfPfqWVaHXkTirfAV+3LYZ440vozeB2qj/UvQu3IqJ1NF7xS5G38kaPHByFnqLQ9FnbYF3O4Ub67QEFhSEK9YPcd+3Tmb8g9J22SmvqDyuBOGm6Zu7Fv9MPoKJSY/BJyQGPy5YgB/ky2CZ6+96f5P3VFwZOJvlI4gji33/lSv7JjyKH0k031LnMInixDmMM99KIAxz69wlIqcXLUctSIydCv3OV5AsexULBuiBYLURf84Zalp6FpKTH8drpTocydiI9uomBCtyEeJtvxcsAWqOt+Ai/X2Sq9fdbbT8afj7vQPPaNLIx+eJXPz5YDpuwYcxzNB89yW8TVQtU6mDxymqm77oLTuN7ljXj18TFU6jci/njRLeosHfJyzFpeaya3tCBtGlg9Bmh+K+qhfgW/A1LKVVMD9pF0/3vaXAz0uGfMXGFWrn/6B27qqjtg0snG2+ic0ewj4d0fFejGtLxpTKATcukiKqOADvBGEPCeVpwmJM3PIufC4vxk/Gatw3dwUsswfGOYKB023DHz3bjLCsb4FPbT3u/0iPiYpXMH59BS6sH3r5ziWOaa7BeS5y8SDD3JvcJSLHB/E5b6HoV1/ioeUJyNiyANUlS6kpP0IiRYT2k6fQhUhcG2tc7kK71R9BDgfsv1yJ2O0FqDIEob35USi2Xx1RBkEe/zhe3abBa58uxdYnnCaITVqsTNqL4F11dI8E0c8taDlNw7TYqxKlF+00qsX0xQgSTUXQVPLvNKLsRahjNqcbp4TnHcz6xSNA1Zc4fplivjYE7kbXtyL4P8wbcphbpRs+Jbtx/4Ql+F7YizE5CD9NtsD7OImd2FnXnvLqasc4X7p3tcpZhZkS+vPqCaPv6H63CFcepgotCCVnfvHvuGLdj/tO0t8HnBK679suescffVfjHdhWek9h/J4P0SdPR9/RL+E1Nx09T16dHerF/S3CjMus66Ky8wh+onbuRe18HLXza8tL1M69qZ0Lezpstta24z4SGVePJd/XdorE2lDtyhd99N6478yD8s+2LPZEFsy7nPbOtO6GeK0O44+r8H2IsHy3Aj9gPXw+bsKVmnZYU1fY9Y13EKy/EEHU1k4Csl+QeZnaMM77EVin26Lp5+dTcUXUjXG2aWeHB+v9G+47QyJx9hCmXxUZA3Sk14BZN2E2776LpE/8Q2FJFj6U13sUmFyqxwPqSKc9QW6YbLfvvoEzzZdJSLdR5CE3EpATF89RWU7Fj+JbCINhRoG7ROTAtkFSmJp+aVcWPk/YjI37H8X+lUGITV6BqauKkVsRiVeSZ2HSdy0oy1iD7b0b8UG50j5jMtm+AVmdVwzMy4VmwPHJoDWvYutHCchaE4euNDWSY0Mx1bsb7Z/oUbprP07N3W4XP96PQ5E0C+VlBTDIdkER7IOuT3dj10Hy4zkrKB5/LJA9DuzYi9JPH0faYz5o/+AVVBzFNd/lL1ciftd6vJb3LkJyliLIuwtHNGlQ7/PHK/9TCjmvVjE3wLiuLluzwE8WjGtvwgMVGow/aMEPu7ajx1bnYmxLRL5vbcWEBaW2I7zCfpqfrd2M+5KMNKp3iIqfuvHAW7vxgDQdP0zqIqGkhbfvYtsmWlf0zU6EZZ4GD24rwA+lGeh92H5aatK6D/FjWR2+n/84LIpZEL9J8T5BtkgseKD0JUzc74tLSdQHC4LE2IT7v1HBGkhx/2krRCZfe8dHnTOEfT7eJGq6voZ3dzd+FPlSR70CE6id/4za+UVq532OzbQPUju/QO3cGrsYPxWRCHlLiR/XhAIndZhQ+Tf0eT86RO75wiqlQcfRU7iP8skmUL49ANEHvfix6Gn8MN2pMU5/GpaQ/RBV1OPSthj0TaC8fVKEn+15BX3fxqDn6kkkYZbn10sx4RkNJn4QSWIzyP6bP6WH0Lf8LfQ6t3GfGPTKfPGzfRqIYrPQO/kcHiCh+oCwgWaIM+t9vwimW9V44OMu/DPB33b6aULlZ3THnlbvyjXw2+WLf5bm4Z/CEtXldtzfeg59QYtty3mulwSHYMLj+GG+CBPIPh/BvgntGL9di/tHumNI2NhOmmxcO+VzNwkmxz4hr1NCvs9Cz81urmaYUeLuETlXmZ2OopwmLNuahl1zq7B+YS72l/ggd1cyHt9yDhafqQiNVWFPkXLAkpAPYp9aAd8/HUBE0lIMOkzhMwupbx9GsLYYpYYCrN3Vjm4aGgZJIxGrroBmTYx9kzCFEbHpLWjv24pXk3+JLHLGPv6PYvHmt7DVcTw9aM1OFLe/gNw14XjtJ7LjyXS8sPZRNBl60Ct4Uf9EFO+zILfgFSwLS7PHE7EMm8teZoHD3Bg/NWH88l9ivONrn/8s/DRvMS5XbXT8HomdHzL+hO/vz8GD6sfwoLD/hZ77MakUF9X2PSO2Ds/nUVjkvXgw+TH4CsezJUvQU0riRAjG5ZJPEC6XVgB5r+Bnv/o/8L0sQp8kEpbtZdeE0Q/UVr63bsaDqeGY8A8RrsxdjH++5RBfK3Nx+YvNmLhwGiYKR5KTsnCpZDEmPPUCJj6ZRgKoFJblK2E9WATfeTWw7PkY31M7N1M7n0jt/OfUzkHt/Cdq5xepndtMDMnAxYIu/GxnAqbkAVciVuCfaiW8Xzg65LLVjwtJrLz1IR7oIrElHK3+kw73T16BbpeNcRYsKTEYv00HUQaJmsk++GH5UuCp3Ri3rAyWAT/sdyV2O7q3F2DitjhMWddLQiEI1mW70L15sf2k2KBwfdGTtwveGVvxs4Va/GwC5cfaLPQsqMeDQy23TV+JS5uP4Gd5i/BQEeWDhOxZqcSVoy02YST82N/37ZT3adG2MrcdIZ+XiEtF6basuH+IYF3jT/btxH0Zr2DSvN3Aw4+jV70BPafrqe6NZNlqFnqTYiAqWIPJH63Apfd32urV/R/VAxHp+JH9HjPGjL3I8V4Kzamzgy4FJZfhL8n934OXk9Chz3Bc/LYdlunLkBzrolV5+2PBb161fYa3JQixm8voM/R9eZ6BPgMvqvCVuv+bT4gSBTTyLBg+JoYZkr6Fr+Lv/+umrl6F6rZlI4mGjcM9RKPr+RtgTtjg4v3F6G45e/31yZG4vNMw9Ikdb+EUTgV9XNzzpXffrLvu3e4jS/u/+G/Ady0D7fGBldq4ech27oMfV+7Ed/QZyD+XD2Ug5eMTSvRKEmwnwf5Jou/HjXXoGiafrCsr8PeVA96fn4vz/+vKHrIlKRcXklzb2jefyu/MgAv+i/H9PvoMeursMKehSGD9pgz/+M3gqz3X0kplTn7KMoSfEtL596vpnJuFf5wZfL/P6Vrf9KW4tG8pvr82eXMKE98iMfeEr8v9Uc7p+3FtBc6vHfBA97t4sNqCH3NX8G/kMGPOmIucwKkP3XIYf3n/Vby8rR6hL9Rhgc/ohHk7+P8+OIT/+I+5Y20Gw/xr4B2Ky1krMPmFVzA+qcyxxMcMpheizdGYdHQJvn8rFz2BFtxfVQxR2yz0LhxqD9Xw4T2gKcb9wRtxgaevmbuAMRc5Hef+fgtvd6E8JRyPP7UXC9aUonhl0CiEyTCMpyD8W0oXkxIwKUOHH8uU/G8pXYcPLJtLcV/OVkx48v/gZ8LSZHAkLDtLcWnujYc27qMC/OzgI7hUyf9uFXN3cI9XQ3+klJ9FylibwTB3KX1P5OL8GffPeS4++CHLiPNjbcbdjLA0WWIcZvls5Aii8h+fjEJADDNK3OMih2EYhmEYxjUschiGYRiG8UhY5DAMwzAM45GwyGEYhmEYxiNhkcMwDMMwjEfCIodhGIZhGI+ERQ7DMAzDMB4JixyGYRiGYTwSFjkMwzAMw3gkLHIYhmEYhvFIbknk+Pn54Z+XLo6WLQzDMAzDMKPGLYmcCxcu4LHHHhstWxiGYRiGYUYNXq5iGIZhGMYjYZHDMAzDMIxHwiKHYRiGYRiPhEUOwzAMwzAeCYschmEYhmE8EhY5DMMwDMN4JCxyGIZhGIbxSFjkMAzDMAzjkbDIYRiGYRjGI2GRwzAMwzCMR8Iih2EYhmEYj4RFDsMwDMMwHsnYixyrAcqHlMDeHugSxiD+w+vwi+UmbGmrgSpgDOJnmJvhaDbmLGqEuqUW6hmjE2TrK9EIN8TjWNMWSEcnyBugE5onJSgKqcGZYtkdj/0qrWVKJG4ywCRWo6a1ELJb9JBjm6e3AasRa6cn4kLxBeiTRaMU5u3sA8zQygOxbfbY1quxtWV04239f+EIP5h4z9TpsRc5dxprKwx/bEXYbxWQCN/DMqB7zwLJlLE2jGGI49sQHpmNZstQD4iRcvACdIF30qjbg/mIFnrvRKjmielbABKL6xAuGkO3aW2GrtgAJNegY4cM4n897+iSweXE/KsjWaVFXVygvf+8B/jXa8bHdcgv6ET+cyRyhNSLJYhaMNZGMYyD2RkwtqWgx2r/WpcVjnUmNeoqVLBNNHqPh58gyI+PoY2jghnG1zOhjZRd6zwDQqIwtpOpF2C+RE48LBziUZqkuPe5vpwYNwht9070rHcqHidEM8IQNePOx3uz3H0ix2KCIS8T+RV1aD1vgSggDPJn81H0ouyaAzR/okFmVhH0TR2wTJRClpqNkjyHaDE3Q7MpE5rqBpjOU4HMjEbixkKUPBMG0eFMzFlehFZyZIl+esiKW1EzM3/wclVnHbZtyob2vWZ0WEQInC1DSk4h8pcJutUM7fJAaEJ0yLTqUHK4FaazFxC4iJzAGxkImzh22cZ4CN4iBEzrHyMFCnVqvB8CZkhcjpwsLVqsXbUN+qMdwLRoqHbsQWGC48nzjdQWsqF5j9rCJarLIXKocoqwJW5kUsLezjSoaTLB7C2GNEaJzIJ8pIQ4FICV2moOtdV9QlslWyMSkfH7QqgdnaGpOhuZeeWoO26CRRQA6SIV8l/Ph3xaJ7UjKda9Z4aleg789qphbMnEMfnA5SoLWssykfm6Hg2nzcBECcKXqVG4Q40wIXhh2SRQBVGxFoHV5AtaTeg4L0J4egl0v5NB7DJFw4TpbYBSooSBfI4lPRB+BWoK8/rlKsvJcmRvKoSuvhWd5B8kc+VQ/16DjAWuY7zOgi+KEB+ngTivBvpnpMOWkeXQOsxRHIO6uQEZM/vTUPf8HMQfz8CJOvX1dWJY/0Vl8vtozHkvEfpVJmjeoDjPkg+dFo8tZSVQzXZWdi7Kqdmx3GFuQFFKJgrfa4VZJIHsGcr3vKv5boGpMh+ZO6jsT3bY8jk6KYMGl6oR+shOGJ4lUdUsh/49KoMpw4RnKUeiVA3saIU+tb9emyuVkKRboGnV2i9QXS3fGEt1ldJsDURY0hZoX1dB6kiyu7o+fLlTPlHd1cwtgfJkEfIPh0H7dx0UZiqL9EyUUB5ZxNRPpWcj3E3Kh7djiHice/Hz7uO1fKG196GNQjyBFI8C2TvyoZjZAY1sDvJn6mF6Q45rNeJ0EaLDNAg3nID6k+hBy1XD9sfWTtT9PgPZe41o7gTE08IRT/154YaoIdro6HOXiRwLGnPioawKQ0m1CaoQMWVgEZQJiVCKjqH2t9RQO8uhSsiH+XkdjhmiMf4rHTISlEgc34Bjv5OiLicRmfUyqow1UMygRl21DvGrlcgPO4H8RYU49oYJfs/7Qd+xB3Ih9YcHRG9tRVFSIkr8smFobUCU2IzmMhUSUxIxvv4Ytsyl/sZbWLfX4MTb5Ch3iG32KCNVyCxT2O1jmDuF9QS0ZSYUlh1DScAF1G2KR+Lz2yCP2wOZiDqxFDmKphRC31JLwsCM1n1qqssKiOqp0wxxE/ZZLZTLsnHhOT2ajTTAEATNRmqbCRYENJdARp1Vcx61y+pw6lBNUEyj+AuUdF+NwBZyvJc0WLtaA2QZYaqPguhSI3WKciipg241pEBlqIMpLBp1q0+g4UWh3XTi2IDozdXUbp8/BvnbDdALou1sHbKpbcrT/dBanmJ3kN5m6F43QltZi2Mz6J3D6xAtX4fCOGrrEdcnyV2Yuo4arAuOhymnAzWpYhf53YyiVSroJCWoMwkdJDnwHAXikzMhbSV/4q4D/4p8RUIhsMkInSBw4KaMSBSmzNBC93YzMvLC7GFYGmCovgAZ+bnrvM0I/JfN4zdroFmih66xBGIqV83ycGTmyJD4TopTxxNwfTmRuBRkQ8MbWkQXU0e41w+mCjXi0ynfl9vz3UKDyfh0IZ9r0RFnz+f81YlUNwNxbK/cTedmRmOWAupG8uGHBIHjLjwF9QcZSKwgW1Kvij4zjJVGiJZRPaT3dXSlo5KEQ56Wyo3y/biG3lkH5fRw6jPC3Nd1kbtyF2E8qQFTZTlMBUKeSCCmumnYSP1Om5LEcgPkAZSu36uhbLQAs4dIuts25yqe6/PPbbydBqgoHnO6Ac0HoxAgTCxkJVKeZCOwqRCJyTIanBhQZ5FD7lA5rVVk0zQFihbRhU8GRDdsfxyG5lfkVK/CoanuQAqJaFt/nkR+QNxKbezOzNveXSKHGrB2nwnRm2psAkdAPC8DGUkaxL9jgOm3GRhfpYVRlIiaF2V2pThXhaJ941HXIyaJJIKs4BhMeTQadsw3SxJSIAvQoVmQkRFuMvULHbRHA6Gqz0CUbY+OGGGkSlW7o6ErbyQn4dgvEJmCzCV2+xAghywUyKaRJO6ZVUrGMxgP+W/zIbeN8sWQU4cZuK8ZrVTVZZfKoW2UQt1Co11HXZam5kO1dw5071CnGRI2bMiCI62jdqbPImdra0oSKHLUiN6XjfLD1PnECW21ldqqkUaZYnv8OdQhh7bCtl1ohgp6crQisRgioZ2KosgZhiO/mNqnNcXNshR1UmU6XFiiRT6JEVv002TI3yiH9mkd9OdJJIntT0qfyrANZmwpjJIjTKRFaxs59AjnWYmRhzkk3mHIOGSC2jsAYpugCYBsdTykf6QO4CtAPpxw7DRiHXXGHasMMG4Is8d/3E0ZkbBRrg5D0V4dDf7CEOUtdPjl0FPno0lwkYNu/VeU/TmRDGqywZZcbwlkMVJYyk9QuQBhI+wRAp/KJhFm93fS5EREbTQ48h0wvkn5nKBDflx/Pme/mAhtCvnuYjlShsxnEnl/UEJRKUHRoRLqoIVrFvfhPa2EZIkO5SfV2CJ05OeN0B/2o85VRs87NrdJVch/Jsxe74Q+JZn6lINGtFJHLHJX15eNrNwtEgWJZqk9Xy11ML5nRnReJuTTRLZ3ol7MhGKvEYYhUu+2zS1zEY8z1Ie6i7ezSgODWEWilQSOUN4TKR56XifJgK6+ECXLFJBtIqF82EIDJiGMVhgMzZBSPyzUwdYB0XUO1x9b66Dda4Isr84mcASE/jx/FQnkfQNF6e3l7hI551thMosgmT046ZJg+l5psjVCtJGYmCa3Z6iDgAUpSHH83UIqvySnEIYmEy4I9dvbAjM5/Wir++gtJorDW4o5MwdcpO+SYKqAX5moudhFjjhAMqiCCeraYh1ypyjD3B6og5IMbCoiETn1HqqLVB/bTqD1UiMyJV7IdHpNLOmg/7sROfQ+ZsivTefbCKC2ILZQW6D3z1NbOS+GZMaAznaiFPJVVzcOW9BakYn8t+tw7GyP3dNcMtumz3vcpYtGsNQUERg32JGLKLGBViNMZ4VE2K8FThuwA9t7YFt0Ejk3EOZwmBu1yHhNj8bWDns6KC6z1Y2rvnQM+Unkk6gkGnL6p+lHUkbSZBUN3LKhPZSPqDigrrIG45dpIXdhq3v/5RA5UwIQOMB/ioSsEuqM++RfQzJjQJq9RQPyvcMmdjqPxmP8m04vkdA1dWLIfDZVqhBf1QAZdYwpM65ddR/ePBWUszW2Ga8tBWHorNahLiAFdTFCwuypEs+WDupQJULDqTChw9anuKnr9OZIyl1EeXKtNQjt45JT+3Bur87pd2uH3/XxODOCeE/QgNxyvA7h929zelkE+VkzsCQRyiWZyKiqgyVODtFxA/THpUh883qfcWK4/rizjsqHBher/eC12unFmSZ0Ut5L7oACubtEzlAM3GA1nFixNiM/WYlySSH0TWr76IjUpDAF3TrMazcUP3Cv5Brzr85EBXTf6IcZOd8s4x1/Dt0tmitUkGeZoCqvhX6ZfQTe+cdYSHbcSDy3Y+BwC2Ge1kD5lLDcpEfDQcdoWzgNF6Uf/r2TdWhdlYjo9wqR/aYCNc8NOEHmroymJUIVlw3VPiMKYwDde35QVMqdJdzwjMEGVemLDTixI+oG3rCgudECZVwgdCTq6uJKIBOPNDwpVE9HI79Yi7qcbBJLDZCmFI5gVmokuTh+xOUu8r6du9XHX/vbLcdD+SJaUIgT9RlDzqTIk+XIeN6AukskYKr0aI1UIsXVTKW7yQNvMVTGC9gTd2sm3wp3V3dNqlU6xYJjJ0kdxl3Nfss1hSuovvFSYVanFa3kqySOsu48TCr+q3ColhxD42kxZDscAkfgK/v0/UgQBUsgtRpw4jRs0642rK04QeZIaATIBy6YewVR8Byqy1ocOw6kDDg9aD7bCdG0ALd1WSKdA1QPbmfoFGZaaZQ4UwxModGhc1u1tMLwByNECRkQNTbDEpkBtUPgCO34WHP/bOiwCCPPYBE6KGwz+mc+zG2t6KB7c2aMOBtGNUxLcwMaIIN2w9XlBMqS5mP2GebhmJsJ7d4tCKzsQVi6Ctsi67AlQjTCMhJDnpoIvxQddPtEqAtQwDjPdTR3h/8iGyifTcdPoBMDTstd6qR8CoBEPNR7Iih26LFnWTMCYmRY+7wMDW8r6P2RhReQRKKaBE55hQSmpnAodw+uZ+avTBC6gavvdwrTejNkthktkZu6flPlPiWQnjXD9NWAWC0n7Et6Qyxrum1zIxHoI4h3jrAyUnEMzcJJwmv7yMzoPCscenDUuiVKxEMFw+FGSAwmyNKVLgXRnOH641V2H9HwRSv5iP7ysHSSHxBL7tgJxrtL5HhHQ7lKCu1uqqxxWts6XueRImyrJGW5w5HJCVSZ89TIz1FAmhWN8af1yEjPRGtSAzIExzvRTAq1EeYlURCdNiI/qw49VNaWb4TpvgD73OwlE1pPmyGbJh7c8OcqoYzSoDBPg8S3SShRWM1v5qP8qzCoU4SpOvMYZArD3AQhKVDFFCL75WzIK7KprttPOyWuNkJmOIbCRcN7GInQaRSoUVSQgvAccu4kYMpzNGiYqUS+8K7QVpOprb6eCU0MjXRn9uBY8Tqo3hRDsyoDUdOprVU1oPErNSTThA2w1NHTAERk7kCnmSKYYl/i6DS10vdAiMUDY3d07DR6zq6OQqFwMugsteViI/yS9PalmhEsPw/m1sMUTQ+ExGpEQ70ZKXEimzPPqOxAIPkF0zdCJzJEngodKX0CkjXQHo5GYmo2ouoLIRthGYkW0Sg6QIbsHBGkm44NPUPh1n/dBN5O5eT2dJSI8lmJwOXbkFEWDU2qFOLzzdA8m4hsyxYcM6qG3ochzFCIopBflo/GRWqqS2GoeUYysvCm2DcgKzflA5SnuhlOYTdpkV8ls588PKlFIZWb9FmFXXK7qeuiL9yVu6tskCE+TgzVG4UwxuVDPqUDdTuKYCRhMVQ9c9vmRiJyRhBvAPWhigIV8jcZELZDOAUlnICiuvNGADTCoQExPTRRhpRl47H2D9kQn5Uh09UeMEdYQ/bH3lEkdIT+PBNFi3TImCeG+Xg5MpPUOLGahOPLd+Y3se4ukUMNJCpPD713JrLjAqE205WAcMTnGVB4dSd2QAq0VReQ+eI6hAd22BShbJUO+pww28bALa+rsHaTHIF/EEESFo+MYh007yVS5ZEjerwBDc8poQpRIjtSCn0WVdxBoyIpMsr1sGwiRxOcbVuvtR3pfMfg/jQKw9xVSKAuN9rq8rpIP9vxZPFMEia79Q6H6QahnVVTO9u0DmEPUTvz9oNkUQp01fmIsr1ub6s66zrbRt7M8yIERsiRXaWhDpluP1OE/CY1MkLHQz1FSm00H5q36f4SFdSRSqCRnOlqGh1nJUJ6SAltU/6g6MVxJaihwU4mOc7A1RbHsWEtavLcnc4ZmlsOc14mSl5sxbrVgRhPXVxYHHVIe7U48XQ81qWEQ/TOMZQsGS5vSWgVa6EWZio2RqNhr2JkZUSdhZJESlGBH1TJw+3/uR3+Szq4nBoVbt8QLSlEzdsiZBbEQ/I81R2RPa/0bwwjcAYSkoE9OxoQvVFpn/UaUXgkrlYr4VemQ9SqxAF7Viy2PWqSVKrHh9YiPP0YTBY/hCWVQPeio5N1V9fdlvthRF+XCDFSqKxPPJsJVagGZmG/2vP5yFhUh/yhxLTbNjcSRhCvLZ4eagfZiJ6uhNkqhiQqkURgvl3gOPJTlkRl/WQRTMIgYKgfyx2uPybCcozQ3y9sNpYg+6zwkzBS2/1reX8HGHuR462A7sKArYjepNzJecrzhn5FPE+NPfX0cXFPQpW3lj6DmFuLjpf7v5Y0XUD/EyU48/2AZ2nEtOXtBmxxHTNSDD3XNjkPfY1hRgf5Gxdcb9SNyMeJ791cmxKFjL21yBhhXNKXG9AzoJ2II6iN1amHfoHaqmJHDX1c3BNT3NTpO8e9p1XR325/W4Mzvx1w84Me9McmgnQVdW70cR23HHs6etxfG4S7MGUoMQ33fgBkeTU44eSbog6egWqIN5zzFBOjUNjcg2sWjKiMLOj4phPihEwkThv2QTf+i/zjBrJng/trg9LgVE4Kt/lO+ZxE+Zw0RD4749wHCDal6tGROsCGEYRn/saEnhnCHibxgKsBUF+rVylQ7Xb97vB1fQTlvsRFHxAgR/5B+gy6OLCO36gdI+xrRhCvaK4KJUYVnHrKwSwqxJkfr89z6e+Ooed3A6wapj+GdwDkv9PRx53Rt48xFzleXl5jbcKosXTpUlRXV4+1GQzDeAoWM1orM7GuIgDrDivu2A+o3VNYLej8Qgt1Vh3Cs45BxpsnmQGMucjp6+sbaxMYhmHuPiwGKAOVMIijoXpDZ/8xP8YJ4VeZJVjXKIHsOR20z/BvlTGDGXORwzAMw7hAdP0yDuNMAFTGniGXCxmGRQ7DMAzDMB4JixyGYRiGYTwSFjkMwzAMw3gkLHIYhmEYhvFIWOQwDMMwDOORsMhhGIZhGMYjYZHDMAzDMIxHwiKHYRiGYRiPhEUOwzAMwzAeCYschmEYhmE8EhY5DMMwDMN4JLckcvz8/HDmzJnRsoVhGIZhGGbUuCWRc+HCBfzb9EdGyxaGYRiGYZhRg5erGIZhGIbxSFjkMAzDMAzjkbDIYRiGYRjGI2GRwzAMwzCMR8Iih2EYhmEYj4RFDsMwDMMwHgmLHIZhGIZhPBIWOQzDMAzDeCQschiGYRiG8UhY5DAMwzAM45GwyGEYhmEYxiNhkcMwDMMwjEfCIodh7gHaKtKgynsX7b4q7D+SiwXDttxuGFJ/iVz/Cvxle8ydMvHuwvou1HPSgJ1noZGPtTGMe7pRnvJL7JpZgU/z/kXrLHNb8FCR04vjVfthfkKFBQ+P7I3j22VYWr0YB/4nCxFXc8XaBePmBGz8NBQFFaVQTL9tBjNMP99okTS/GEH7/oqihfTd2gJ96buAogJf5sRgkotWe/FTHd71XoqUx3xvk1FdKHsqHFkfT0XqOw0omO9z3f3yVdHIqPNBavlfUSDY/dFL+I8ULbqsrkMM+o0Rn6YcwZInC3C8d6h4faHYdxqaJ+3f2kixLMlrQtD6Ovw5K3R0ksYwjMfimSLH+hnKt+2Fz3+NXORcH4ZD4ByNRHHFTshZ4DBjhhkXL5MoCHkUk5y1hY1ufLhnKyrmxtxGkWPH39+CmopDeGn+UkwaeOObA6j6wgf+E5xeuC8U6995CylBziGJIJrkD0x4FLpPEmH5yX71yDYZstqfxoH/Wgl/2/siiH/ueKW3CeUVX2NB8lK0GLSoXb8Tsc7xMe4RRKdnen6GuY6xr+rWD5ERuh7I2Y5Jxt040vY1vsGjWLN9O5aaipH7ThPavzFj0sIs7C5SItjm5HvRfrAIuRo9Pm47R47yEUQsT8dLWUqEeL8L9dw0GL7rhU/SNBiWl+KznUtpCKjHq3kaGD49hS6LiDqMxUjduh1pT7jqFJwEzkChROLniCYH2ys+REsXjTMffhSLV72Mrb+JxKTv9FDN30xpaYA22f/aKxcPpuHxzb0o+LgMism3OT8Zz+Iy1eeINNRQfe7d/EvM3qXCnkHLVfYZlKy6bvS+H43ZFSrs/5+N1+7Vbk9G7v56tF/2RfCTarxWlI4QmzAYpg0NIxyCFi6B5X0d3u1aipT+Ko62ygM4FRGDiE/qnd4gkfJwEIKGHCSQMHq4XwFNFeIWieE/nd5xevJirRaG7hi8QjYekaei3JiL2KSRijpq0xnUpo8vxp4Kyr/Jw6S/98ba8cXKVDxeFGRbRrTNAlvrkTtPgbJfvIrP3lHZxdp3OqycV4zgfZ9j6+wWlOVtRdkHn6H9O0qu5HHEp+WiYGUobO6tqx67cl5B+Udf4hyJW1/b/VexNXkWrte49hm2stnkyy7rUXb0HLq+syAodiNe2eYoy0+34onkdqQVTYUh5wAsqUYc2viIm/LvRVvFVmSVVqPJ1E33pyJ04UpsztuABf4jsPG7JkrjKyirpTReFmHq7MVIycjD+lhHfn5H72/eir21p9DrOwvz12wkr88wo8/YixwBbxqJVn4JzR4jtk7uhnFdNFTrEtCW9hb2G3fC51tyEP93K3a+vwKa5T7o/XgrVm7+ErElVdgdS67w23q8ti4Vqi1TcYgEjeaDXHQt3IuQyo+x9THYpvt3rVsPQ9B2HGgioSQiobJ9DVambUXwEafR4E/UMWz5tWuBQxx//ddY+9+PomDfX6EgxXXx891IX5uM9EkN2E8jzBR5DlRV1WhPVjmcNKWt+kP4/KoU8SxwmBtlAtXnlgr4zktGe8ZfqY45d+r+SCmrQntsHD5+qgHVaqHWdaOd/t9LosC4LhcHPnkLojYt0pMLSPAsReVvgty0ocWDZ2kGIlmKxOA0VFW1I+U3DhlibUL5f3djcUYMLB85i5zRogvv7v8QouVliPWPgf/yqVhRcQDtSarrxND1dONowRq8fDQGmkpB4MCtD7mRdjxp/gKEbiaxYAIigunCyaM4IgpFUFsTjl5WQU7+pfdoE1omxCBtbi+O5K1B7qcx2H2wwjZD3G7cjJXr0vBayMd4ie7XFqThjxfVVG5GhPiSGPugAKr1L6Aswoi0YOe0+cCHvHj7n3RoK6vAoSKqH13vImN5GjaUPIpDm0NtXt7H+iXKa1V45f3PEfpzX0r/S8OXP9WXjVvqEVp6GPuf9IfPdyTMMtYgoyAUf94ZgyPD2tiOsrRklE7OhfYjA0ImdZMI3gzVc2vgc5DuzyYfn0PpPbMC2iPvUXlS+Wg2Q320F5g5KpWFYa5xd4gcYpZ8pc35CGvwEfMehc8HIsSvcYxsHo5EpMSCD01f05dHULvvALrlpXiJGqf9fgw2qJei4jkdPsxdDIVz4N6hSHvnGFK9/THJJmj8seCpJQh+qxrHvwFiZ199sB0fZv0apX86R40/6zqBI4zQysvbMX9zlU3gCEx6jEY/STosrbQ7xNiUFQhK0qOqTYX1gkP67kPUHPFF/J4YF6Mwhrl9WGYpsXlNpH0mYe4KyMMKsP2M0Iamum9DQ02QeAdB8VQkdpbpcVy1ASHegmDQw/jTUhQt9EWF8/M/NSF34TS86nxd9Di21hqQOtJl4JM6lH0yFQmb7O0o4qkV1H51KD+uwkshw71IHeyeNKgOBmFr5auwTyT0uk//jbRjendB8CtoOtoFBPuj65N6XHxChdRvinHkC0A+H2g50gTMfxmRPiRKsurw2SYR/H3tIQXJE7HA/wCOH6f35/qgu7sXPj6+Dl/lg6Anc3Go1U3+zE3Ec/Mdhea/FMnyR6Cv+xBtGaEIvs8eTyQJwoiHfWzpN7pL/2Uz5RzZSjba7k8ORWrZ50h15OmwNp7Uo/zoLKR+pESIw6cHJ2chpSIa+v9uQZrkHGpruxG5WY1Ymz3+iFCnQ15xCEY3yWSYG+WuETmT/Kde+7vIR0QXpsL/mjcRUYOCY93+a7SZLOj6Ihkz9jsF4hOJb7psj19H91Edcv+rGkfbzsEiXLD2ots6eAzY2/YuqoIzsPU3h7CdRhqlwRVICxng0r5rR3tXN2rXzUTgOqcIJO22DZZBjylppKuFvrIF67NC0fX+AXzsn4gDT7DEYe4svoFB6F9s8aF2RXXcKuzwHUEbGnIViDrnZUrEbn8F+k/TETLfgloS+JOW/QkLRF9fL3KEPTn7SpHoPGDwFmNq4EhT0osj5fvRNnslds91XJqdiJSIIpTuq8eG7UMPINoPvoCVxiYs2PX5gIMDI0j/DbXjWZg/fyr2fvwZepNjcOTTvyHkyaVY8HMtNnzaQuLGBx8fPYeIVLudvd/WY++O3TA2f41uoTi8yRdRnJG2DdokpDJeRs3azfjPsN2InL8YCxYuRsLyGAQNs4zoK5k1oKxJNjxM/vTbr3GO/m6b/PGeiqCgq7aPIP1z12Jr8hGokx6DMYRE3IIFiJUvg3yuv1sbe8/8DW2XSdxGPIRcZzuDyKJ/fG1bPg2aPsBi70fIvqHTxzA3y10jclzokmEJVhvx55xI1ze/cfpu0kL9jAZYV4bqfTF28XTyNSyRVw96zEeigubNDYjwVmLqdwlIX7se/oZSKAY6aG9fpJSdRlHsUJbNQnLy43itVIcjGRvRXt2EYEWubcTLMHcUN3Vu2DY0HL5LkCzfCnUlCYzgc9B/9AgSD4aSoPnaxcMiiINmIVhy49Fco/sQKqra0dtdhGVSTf/1yyQOWvaiZnPMEHvdetFy1ILE2KnQ73wFybJXsWCAeBs+/TfWjkMXxkC0pQktl0X4uPnfsSDHF8GTH8XF//oM7d+K0HT6UcQKMy3WFryWloaqoFxoP1DZZzqs9cial4w2R1g+ISpoj6xA+6f1qD3yIWpLU/HarsUodvZFbhEN+ruPk+3Dp98fsduM+Mv6FhyprceRj/TIVbyCP66vwIH1kcPaGC+8LiyzNpe5nhH8VnsjiWCYW+Ie7HofIYcpQvvJU+hCZP/o5XIX2q3+CHLRqHpbmtCEGBT/Juba7FBXy5f4xvloq/fVkY4/5NvL8NIqOTamboX/O7l25zg5CEGTLWg6fgqIndUffhc5YN+gaydf/JcLI90CVBmC0N78KBTbZ4Fh7h5uvA0NxgcLnkqE75oD0Eu68HGoEq8IImaIo+K3SlcVCRnrUhR9QO1w4GyGpQnbFetRYWiHYq2raQAfxOe8haJffYmHlicgY8sCVJcspfSOLP030o59IhYgons3Pj4INPlGIDWQrk2IQUjruyQQfNAyezG2CgLl28/wucmXRJBD4Ah804K2rv6weru70TvBF0HzlyJV+KxLRNbCZFR80AXFGn9X0aPbJKQl5lpa2oWl/ekxmOrSw48g/dZeXLwozLCHIjZZ+KQjdY8C/1mqR5M6EpGXh7Fx3r8j2LofLScBxRP9sV78tgs+D/vD5+dT4S/qRrttysgRe+/f0HamF5gNhhlV7kGR40MNbgWmripGbkUkXkmehUmOTXHbezfig3IlgoTlLpxD+5kuXJzti0n/NhVB1g9x9JNuKGJF6PpYi9yD56h5UUP7X6FhuZiC9pmFtNJStCesgfq5IBwoUyHYJwYpSbNQ/tZWlC4oRdpjvrh4kkY4azfjVJIR1esdTnCyfeOiOq8YmJcLDR8/Z24nJM7HU5XvaqdOq3sqfEcgUty2IXdBPLYCidMTsL2U9H7BUrjuegUsMH/bjnYXnkbk4wt/fzfGWk+houIzTF1egcTZQU7LUkFITSjGigo9jq/Z4HqWRRi4+ETipV1Z+DxhMzbufxT7VwaNLP030o5J0MyPeAGle6jzj3jVbstkYS9hDsr2iOD/pNq+bPTzRxA0oRunPmnCxYWR8DF9iNcK6mGhDLR8e47S+zVejU/G0SdLoclYTM/2ouvkUbRdJh82fZi8atFj58El2LqcLG/Tosx4DsFr4nHdPmUb7stfVLkG/7nLF5tL85Ayl4TJ5XYcbyX7gsgmGjIOa6OwlDhPg+3bChBbmmH7GQ/bxuR1H2JBWR22zo9BrMwXG/dpUBubhdjJ53CkZDdqL5NpPw1XGRjmxrkHRQ410YW52F/ig9xdyXh8yzlYfKYiNFaFPUUO5+Qfg2T5VGRtjsYSYy4qy9QoUJ9C1rpfYgbsz27dtROn1icj6zkZfN6sQ4qriCYvRsGeXLQrhJMYU1G9cylCMv4E7f052Kl+DK9+a4HIfxbmJ1FjVw8c5ZETeWoFfP90ABFJw3UADDMazII8KQblBdQxfbQCxe8774S4HrdtaARxJj/173htVxAUTw7T+f7Ugl2Kx7DL1b3ZG3CoNmvYpdzeT/eivHUWEopc77uJSFmB4P37Uf5puosfKBwYVzqKcpqwbGsads2twvoRpf9G2rEvFsx/FFnGLxG//uph6CBERIiQ+19AWoHjhwt9FmP9tpXIyEvGo1ofBIUsQVpeKZbWpkK569dYJnoLB0pzkZu3FcvC1qDbIuxjeRyLM0qxNXbo9E1drkTIpy9gyZYv0d7ri9Bl27E7bZiZJ3fpT9oFTftm7EyLRi75OeEIefC8ROwuSkcQlddLw9pI4rO0Ar15ryDrV//HdoTcVxIJhTA7bisjHyjyduFUxlZsXKhF94RZiF2bhbQF9dh5m2YDmX9dxl7keC9GUcvZQZcmJZXhq6SBV4KQdvAs0q5990Hwcmqky4dy5uR4Sz4edMoqaHMF/rx58FMR+z7vFzcL6/CV030bwSrsb1ENsNcfsRtL6TNsqnCRRq+W6cuQHHt7f5yN8UCmq1DZPrDOxaDg6NmhnyeC11bg07UDLpSddTpl6AvFoGvu2pAz/kh956zjdI3jyhoDvloz4IL3UmjOLO3/vvBV/OV/rztXNSyxRafx1YDvPvNfxaftw7wgCKUzG66/LthyanCeBSWX4S/J/d9Hkv4bacdBayk/1g6+FpHzOTpynJ5b/ioqlzvlS4gBf1l/9UskCt5RosBtjAPwCUJKngEp21zcm5uFP5+57oXh0y/4uc1l9BkiuhDl8DZOjkTaTsMAn+2E/2K8tI8+gy4Orl8MMxqMucgJnPrQWJsw6vzl/Vfx8rZ6hL5QhwU+/Wn8/z44hP/4j7ljaxzDMO6x9qLr+P5B7ZhhmHuPMRc5Hef+PtYmjCJdKE8Jx+NP7cWCNaUoXmmf+PasNDKMp0PteHU4so4+MqgdMwxz7zHmIsez8EdK+VnX+3sYhrlHuJfase89ZCvD3HlY5DAMwzAM45GwyGEYhmEYxiNhkcMwDMMwjEfCIodhGIZhGI+ERQ7DMAzDMB4JixyGYRiGYTwSFjkMwzAMw3gkLHIYhmEYhvFIWOQwDMMwDOORsMhhGIZhGMYjuSWR4+fnh39eujhatjAMwzAMw4watyRyLly4gMcee2y0bGEYhmEYhhk1eLmKYRiGYRiPhEUOwzAMwzAeCYschmEYhmE8EhY5DMMwDMN4JCxyGIZhGIbxSFjkMAzDMAzjkbDIYRiGYRjGI2GRwzAMwzCMR8Iih2EYhmEYj4RFDsMwDMMwHgmLHIZhGIZhPBIWOQzDMAzDeCQschjmHqC1TInETQaYxGrUtBZCdostt/WVaIQb4nGsaQuko2Pi0FgNUPopgbd7oEu4iXcfonf33sS7Vzm8Dr9YbsKWthqoAm4yjOGwGrF2eiIuFF+APll0U0G4LY+byIc7Wsb/0pihlQdi2+wanCmWAUcy8Yu41ttX35gbgkXOcJw1QlMfCFVyGG7OdTHMTfCVBrHSfEgOdmDPEvpubYau2AAk16Bjhwzie63VesuQ/V4dMHuM4g/LgO49CyRTxih+5i7GguYKLS7EqCGbNta23L2Yj2ih906Eap54rE25Ye4+d2nFXWNVZ1URsg+lQMkihxlTLsB8CZCEhUN8T1ZEMaQLosYwegmiFoxd9MxdjLUB2iwNRBUeIHJuW99phvH1TGgjZSxybgrbNGwm/HZswQXKSOP0fLQa1Qg43wjNpmxo3muA6ZIIgSFyqHKKsCVOmP/rhOZJCTQhJci4VA5NYwc6ztNILW4LNK+rEDbRHrTlCy0ys4qgbzTB7B0IaYwC2TvyoZhp7yksJ8uRvakQuvpWdFpEkMyVQ/17DTIWiG1TvdF5jTBTIwh8SIvsww3YEjJ22cT8i3KJ2odECQPVb0t6IPwK1NC7WK4ari6PBMsXRYiP00CcVwP9M1JgmPbXnBOO6EoZ6loKEXXVDmsztkVGQ7esASfywgYH7rRcZf5EQ+1SA32TicbRZGtkItQFhVAP6UCpvXYakL08G9rD1JbFUig2aqDZEAX7GxaYKvORuaMcdSc7gIkSRCdlIL/A4QsGLldNMWJtoAqiYi0Cq8k3tJrId4gQnl4C3e9k9vCsnTDmqJBZVgeTNZDC2oIMSTkSy6PQ0JSPsKG8prkBRSmZKHyvFWaRBLJnKMw8R5gWEwx5mcivqEMrlaUoIAzyZ/NR9KIMrlY0LEc1UP22CMbjFyCaEU15Lx++AAWbsxw2IxBhyzKwzingq/le0yT4QxKeMUpkFuQjZXYzskNlaN5oQs0z9pc634yHJL0Vqg/OoGSR/f3GTXMgP56B1oOByHaXh060vhKO8MOJ0M6rQ/YfTJAbhHBHUm4dUO+VoqHYiNbODlyYGA7VDi3y4wKupbvu9xnI3mtEcyfp2WnhiKd8LbxWNxz336D7X1mAKVQuydkoKUiBBFQvpytRLpTHkvHQJelg2quAaNi+hzhfh23pmSihcrZQXZSlZyPcZaGYoJHNQf4MPYUr7x8onxVmaosgNZxAyZLhRy1DllmIaOi+c3AI0C4PpL5Sh0yrDiWHW2E6ewGBi0i0vJHh6CstaC3LRObrejScNtvKIXyZGoU71AgTd9L7Uqx7zwxL9Rz47VXDOLDd3wPcBaaKMN67A8a9jdiyrxWamWKqnFQ5UuQomlIIfUstZbQZrfvUSEyhCljfgAwqYBFZbirTotVgxLE3xDYnuJYqgGpHOI4JTpa+q5Zlw5xuQPPBKAQITiYrEaqEbAQ2CYXUjKJVKugkJagzqSAVUWPIUSA+ORPS1j2Qv9wA/TeBiD+bj46DKpcNl2FuOxMV0HXUYF1wPEw5HahJFV//jNVNXZ7oJo6vyqFMKAQ2GaETBI679rdaibDXNNAdzkfUVSf9hR6602FQpYQNGxWsjchPzcSJJOrsjdQubZ2QEspn8hHePJTztNBIUofs3dSBvyOCiUbd8elKZM+lTmKRCJbDmfT9GORv16IjTkKdSB3yVyci8flAHKPO5boc8zZD97oR2spaHJtB3QB1ptHydSiMO4H8CHIdZSoo/3gB6uoO5M8DmsvUUOUdAwJkNr8zFA1vaBFdLHRofg4bKczlQpgWNObEQ1kVhpJqE1QhYuq8iijPE6EUHUPtbyVOyW1E9qpMNEZqcewwdcaWZmifV0JzCRhK6thsftOCTLJ5ywIROt/LhvLZVrI53v7AWS2U5A8vPKdHs5GElZX84UayKcGCAMp32SLqCKlsLc9QGVN+Nxw+BkmIHxqOUBiLhDrRioZ6E8JTBFHW6jYPnRGJqJ606qCPKEStKRqBVCfdltv99I7FCE2lHDVkj1RkQfPv4yFbrcacVj1SplDZvCJH4jvh0FC6U2aL7PmaJIdS3EptJQDmygwo80xQHmxFXUwADQa0UMVRXk0nwbqB2hb1BZ2hGoQdOoHCeYKl7voeM+WbEvltShJ3DZAHmNH4ezWUjRYXy7ESKFPlyN6og8EsR4qjIpqqDGiYpkD+IjfTssOWWQlkIld95/WM9xb29Glw4m0SMTvoiU5q75GCIFbY6p65eh3inxfKgfq8BHs5ZCclQp7uh9byFKgM1O7ColG3+gQaXpS4iOHu5i4QObBZIV5CjmSuQ4MeL4e2UQp1Cyl62zo6KdjUfKj2zoHunWaqaI6MjiRVu0hs/3uAggSMBLr3SPHnhMGvSgODWEWFQo5USCWpUwWNpHSSDBrtkjNdEoaMQyaovQMgtnUCAdR44iH9I1Wor8iZ8KwNc6/gfQt1udOIdQkZ6FhlgHGDY1nWXfvLo8HEonxk7zOicInC9k6zwYCOKHL2bvfdXIDZTI73Z2LH0hvZ+jvq5H433DsWBCZlI2OR3T9IU7Oh2h0ObXUDdcDRML6pw4UEHY3uJXb7p8mQ/WIitClaGIupc3ERovSpDChm2P8ujpIjTEQDpjbqqEiQ1FTXActIVDlmwcKeKYKaOqZ1fx8+ZYFPCTbafZM0ORFRGw32MEMaoN1nQvSmGpvAscU5LwMZSRrEv2OA6bcZgwM6qofhKylUlSRwhASJSDxuIpFTmT9EzGa7zXG6azN3AXH5UC/SoqHV/oSpshx1okTos6iztGUS+cMcNaL3ZaP8cCFKlkRBtKkBzVYFoqwNqGuaQ3FKKM46kqFSBJynayelJIaE9LW6ycMhOu9LUiRukkNiM9ECw0jKzTsQ8ucE4S58ESEsNQXR5MdrDluQkkD5utcEWV6dTeBczdf8VSQ295HYTFVDkkA2LbJAPMWeL6IQEtQx66BsbrblwXW4q/szSVS8Z7bZIJ8mxBmAqBczodhrhMFFksUJKiRmKaGr7ESKbZaMhMo7DZCmlLidDXFXZrI4XN93DkVkCjKX2PMAAXLIQoHsVhN98YOxjMphiRb5Cf3lkL9RDu3TJErPk8gRDx/03c7dIXIISXB/hbO0nUDrpUZkSryQ6fScWNKBq5VTPFM6aGouYHogqVAThCc6qAAtx+sQfv82pxBEkJ81C2/D3KhFxmt6NLZ2oEe4ZbXAbL33lCrD3FRdvnQM+UmF5Jwz0ZATdW0U6L79hSFRGKE+SyPU8woaoTZCV9UBGTlzt4dJvOXI2KGk0Xo4AvdGU6cpgzxOgcRl0mFmS0WQSgeeD5JAQknrONspLFTZOtbOo/EY/6bza1EwdboOMXBa4ACbSHQJkwaUZ6DRsukbuj9XMmAfXgDCIyjC94ZPmmTGgPz2FvWHeb4VJrMIktmDy8Pm8yopPivFN+C6pYN8mDelceAeEfJ10qG89VWb4wbaTHkmhH9V5FCZYobcIRauJktKgoNy8KsOiJJliDZrUXcaiLpUh4aJUTRonIOGvBo0XFJDXl+HY9OozAeI2CHzcKgdjBSf9Nqs4gjLjfJBOjDbxBKbzcLSFc5TujvNMK72g9dqpzBmmtBJ+SqxtEJfkA3te8eoDOx2Wsxk4zJBZl1vqdu6L8R5SUxlPaCme9vro0smyqBK8oPsbR1Mz2RActoA/fFoKMvcn3dzV2ZXGdh3DoU4QDKofQ2q7yah7gxufyJKUKDVCNNZ4WW3wd/V3DUiR3AKgxCm6b/RX5viG4x5mIAc4VDKRAsKcaI+w5VeB05roHxKmKLXo+GgQykf34bwKP2N284wY8nN1uWTdWhdlYjo9wqR/aYCNc8NcLzDtj/ye3E0QhXHQ0sjVEWoHsZLchoJDvGwE9JVe3AiYQsaD9Wh7rARmmfzkR1WiLqD6qE7cjeeSvpiA07sGGJzc4fry8NxfTd9G3Z8D7VR1Or68WHkg+vnfxzpk+OBKTLIwjJhbOwkMdAIc9QWSKdIEB2cjbpGCwLrGzF+kco++zCEfW5xkdZhy+2I6/csA+P3FkNlvIA9ca4CsKBuUyLWHZZRPW1Fim0WzQJDih+Uw9k5XN0/qxnuTReIELVaBembOpQfz4CiWo/WKBWUM28wmOsY3/9X577TFW57esutGHNXc/eInAGIgudAatXi2HEgZcCpCDON3ETTAq41dPPpVnSif+OeqY0k6QwZAilVfoK6rTiGZuFUyrXRgxmdZ0UImCaCpbkBDfSudsPVqUCgs/mYbVTFMPcSN12X52ZCu3cLAit7EJauwrbIOmyJEI2s/YlohJosRXSlDroWAyzLRrD356q95822DaBRCSrbZ8vqbIQv0sJwUj3k5n7TaWFq/aoIc4w+Y4SZCxrpB4tgOn6CfEFU/0zSJeqsrQGOpZEbwDsQgQ9RDGc7yO1fPVXZiWNftN5gQAMQZjCmWHDsJBkdd3XIZbk2Upd4D+5iRNOFUXTd4FH0SSpPC1z/3g3ZLAkkLfeVaYDNZrQK8TmQSOcA1a1opTAkVx1opzDDJIZkphBJAGSLpMg/XAOj+QTCksMpHDGiqT7oDhsgru+BLCf65vPgOkZYblZhxof+vDqrdd6EDrPgwwNtdUhC+doglE1cf85YOikfxBKIvU1obOqAJEHtEDhCeK041kKZEOraKrd1f0ogtTEzTF8JU00Oqy0nHMuSQyR1bgpUkfnQlmvRc8gE+cZE9zOeGEmZjQLCLBSVQwfVFTP6Z3PNba222cQ5M0YnmrHkrhQ5CKFKEUOjy5ezIa/Ith3tM1VnI3G1ETLDMRQ6dvujWYf8SjkKk8hxnNRAU9UBabrC7gjIeSoKVMjfZEDYDgU5EscGxzcCoGnRQTGdHIPViIZ6M1LiROg8rEFGZQcCqahN3wgVlmqVN6nlDmpkZjPCRGKI7snju4ynIxpJXXaFMNtJn4BkDbSHo5GYmo2o+kLI3LY/e3hhtg3I+chsCYSqWjayWYaT2yCL0mHObj21W2GKnDrjZnKoInK2Q3p+EgTlRdAuK4EqRNirUATd8UAodgibnEWQpyoRuHwbMsqioUmlMM83Q/NsIrItW3DMqHI9kzskAZDHhSGzgPzJ0WhkRAibNrOhbaHU3ezv7HhHQ7lKCu3ubJTHaW37RzqPFGFbJSDfoUT/LhcHEXLIp1GZ7CiHYncKJJcaodlhgMl7CJEjCJQ4EiA5GhQdIZvniWzlpW3EtX5YkqSCvECNooIUhOeQGLa0opyeb5ipvLYBVrooGn5vU7zmOVDtFtuuhcVEoyOnEMaz0ciMGU0HOMJys16A8Y9FaAzNQJSYfPgODerEcugEm71JaNvyNRNFi3SUbqpNx8uRmaTGidUk/F8mQRJIHfjROhIKYZDa0pyPRvLl6LRva5DYnHoHCc5OmEkIid3WfRni48RQvUF5EpcP+ZQOsqkIxksYZoZLYl/e3ZgJjSgRumX2vIW5DkU5RoifLbTV6+veGkGZ3TpiKodE+D1Faa6OQuEyie334fKLjfBL0kMutpeVsLzVaWpFpzkQYrHonvpJlbtT5FClUJcbYdmUjXWRfrZjfOKZ5CjIMdoL1z7uCaRKEFa/FuHPC6McP4QllUC3weEGAlKgre5BZlY2oqcrYbaS+o1KRH5VPhRiuj8vEyUvtmLd6kCMF45cxlFl2qvFiafjsS6FRjHvUIV+SkUj1XzIgg1Qv3OiX1wxzN3ECOry8EdVydEVa6GOkWHtxmg07FW4aX8OyNmqYuiZv9Of80Zo6+wM6pQuILM4HpKnO2DxFiFwrhzrSMSkuBIRQsdBI/vE5+Vo3RSOQOHYuUhK4kCHbIctoiWFqHlbRMKEwnyewhTZ80D/xo0KHDuS57QoaVVh25JAZAtHwVflI/vpE0g8eBOB2S1EVJ4eeu9MZMcFQm2mKwHhiM8zoDDVhbITyZBflo8LGzIQ/pAKohnUmedlQNm4Dh1D7HmRPLcHWtNaZCZIkG+1HyHPfj4cDeU99uUdmz+kfN+0DmEPCfnuB8miFOiq8xF1NTgqB9mlImgCtiDaYZYoKgrhp7WoE34sT3yz6R8iV0ZSbqJwqBIsKIz7he2YuWgmiYVyjd2HE2EkEvT3C5uNJcg+KxzNl1J56aB70d4PKAsK0UjiPfyhfIhnUB3OoT5imQbyFOoX5CLUGeUUPpVJuhThVYWoNajc1H0RUqitnHg2E6pQDcwTqS4+n4+MRXWU70OnNSBBCTkNuBuTUiC7OuNpboXxTS0ClrgWOW7LbJRWHcRxJaghAZ6ZFY3A1RbHUX4tavKunkyUQrFaBm1WIqSHlNA27bmW//cCYy9yvOXY09Fz/fUpUcjYW4uM6+/0Qw5IVVwL1etD3J6rQgmNCEpc3qXRT14NTuQNvhp18AxU175tQW3HluHtZ5jRZoYatT3q/u80Yi0xuWgj1xhJXR6M9OUG9Lw84MJEGsU196Dw6veRtD8rjYA7RIh+VjX8PxvgrYDu+6v2iyBNps4tuXC4N/oRCe8q7H9/RgHXb1GYSRRm0hBhLirBme+vfnHhb5x9EIko1et1NFrvFxONNAqHXwD8XIXvyoc5X/OWQE5CR+5URldxLg/xggzompxyP2mo0rSHryBfqCgeeFGNnhcHhBmhxp46tfOb/ZC4Kvmmb7C/nKJCzfdO8Y4kvU5INlD6NlwX4fDl5ngmYNEW6JOH8MPeAZD/TkefId4OUWFPE30GXS3Esb/3xyl9+8TgE3ju6n6AHPkH6TPoYg+u5eyCwgH1zUFnBzotYVA9PWDGk9p54QYDdMMs8w5bZm7y3BECUgw9TicMna9ROayiclg1dDlIf1uDM791E9VdytiLHIZh7jksl0yoy1FDY1FBv2okOwzuHcwViZCkd0BtMCB7UQAsR4uQX3kB0Ztc/3AfwwyJVdgjVIei9HyYlmmgHjhjY2mE/hMJ1asxs+5fAhY5DMPcGIczMUeuQU+IEoXCcu4INxzfK4iTNdCdViP7aSmKhCWQaVLIntVB+xz/vARzY7T+PhzheSZIlmVD97pi8GlsURTy68bwnzv5F+EeFTnCscGeIafiGYa5jSwqxJmeES433ZMISyD6IZdAmDuEq2Wfewzpy8cGLwszd5x7VOQwDMMwDMMMD4schmEYhmE8EhY5DMMwDMN4JCxyGIZhGIbxSFjkMAzDMAzjkbDIYRiGYRjGI2GRwzAMwzCMR8Iih2EYhmEYj4RFDsMwDMMwHgmLHIZhGIZhPBIWOQzDMAzDeCS3JHL8/Pxw5syZ0bKFYRiGYRhm1LglkXPhwgX82/RHRssWhmEYhmGYUYOXqxiGYRiG8UhY5DAMwzAM45GwyGEYhmEYxiNhkcMwDMMwjEfCIodhGIZhGI+ERQ7DMAzDMB4JixyGYRiGYTwSFjkMwzAMw3gkLHIYhmEYhvFIWOQwDMMwDOORsMhhGIZhGMYjYZHDMAzDMIxHcteLnPb/kuM/yxfg3doshLiy9uOX8MSqr7H+kwqk+NP37nq8mvoCSo+ew4KCY9i/0v9Om8wwo05bRRpUee+i3VeF/UdysWDYltsNQ+ovketfgb9sj7lTJt7FdKM85ZfYNbMCn+ZxftwTfLoVTySf6vfrDHOT3PUixy0h6dBUWBA02f71Yt1elB6fha0fNSBlug/w7Yco+3QqUhJC4SM88NFL+I9VX+K5j4xIk1wNpNfWiazM+xrykj9hayy3KmYM+UaLpPnFCNr3VxQtpO/WFuhL3wUUFfgyJwaTXLTai5/q8K73UqQ85nv77LK2o1ZTjNKD9WgxtaPb6gP/h2chNFaFlzYpEWKLugtlT4Vj+/S3cLJosVMA7ShdHo0/SvvF15HNv8TKNjX+bEhHkOPdrI96XUYf9BsjqmcV4/GMD+H6CcJnMYq+oI5x8iilmWGYe5p7X+T4BiHiif6vlu5uYHIoQkng+FDquoy7sf2jRCReFTnXMUDglFZh68Lb2EkwzE1hxsXL1MmHPIpJLitxNz7csxUVc2Nuq8g5uiMZqsogbNj2FormBWHqfb1o/6IaO7dsxop24M/7lBiN4YFvwk58sMV5xkUE0SR/+HuX4rOF3bAIl6xfojQ5DUdi38L+tFn2x+7zxVQWOCPHCk/oBRhmSO6C6i2IjK3IKq1Gk4kEyoSpCF24EpvzNmDBVY9JVrZXb0VukQ5N5EynhizF+l3bkRLsM2i56tH9MqzY2YLenz7Dilk6hMVI0Hr4C3TT90elOmyoMmK9U+ztNoFzzoXAIQd+sAi5Gj0+bjtHdj2CiOXpeCmLRqy9eqjmbwZyGqBN7nfrFw+m4fHNvSj4uAwKdrTMaHD5Xagj0lDzXS96N/8Ss3epsGfQclUXyldFI6uuG73vR2N2hQr7/2fjtXu125ORu78e7Zd9EfykGq8VpSNkgnBvmPo9wZUh7Tj6ydeYumwn1stDr10NXqhCcelU6Numjl6HST4gaHrQEDd94T/B0U6t5+yzWsM+75r2ilQkFXQjdV8F0ub6oPe4DrkFu1Fz9Gt03zcVwfOWYkNOFuSScyhTRGNn0Fv4bOfi/oHSt1okLdiN4LIGFCwcoDxNu7Es9l0sfp98TbBwoRfGdb+EqnYxtEdLIbflrX1Gqya2DtXrxTiiycH2fR+i5RuSbpMfwYKEjSjYkoggH/v7bv3jANqKZVhyZBmKY/+GCkML2rvM8JGuwEvbcyktQp5RfZqzFb45G9H95lbU/tvL+HO5Cv7fNaEs7xWU1X5GdUWEqbMXIyUjD+sds9oXP9cid9te1HzxNQlMEYLmLkXqllykCqLa2g5jwWa8VtWEtn/QXf9ZVJcoDVlLESSUj7XLnsYKSmMXleDDj2Lxqpex9TeRmARHGispjUUH0NTlQ2EvQ1rSDRUnwwzJ2IucNi02bqlHaOlh7H/SHz7ftaAsYw0yCkLx552O6e5v9Sg7moWCg1kIsnyG19YmI29HDJa+mehoJHZCNtbhz5MVeLw0FAeoI4jwdkyHf5uFL2mUaXv23NWnyclXrEcSCZyEPRV4af7gEXDvx1uxcvOXiC2pwu5YcqDf1uO1dalQbZmKQzuXIkWeA1VVNdqTVbC7VxpNV38In1+VIp4FDjNaTFgKTUsFfOcloz3jr9if7DxT44+Usiq0x8bh46caUK0WamM3daNUh2u11MHm4sAnb0FE7Sw9uYAEz1JU/ibITf1ePKhd2aGOP9gX5+q0KFc8gpS5/T2sDw06UkJuay6MKl0fvISVBdTuS+0CB13vYuOqAnSveQuH3o6Ef6/Qaa/BxjUF8P8gF4nJS7A95wBquhdD4cj+dmMNmh5eis3znabWpsdgvqQATZ9Sbx5MeWT9DEeOTkXIw0048gUgn0/PfFePIycfwfy8WbaBkbqoHYp9DTjwhD96T9NgLHk91P8WiWoqJ3f+8bqJvftEwBd7ULHwT9hfGwofEiDlz8QhPSMIfzYIvkoE0X3nUFvehPWaBrwi8aWybkdZWjJKJ+dC+5EBIZO6SXRshuq5NfA5aETazCa8tn4rTi2rwp8rKH8giBaye2MxQmtzEUTPbjzoiwLDX6GQ+OBimx65qS8gN/hx2yDw+Ou/xtr/fhQF++g+DUwvfr4b6eTD0yc1UH2mPDq5Gxs3V8M3qwpfriWbTe8iV/0Czlkjb39lYDyesRc5l83kkn3g4+tjb7CTQ5Fa9jlSBz0UidSsRATbRkExSPzVLJQa/oZ2GjnenG+1oP2dNCRp3gWSDdgw37nj6EXtvgPolpfiJeoAbHY9HIMN6qWoeE6HD3PJ2aWsQFCSHlVtKvuI7bsPUXPEF/F7YoZYFmOYO4tllhKb10Tal5DmroA8rADbz3wNQbC4rd/XrXr5IDbnLWzduhXbl/8Sef6hiIh4HCERC7BYvgQRDw+u9d37kxH4JxdGUZv1l96GxI6Qi58XQJXxGRbs/NO1gU2XcS9qJinxrprySvCI3kGQb1JDX5kDwye5KJArEV+QBkN1FxS2gwwkgg5+hmDFq7aB1CC8Q7F4/lRUfPIZelcuhc/JejRNWIzU2HqUfdoCzA9F79F6tExejDRyXpNCdqF+gQWTJttt8Zm9AolPbEZ6y5f0LWiE/tHZhhikrnUsz1NaBJGWt7YGtV0qpAoDMLJ50kIVCVOHUD2pR/nRWUj9SIkQ2wDNF8HJWUipiIb+v1uQltGNi92AaKIvfG2B+mPBRgP+4pgwbKebFu+pEE2w14FJwYkoOpJov2mtR3l5O+ZvrrIJHNv9x9LxUpIOSyvtg8Te2kOUH8uwf02oXVxLluKFFB3Ks26qiBlmEGMvcuauxdbkI1AnPQZjSAwWLFiAWPkyyAeMFOEf5Ji6teMjotHKT7Cvy98MP7Wg3DgLL+WooC94Aelzq2jEMXC6+2u0mSzo+iIZM/Y7vesTiW9okIbHlEgM1pIjbMH6rFB0vX8AH/sn0miMJQ5zd+AbGDRgj4wPRFQ1e63Clt0R1G9XW3t8abCx04jUbe04frQJTZ834ahxK1bmbUZoWim0WTHXZoB8l7+KAxnOgr8d5evXwODG7u4/rcGMSuerIsQWfQ5t0s3vObKc1EFVpUfXcsOgwwWn2r5GL4mRJf/2mtMbJOy+FZaIYpC8zBcr3jmA9pXpCDK9i5qTjyNx1yyX8YQujAG2NKHFuhT+Hx/FxbnpWPpEN3b912foQijajzSR2NmOSMH7Xj6Fd3cWoKLuS7RTVIJH7u2mMnoSts3VPiPxj84EOvnLh/0xHU049y19ccwyB/2i39/1nvkb2i43ITfiIeQ6BeUbdI5sIkGWswKqLTL8R8XjmD8/BrGx8Vj65CxbeQclvYwNtWlIn/dLBM9bggV0Pz5hqV34fteO9q5u1K6bicB1ToFL2tFFotfSTsI7yLG05cBf8gimen89dBoZZoSMvcghNxy7zYi/rG/Bkdp6HPlIj1zFK/jj+gocWH+bpivvi8RLe0qRFgzIJ5zDsi1rkOVfhYLYwQ40WG3En3OGsmEWkpMfx2ulOhzJ2Ij26iYa2eW6PubOMGOBm7o4fP0ehglBCFkofBKRuvFVdB1Mw7J1L2G3/GO8NNfxzKRHEDLbWQSIMHUEYwBf+XZUb3K2SwTfh29tU3XX0RZELF8MVL6C0qTHsX6uw5j7SAg8kYs/H0zHUDt7Ip5aieD9B1B1Mh3y999FW4QSConrZ30iYhDRrcXHpi5M/+RvCFkeiUkR3QjJPIQj38Xgm6MWLEiLJAnViyN55Hs+jkHxngYoZgvp64Ux7f8g/Vpow/tHl9npXO5WXH8azVs0+LuwLNpc5mIGz05w0k78Wb4RRz+qx8cff4iyjCJsD83FgbdVCJ4cg/Xv/BWpJBQ/FO7XFmBFkQapZVXYKszaefsipew0imJdh33EYaOzzTc9iGWYAYx9l0wjy4sXySf6hyI2WfikI3WPAv9ZqkeTOnJIp3PLOFIelLwTWlMyVq5LRVBlBdJCBLfxCIIlIrSfPEUjr8j+0fDlLrRb/RHkcAT+y5WI3V6AKkMQ2psfhWK765Edw9xdjKx+D+Kbd/Fq0RHMWv/qdZ27f+ijFEa9bUljVJgk7P8Z/bYUlPwqtNseRa2PHKr1BXjsYC4WUFpn/eIRoOpLHBdOsF3bdN2Nrm9F8L+6DBeSiJS5RSg36NDz0deITVs69Eky3xjEhm2G8aNDaP/i37Egz9c2CxY5vQBHSai0mx6FXIjYegqff3EOQXKVQ+DAdu3LVpIkV5f03PhHl7+X9G072imIqwOuXvre5R2EoIddm+vzi39HsHU/Wk4CigEnVS9+22WbBRJyoPc74dRqECLkSttnfVIBlih0MJ5WYb2kGxetvpg0O4bSQZ/fqDH/mceQVVGPl0oo3skWNB0/BcT2l2lvVzt6fYNspwWnPjwVqG23bT+4OpvT1XbK9hMFDHOrjLnI6apcg//c5YvNpXm2zYw+l9txvPUc1fbFg6YvbxphxNL1NU51dyNU5Oti5OOLiE2lKGhPwMY16+FfVQrFdB9yJiswdVUxcisi8UryLExybPjb3rsRH5Qr7eJrsn0DsjqvGJiXC830UbCXYW4Ubx+MF6p5O4mW7qnwdTvhMcL6PRD/RzD+VBqy1prRtVkNeUgQxN7dONfWBP0uDVqCVmBzxO1J3qhxn/A/X8Tm7ESaIgEZWyJRXUJiRdhzs2s9Xst7FyE5wrKJY2PtPn+88j+lkNvyMwjxtg3IW/GWaCk0Tw6Xyf5YMH8Wtldo0TZ5MVID7e9HRIhQvkeH7lAlCmzLRlPxkL8IXV/Uo603FMGWUzDsKMbn5KeoMG1nJEQ34x9/qkfZrnryazHwv9yE0j0f2vzTYkGVOc+YCMwmATdPg+3bChBbmoEFJIbaPyiAat2HWFBWh63+u7Ei/gBmbS/D1mXCElU32o63ocvnEUz370bt5mhs7FoLTWE6vetDoupLtLRb4L/wEfh4hyIlaRbK39qK0gWlSHvMFxdP6pG7djNOJRlRvX4WgmMXI7hIh9K3lHh0TShwUoftlX+jev3oTRc1w1xlzEWOf9IuaNo3Y2daNHK/tdiOSAbPS8TuIvvUcfsthh+5fCUiDxZhxbwaGgF9jK2uHqJRjqLoLXyTLAidrfA30AhvYS72l/ggd1cyHt9yDhafqbYfPdtTNLADoM7iqRXw/dMBRCQNM7JjmNvKLMiTYlBeQB3iRytQ/L7zzorr8RlR/R74QijW738PD5UUoyLv19jZ3mXbEOv/8KP03kYKS4UFLo+e34VMiMRLu7LwecJmbNz/KPavTETxPgtyC17BsrA0dFt9ERSxDJvLXnYIHDv+8kTEkhA6uizRbVqDFi6Af8FruLiyfwk7dF4kuv7rAIJJfNjz2BeJW3Lx+foCLJEWw3d6JBQZ20lAaaFMK8CyFB8ceHt4/+gSyQok++uhWpCGtq5e+EcoUbx9uN8wCkJqaQV6815B1q/+j+0Iua+EbCFR85Lt9Fg6vW9GbinVlfVUV2jgODVkMZ4m4aUQNkznvIXncoR3i2z7ikQ/n4UI+XZo19t/aiAk40/Q3p+DnerH8Oq39iPm85NKoVE7ZnZCMvBaQRde3pmAR/NI+kWswHq1El++cBS9rkQZw9wAYy5y4O2P2M1l9HF9W/iV069+M8y1+a/i0zP99/zXGPDVmv7vPk9sQGXLhgFvv4q/uFJOE8iJHzw94Hd0fBC8nDqC5cN3GBe/bYdl+jIkx97afgGGucZ0FSrbVf3fvWNQcPTssK8Er63Ap2sHXCg7C8WgJ3yhGHRtZPV7EJNpVJ5TRp/hHvJH6jtnhzj9E4S0g2eRNuDKgu1/xVcjetcF3iRWjpzFS24f9EVK+VmkDLw0Ox2Vrf07X3xClCgop89wwXSdQ1cv5UHKCE5QhmTh0P8OPh7k8+ROnPzfnYOvzVai6H36DLqai0Ot/eUSPIx/dI0YoWtzUb3WxS3vxShqcVGXJkcibadhUNkMsBLBCVRXEoaoK8K7JUO9C7uP31hKn6Ee8EHIyp2ops9AUpYP9TzDjJwxFzmBUx8aaxNumr+8/ype3laP0BfqsMCnPy0lmj8iccWKMbaOYZhRQdi421WP0s3FaH9yO1Jnj7VBDMOMlDEXOR3n/j7WJtwEXShPCcfjT+3FgjWlKF5pnzi+N9PCMMxwtGlkWFLUjqBfbYRm21IXP5TIMMzdypiLnHsT/+unvxmG8UiC19fhK+d/D+YuJXi98Z6xlWHuBCxyGIZhGIbxSFjkMAzDMAzjkbDIYRiGYRjGI2GRwzAMwzCMR8Iih2EYhmEYj4RFDsMwDMMwHgmLHIZhGIZhPBIWOQzDMAzDeCQschiGYRiG8UhY5DAMwzAM45Hcksjx8/PDPy9dHC1bGIZhGIZhRo1bEjkXLlzAY489Nlq2MAzDMAzDjBq8XMUwDMMwjEfCIodhGIZhGI+ERQ7DMAzDMB4JixyGYRiGYTwSFjkMwzAMw3gkLHIYhmEYhvFIWOQwDMMwDOORsMhhGIZhGMYjYZHDMAzDMIxHwiKHYRiGYRiPhEUOwzAMwzAeCYschmEYhmE8kntL5BzNxpxFjVC31EI9w9UDndA8KUFRSA3OFMuGD8tqxNrpibhQfAH6ZNFtMJZhmNvKkUxciWuFV1sNvAKGesiCviwZ+o4rMc6gvjMe7/A6XFluGsYuM/rkgeibXYNx7vzUzfD/wnHlYCLGNW0Z/bAFhkvfIbqX3gGvQ3p4zbg90TPMjXBviRy3BCCxuA7hIulYG8IwN4/QUcg1JMQd30ViYJoEiJHD6/lMeM0Vj6Fxo8RZI/rqA+GVHHZ743kvE337KJ5GZ4HTib7lUvS95wevgyfgFTeKA52wDHi9Z4HXlNEL8oZYpaX0BN6+8J3Td0SLPu9EeM0TA0sK4ZUUjb5nNfAy3iFRyTDD4HFVMCAkCkMO6hjmXsE7Cl6HDfbRsPUC+tqagX2F6IsqB3bXwitVcnviFYTVnfAKVUXoO5Rye0WOtRl9OTrg+QZ4TXO6d5I65vpw6pA70FdG+RyXMnrxiiXwWjB6wd0wM8Ju7yzKoPSZ0fc6CclImV3kQASvTdlAqBp9VUrKX/FtNIRh3DO2IsfaiOxQGZo3mlDzjF2adL4ZD0l6K1QfnEHJIvtjjZvmQH48A6159u+WFi3WrtoG/dEOGuFGQ7VjDwoTBKfvvFxlQeu+TGTu0KPutBmiGdFQZpWgcJUU18Zt5gYUpWSi8L1WmEUSyJ4pgS5PBvGdzQmGuZ4AahO2zjmAOi0pjZIVQLAMfRvXAotqHQKoE32/z0DfXqNQ/el56rifzYfXhih7GLalhQ547aX3i43o66Q2M5Ge2SGM9il8qwF9D2UCO7YAQmc1PR/jhBH4+Ub0UWfV914DcIlaS4gcXjlF9ncErCYSEMIsSR09S98jaCT/+0JHR0dU07t55eg7bqJ+j95ZpILX6/l2sfFKNK7kNVIYDbjyENlxmERIiAWozEffDnrnpGAjteekDHgV0HsThQDpPrXlK3kkWjrJnkiKb5Wb/KsnIXM6mp5zntm1oO8NCieGwiff07eInvsqxSEM6LtsDvpm6jHuDXn/K6eLcCVMAy/DCXgtoe9lZMvrerputtu6TE15Sh8xrl/OOV+HvnTKK/IxEEvhlZ49vN2H1uKKgsrsmxp7eLZrFKbC5LhmscdffDX+QKoblE/FW+zxDVyu+oSeW0LvGaKB3+vRZ6LywByyVQevBEdZDrRvCtm3sZDyLh59U2owbreL5bRr6dMCzwqzYWRD9Rxc2Uvpb6E6IKZ8SxqPvjcpjiS1m0JimNvL2Ioc7zDIFgVCU98AyzMKEh4WNBw+BkmIHxqOUINbJDinVjTUmxCeIiNXT43KegLaMhMKy46hJOAC6jbFI/H5bZDH7YHMacbZcigT8c8fg+LtOugono73MpH4dDwyp51ASYz9mYY3tIgmZ2Ha6wdThRrx6etQuPwE8iPueG4wjBtolPxbEiSvK2mUTJ3MBgn6XpGj7x0SLdXUKc6mBvBJEfqS5LgibsW4VOrE7qdrFhI3lXKMo7blJaIO8vfxuLKaOp9WPXVIdN+7g0RSI7z20TszxbB19CkU7hTqsFpITInNJDDUuJJCIqteECQgAZOIvmqK9z2yY9oF9BWQTQkUZgt1bJc0FL4GyDJiXD2JrUuN9vCep87VkAK8TGF8E4i+sySoDqrsSTtMnXE62fd2LcbFkWg4Sx3vaorj+UASaNRpHieRkU72FtRRHoRR507ibBW9a40eMrf63iMBFqa+ft+ImQRhxQUSXYkkzijfQijP9jbDK0+YVZLAK5mEZB6FbyFhd9WnVJGgmEbpX0QXqkmEPC/YSulIcNiaRLam+8Gr3HlGyEyilPKmTQmvVno+gL7/Xo2+RiqH2TdZDU5S/j5P+VBONi+jxJ1vRt+zFH9WmD2vBuJN9lrJvn1U/gcbbOXf9/8ofc/nA3El9P2qfYl2+8RUFzatRd9hsi/ZnSEkvg1CHkdTWZ3AuBevzi5SPV1CcbxJ8ZrV/UKNYcaAMV6uEiF6SRREmxrQbFUgikZ2dU1zoNokgaayjgamUgScp2snpSSGJLbBHDAe8t/mQz5T+LsYcnKegfua0UqjWNmMgWFbYCzT4UKcFvnL7DM34qRC6GBEx0OWa08FPpWNjEX2xilNTkTURgNa2+h+BG9GZu5CxCT8Z9CfwojcSp+9JDLy6uwCR2Behm1PBvZRp5zqGEV7k1B4TgX79CX9L5U64jwSS0JHlgC7F1hCndFchxo4Xk6dMI3oW1SOfRdieiefOtA5JKioY519gcKnQcgmIwkEse2+Vw7FGdpqf3+GCuOoU4dYbA9bFEViIBx9xcfQZ02B13Vex2Ib9SOBBFKco6OcJoPXi9Rxp2jpPRIb79UAU0iUPOdY3pqpgNfTdO/5oTLKTGKA8me2i/15lcIekniKy2H709QhF9C1rBK7qFmmsC+5CPlj26vTij5DM5CkIdtJFJBfwRKtXeBctXUjibindeg7T+kblLQGQJjpoPz2miaERcLgRcr7vSQ8hzLdHZco/4Vy9HOU+RQSN4Yzg+MdBJV/en/5ey0iUbKj2T7zF+CwryDbYZ/ENiOFKhIot9I7SIV8pzpxkv6YdwvhMMwtMuZ7ckQxMkSbtag7DURdqkPDxCioEuagIa8GDZfUkNfX4dg0ObKFUc8X9PGWQDJwO4JIRM22Bxarc8gmm1gJXCLpX5oihxaWlAKbm3Q8L5kxIDAa9YwXBr5WQQSxyGHuQoS6ads3M55G8CfQ12kGVvvRSNrpuZkmEhSwd3zUZjCwzQh7KsQW29LV1Y7RK3jAA20n7LMvEq/rO2JJB8VLo/3zJA5mDJgimSgdsCxEYVdkou9tGuWf7bF7mUtmu0BzCYkRYWBxNB5X3nS6RQJJ6IxtyyySxMECaSbZ7G0aIswLtv8w12/wZSsJljfIrqQ6xzIYkaCEV5bQsecDyWLq+ElMLSH7qaP3ihNmkQzoO07pezPMts9HMBdxTmkRnJLVSOl1MuM8lcMlp7xyLo8bJWIdvFJJhJBv65tLAmuRDFBQ3kQMsRuRRO6gjYoiwbf12OuRK/smUjqlt+j/xCSs0GEvA4YZQ8Zc5GCKDLKwTBgbO2EyN8IctQXSKRJEB2ejrpFESn0jxi9SIeqmLbW4f4Rh7hXOH0MfDQiQLvSSJEa8qYMyXqDO2M17zu3HeVDg7dSpTVTA6xu966WGThqhD9euKlToyzLBq7wWXsscvfkfY3FlhxsbX2zAuB1RLm/ZxNaPThevG9iMAGGfzhdk+0k5ruwbcN1sBsp08EoWZr8oT5OF5TUSN5fk8BKWqiKVtmW6/jjH0q8EwOv1BhJmzfYluUM69C3Kpjw3YtzLrvNvSFzm4fjRMJJh7grGXuTQkEa2SIr8wzUwmk8gLDkcInIy0REi6A4bIK7vgSxn6HX34cKVBotgOmmCGVGOjcRmNO7T4tg0JdQxo5oIhrkDmNG3o4gEiNy+F4MGA15TLNRpt5LIGTCz0GmyzdZcm4wUlrXa4NjEDPvo3SyC1zThmHHr9dEEz6F3SMgcp78PPCV0tpPCGBAvta1ry0uWVvT9wQgkZACNzSQKMvoFjjCz0yxMfww1k0PPUVvFcRJtGNBJX6L4rAG21TKv6YHUoTtmp656rZNku3WoGQc/2384P3AqwWxfFosRlt6clpVainDlKUEACct29H0JiRqogMON6DOQ7elK+3PeDluFpbCBtra12u/NwODZiymB9n0vX3VSeI7ZEssJ+8xVyBCmXy24gTpK2DB+FWE2z0x/BoTBKzUMSKW8/gOJyGISOy9GDbNs5YKr9p0103ti+7VLx6haUBxzbyQgJ8wdJEwpbD/3jzLM7eQuEDnk+hZFw+9tDbTmOVDtFtuuhcVEoyOnEMaz0ciMuZmpUxFkqxIR+FQ+MivCUBgXiI5D2VCnGxFt4B3/zD1AZ6e9v7P2oM/UCJQVoq/SQh20xrGZVgYIS0S7M2kkr7OfbBL20ySp0be6gUb1DlEhHEH/I4mjUOoMxZ0klDQkHOT2TbSuCCEBEENxvZwNVGTbT0RVZ+PKaiO8DMdsezqQLLWfxoohW2aSfcXrSECI4bWK4pgegL6qBurYSTBME/awZAKnxbaOz9Y5C/t8hOW2DkFsUecqovdSlehbvo2ejaa/S/s301q2YJyRxIawbJRHwuuPKvu+nOMkSN4WZrLCh8g8ii+ERMcnrfZ8EjhLIqCa8u8NsmuGePDjMwRxQ2HurYPX6/T8RPosG0/CjfLgrKz/JJIwy5NKdj1F+VMdZRdywm/+FJPAS3Ix8yWicIS9P2/Q83EkrqZ02IRq3yUMPRMVLJSbngQWlX9ygP30074GuuZI675EXCkgOyqK7EtUlygfWyhvJXIX+53cMDHaXg+u2jdRODWnIYEyQp8rzAAKj5oon80kmsWO91qFfJfe/OZqhhkl7gqRg7lyyC4VQROwBdEOXyKKikL4aS3qYtSQiW8uWHFcCWrIEa/LkyHwaccR8tdrULhEdHNT3Qxzp7A2koAI7N8TEyC1/xjg4ez+Y9qEVw51rvdnoG+VhEbjFttzXqt0GPfigFkTUTh10sIm2l/ginA8eyaFU66xd8gu24GE7lO4whHySD/qkKm9zCTxsZs6cYcw8sqjTthKwiaB4j1P1yKEZR2H+HqGOt8mElqhJBKEI8mrqPN8W2475twXqQQaSZA9RX8XjowHG4B3hGPZhRj3tgh9BfG48jzZKKIOM46ExxuO01dzszHu9U7q3GXo20Tfo5Tw2kT3nm4csi3bTvj8UTg27zhhVUYiaQrFnyB28bTUvgE5i4RODomaKSJ4JSnQ92SRXbwM/GE/8ivjdpPoyxJOFVkcx921GJcndxEuiZFi4ag1CcJQEg/C3qXnKT8W1dlmpVwyQ2XbTN63KQx9eYG2nw3wekZlnyET3hF+7M9E+UtC01bmwhHyGBKmb2QMEeBwBDjso7IOJvE1jcp50xZ4naT4R7RsRelZLeQbCa9DVCZNe2z1qu9QHZVRBp+sYsacu0Pk0Gin5Js+lAy8NkWFmu9Vg5+LyMeJ7zHMtQCoP+hB/zyNCNLUEtSmluA6vOXY09Hj/hrD3GmWUCf6o4s66wpv6qR+R6Lhd8M9RCJkEXVcyVuuX8qgOu/lqs5PiYLX3tqhlz68hVM4NfRxcU9M775z7Lp3vVoV/ddoQDOuY+A/O0A2Jgm/lls4RJx0/5k9GEefQWEmDWUgEUNiYSZ1wPta4SWIvt8dw7jh8umZGgp/wPdFJLx+LHRtyyq6t8rVPeE9Kr+BfiqA8vig3CldPcMsK5HA2kDCasPgq/1pDbCJTK+8IV4fmE7yj+Nc+MxB12ZQuRxU9B+XF06T7aY/YsSuw3dO328p33474LuZhGslpa9YOYSBDHPnGHOR4+V1QyvId4x9+/Zh5cqVY20GwzA3i3cYvITf73k6G32r9MP8+1b/yljQlz4HfY3CTBwJzGkWoCIffSel8FpyM/88DoW3g96XZmOcyxkzhrmzjLnI6eu76V+LYBiGGR7h31JaJUPfs1p4GVR3gce72xDBS/gV6Y0Z/UuTs6PhtVcHr5v5QdRDJCgrJfA6xP9uFXN3wNWQYTyZBYXXL1f8S0GdeEHDjZ04+ldDWJp8e5TySNhb1TYaATHM6MAih2EYhmEYj4RFDsMwDMMwHgmLHIZhGIZhPBIWOQzDMAzDeCQschiGYRiG8UhY5DAMwzAM45GwyGEYhmEYxiNhkcMwDMMwjEfCIodhGIZhGI+ERQ7DMAzDMB4JixyGYRiGYTySWxI5fn5+OHPmzGjZwjAMwzAMM2rcksj5xS9+MVp2MAzDMAzDjCq8XMUwDMMwjEfCIodhGIZhGI+ERQ7DMAzDMB4JixyGYRiGYTwSFjkMwzAMw3gkLHIYhmEYhvFIWOQwDMMwDOORsMhhGIZhGMYjYZHDMAzDMIxHwiKHYRiGYRiPhEUOwzAMwzAeCYschmEYhmE8EhY5DMMwDMN4JCxyGIZhGIbxSP5/suGn8p0UzPUAAAAASUVORK5CYII=;" vertex="1" parent="1">
          <mxGeometry x="-58" y="970" width="569" height="603" as="geometry" />
        </mxCell>
        <mxCell id="dKFzCZ33GP6Wc4S3GymS-5" value="&lt;p&gt;https://www.w3schools.com/jsref/tryit.asp?filename=tryjsref_event_key_altkey&lt;br&gt;&lt;/p&gt;" style="rounded=0;whiteSpace=wrap;html=1;" vertex="1" parent="1">
          <mxGeometry x="53" y="1573" width="347" height="60" as="geometry" />
        </mxCell>
        <mxCell id="dKFzCZ33GP6Wc4S3GymS-12" style="edgeStyle=orthogonalEdgeStyle;rounded=0;orthogonalLoop=1;jettySize=auto;html=1;exitX=1;exitY=0;exitDx=0;exitDy=0;entryX=0;entryY=0.5;entryDx=0;entryDy=0;strokeWidth=2;fontFamily=Helvetica;fontSize=24;" edge="1" parent="1" source="dKFzCZ33GP6Wc4S3GymS-6" target="dKFzCZ33GP6Wc4S3GymS-8">
          <mxGeometry relative="1" as="geometry" />
        </mxCell>
        <mxCell id="dKFzCZ33GP6Wc4S3GymS-13" style="edgeStyle=orthogonalEdgeStyle;rounded=0;orthogonalLoop=1;jettySize=auto;html=1;exitX=1;exitY=0.25;exitDx=0;exitDy=0;entryX=0;entryY=0.5;entryDx=0;entryDy=0;strokeWidth=2;fontFamily=Helvetica;fontSize=24;" edge="1" parent="1" source="dKFzCZ33GP6Wc4S3GymS-6" target="dKFzCZ33GP6Wc4S3GymS-9">
          <mxGeometry relative="1" as="geometry" />
        </mxCell>
        <mxCell id="dKFzCZ33GP6Wc4S3GymS-15" value="" style="edgeStyle=orthogonalEdgeStyle;rounded=0;orthogonalLoop=1;jettySize=auto;html=1;strokeWidth=2;fontFamily=Helvetica;fontSize=24;" edge="1" parent="1" source="dKFzCZ33GP6Wc4S3GymS-6" target="dKFzCZ33GP6Wc4S3GymS-10">
          <mxGeometry relative="1" as="geometry">
            <Array as="points">
              <mxPoint x="810" y="750" />
              <mxPoint x="810" y="820" />
            </Array>
          </mxGeometry>
        </mxCell>
        <mxCell id="dKFzCZ33GP6Wc4S3GymS-16" style="edgeStyle=orthogonalEdgeStyle;rounded=0;orthogonalLoop=1;jettySize=auto;html=1;exitX=1;exitY=0.75;exitDx=0;exitDy=0;strokeWidth=2;fontFamily=Helvetica;fontSize=24;entryX=0;entryY=0.5;entryDx=0;entryDy=0;" edge="1" parent="1" source="dKFzCZ33GP6Wc4S3GymS-6" target="dKFzCZ33GP6Wc4S3GymS-11">
          <mxGeometry relative="1" as="geometry">
            <mxPoint x="790" y="860" as="targetPoint" />
          </mxGeometry>
        </mxCell>
        <mxCell id="dKFzCZ33GP6Wc4S3GymS-6" value="&lt;p&gt;&lt;font style=&quot;font-size: 24px;&quot;&gt;Capturam interações do usuário com o mouse.&lt;/font&gt;&lt;br&gt;&lt;/p&gt;&lt;p&gt;&lt;font style=&quot;font-size: 24px;&quot;&gt;Existem vários eventos deste tipo, sendo os mais comuns:&amp;nbsp;&lt;/font&gt;&lt;/p&gt;" style="rounded=0;whiteSpace=wrap;html=1;" vertex="1" parent="1">
          <mxGeometry x="430" y="660" width="347" height="150" as="geometry" />
        </mxCell>
        <mxCell id="dKFzCZ33GP6Wc4S3GymS-8" value="&lt;p&gt;&lt;font style=&quot;font-size: 24px;&quot;&gt;&lt;span style=&quot;background-color: initial;&quot;&gt;&amp;nbsp;&lt;/span&gt;&lt;code style=&quot;background: var(--gray15); box-sizing: inherit; margin: 0px; padding: 0px 5px 2px; border: 0px; font-variant-numeric: inherit; font-variant-east-asian: inherit; font-stretch: inherit; line-height: 1em; vertical-align: baseline; word-break: normal; color: rgb(10, 10, 35); text-align: start;&quot;&gt;onclick&lt;/code&gt;&lt;/font&gt;&lt;br&gt;&lt;/p&gt;&lt;p&gt;&lt;font style=&quot;&quot;&gt;&lt;code style=&quot;background: var(--gray15); box-sizing: inherit; margin: 0px; padding: 0px 5px 2px; border: 0px; font-variant-numeric: inherit; font-variant-east-asian: inherit; font-stretch: inherit; line-height: 1em; vertical-align: baseline; word-break: normal; text-align: start;&quot;&gt;&lt;font color=&quot;#0a0a23&quot;&gt;https://www.w3schools.com/jsref/tryit.asp?filename=tryjsref_onclick&lt;/font&gt;&lt;br&gt;&lt;/code&gt;&lt;/font&gt;&lt;/p&gt;" style="rounded=0;whiteSpace=wrap;html=1;" vertex="1" parent="1">
          <mxGeometry x="820" y="530" width="347" height="100" as="geometry" />
        </mxCell>
        <mxCell id="dKFzCZ33GP6Wc4S3GymS-9" value="&lt;p&gt;&lt;font style=&quot;font-size: 24px;&quot;&gt;&lt;span style=&quot;background-color: initial;&quot;&gt;&amp;nbsp;&lt;/span&gt;&lt;code style=&quot;background: var(--gray15); box-sizing: inherit; margin: 0px; padding: 0px 5px 2px; border: 0px; font-variant-numeric: inherit; font-variant-east-asian: inherit; font-stretch: inherit; line-height: 1em; vertical-align: baseline; word-break: normal; color: rgb(10, 10, 35); text-align: start;&quot;&gt;ondblclick&lt;/code&gt;&lt;/font&gt;&lt;br&gt;&lt;/p&gt;&lt;p&gt;&lt;font style=&quot;&quot;&gt;&lt;code style=&quot;background: var(--gray15); box-sizing: inherit; margin: 0px; padding: 0px 5px 2px; border: 0px; font-variant-numeric: inherit; font-variant-east-asian: inherit; font-stretch: inherit; line-height: 1em; vertical-align: baseline; word-break: normal; text-align: start;&quot;&gt;&lt;font color=&quot;#0a0a23&quot;&gt;https://www.w3schools.com/jsref/tryit.asp?filename=tryjsref_ondblclick&lt;/font&gt;&lt;br&gt;&lt;/code&gt;&lt;/font&gt;&lt;/p&gt;" style="rounded=0;whiteSpace=wrap;html=1;" vertex="1" parent="1">
          <mxGeometry x="820" y="650" width="347" height="100" as="geometry" />
        </mxCell>
        <mxCell id="dKFzCZ33GP6Wc4S3GymS-10" value="&lt;p&gt;&lt;font style=&quot;font-size: 24px;&quot;&gt;&lt;span style=&quot;background-color: initial;&quot;&gt;&amp;nbsp;&lt;/span&gt;&lt;code style=&quot;background: var(--gray15); box-sizing: inherit; margin: 0px; padding: 0px 5px 2px; border: 0px; font-variant-numeric: inherit; font-variant-east-asian: inherit; font-stretch: inherit; line-height: 1em; vertical-align: baseline; word-break: normal; color: rgb(10, 10, 35); text-align: start;&quot;&gt;onmouseup&lt;/code&gt;&lt;/font&gt;&lt;br&gt;&lt;/p&gt;&lt;p&gt;&lt;font style=&quot;&quot;&gt;&lt;code style=&quot;background: var(--gray15); box-sizing: inherit; margin: 0px; padding: 0px 5px 2px; border: 0px; font-variant-numeric: inherit; font-variant-east-asian: inherit; font-stretch: inherit; line-height: 1em; vertical-align: baseline; word-break: normal; text-align: start;&quot;&gt;&lt;font color=&quot;#0a0a23&quot;&gt;https://www.w3schools.com/jsref/tryit.asp?filename=tryjsref_onmousedown&lt;/font&gt;&lt;br&gt;&lt;/code&gt;&lt;/font&gt;&lt;/p&gt;" style="rounded=0;whiteSpace=wrap;html=1;" vertex="1" parent="1">
          <mxGeometry x="820" y="770" width="347" height="100" as="geometry" />
        </mxCell>
        <mxCell id="dKFzCZ33GP6Wc4S3GymS-11" value="&lt;p&gt;&lt;font style=&quot;font-size: 24px;&quot;&gt;&lt;span style=&quot;background-color: initial;&quot;&gt;&amp;nbsp;&lt;/span&gt;&lt;code style=&quot;background: var(--gray15); box-sizing: inherit; margin: 0px; padding: 0px 5px 2px; border: 0px; font-variant-numeric: inherit; font-variant-east-asian: inherit; font-stretch: inherit; line-height: 1em; vertical-align: baseline; word-break: normal; color: rgb(10, 10, 35); text-align: start;&quot;&gt;onmousedown&lt;/code&gt;&lt;/font&gt;&lt;br&gt;&lt;/p&gt;&lt;p&gt;&lt;font style=&quot;&quot;&gt;&lt;code style=&quot;background: var(--gray15); box-sizing: inherit; margin: 0px; padding: 0px 5px 2px; border: 0px; font-variant-numeric: inherit; font-variant-east-asian: inherit; font-stretch: inherit; line-height: 1em; vertical-align: baseline; word-break: normal; text-align: start;&quot;&gt;&lt;font color=&quot;#0a0a23&quot;&gt;https://www.w3schools.com/jsref/tryit.asp?filename=tryjsref_onmousedown&lt;/font&gt;&lt;br&gt;&lt;/code&gt;&lt;/font&gt;&lt;/p&gt;" style="rounded=0;whiteSpace=wrap;html=1;" vertex="1" parent="1">
          <mxGeometry x="820" y="890" width="347" height="100" as="geometry" />
        </mxCell>
      </root>
    </mxGraphModel>
  </diagram>
</mxfile>
